<?xml version="1.0" encoding="utf-8" standalone="no"?>
<!DOCTYPE svg PUBLIC "-//W3C//DTD SVG 1.1//EN"
  "http://www.w3.org/Graphics/SVG/1.1/DTD/svg11.dtd">
<!-- Created with matplotlib (https://matplotlib.org/) -->
<svg height="277.314375pt" version="1.1" viewBox="0 0 397.407483 277.314375" width="397.407483pt" xmlns="http://www.w3.org/2000/svg" xmlns:xlink="http://www.w3.org/1999/xlink">
 <defs>
  <style type="text/css">
*{stroke-linecap:butt;stroke-linejoin:round;}
  </style>
 </defs>
 <g id="figure_1">
  <g id="patch_1">
   <path d="M 0 277.314375 
L 397.407483 277.314375 
L 397.407483 0 
L 0 0 
z
" style="fill:none;"/>
  </g>
  <g id="axes_1">
   <g id="patch_2">
    <path d="M 43.78125 239.758125 
L 378.58125 239.758125 
L 378.58125 22.318125 
L 43.78125 22.318125 
z
" style="fill:#ffffff;"/>
   </g>
   <g id="matplotlib.axis_1">
    <g id="xtick_1">
     <g id="line2d_1">
      <defs>
       <path d="M 0 0 
L 0 3.5 
" id="mb75272062d" style="stroke:#000000;stroke-width:0.8;"/>
      </defs>
      <g>
       <use style="stroke:#000000;stroke-width:0.8;" x="58.999432" xlink:href="#mb75272062d" y="239.758125"/>
      </g>
     </g>
     <g id="text_1">
      <!-- 0 -->
      <defs>
       <path d="M 31.78125 66.40625 
Q 24.171875 66.40625 20.328125 58.90625 
Q 16.5 51.421875 16.5 36.375 
Q 16.5 21.390625 20.328125 13.890625 
Q 24.171875 6.390625 31.78125 6.390625 
Q 39.453125 6.390625 43.28125 13.890625 
Q 47.125 21.390625 47.125 36.375 
Q 47.125 51.421875 43.28125 58.90625 
Q 39.453125 66.40625 31.78125 66.40625 
z
M 31.78125 74.21875 
Q 44.046875 74.21875 50.515625 64.515625 
Q 56.984375 54.828125 56.984375 36.375 
Q 56.984375 17.96875 50.515625 8.265625 
Q 44.046875 -1.421875 31.78125 -1.421875 
Q 19.53125 -1.421875 13.0625 8.265625 
Q 6.59375 17.96875 6.59375 36.375 
Q 6.59375 54.828125 13.0625 64.515625 
Q 19.53125 74.21875 31.78125 74.21875 
z
" id="DejaVuSans-48"/>
      </defs>
      <g transform="translate(55.818182 254.356562)scale(0.1 -0.1)">
       <use xlink:href="#DejaVuSans-48"/>
      </g>
     </g>
    </g>
    <g id="xtick_2">
     <g id="line2d_2">
      <g>
       <use style="stroke:#000000;stroke-width:0.8;" x="112.07994" xlink:href="#mb75272062d" y="239.758125"/>
      </g>
     </g>
     <g id="text_2">
      <!-- 500 -->
      <defs>
       <path d="M 10.796875 72.90625 
L 49.515625 72.90625 
L 49.515625 64.59375 
L 19.828125 64.59375 
L 19.828125 46.734375 
Q 21.96875 47.46875 24.109375 47.828125 
Q 26.265625 48.1875 28.421875 48.1875 
Q 40.625 48.1875 47.75 41.5 
Q 54.890625 34.8125 54.890625 23.390625 
Q 54.890625 11.625 47.5625 5.09375 
Q 40.234375 -1.421875 26.90625 -1.421875 
Q 22.3125 -1.421875 17.546875 -0.640625 
Q 12.796875 0.140625 7.71875 1.703125 
L 7.71875 11.625 
Q 12.109375 9.234375 16.796875 8.0625 
Q 21.484375 6.890625 26.703125 6.890625 
Q 35.15625 6.890625 40.078125 11.328125 
Q 45.015625 15.765625 45.015625 23.390625 
Q 45.015625 31 40.078125 35.4375 
Q 35.15625 39.890625 26.703125 39.890625 
Q 22.75 39.890625 18.8125 39.015625 
Q 14.890625 38.140625 10.796875 36.28125 
z
" id="DejaVuSans-53"/>
      </defs>
      <g transform="translate(102.53619 254.356562)scale(0.1 -0.1)">
       <use xlink:href="#DejaVuSans-53"/>
       <use x="63.623047" xlink:href="#DejaVuSans-48"/>
       <use x="127.246094" xlink:href="#DejaVuSans-48"/>
      </g>
     </g>
    </g>
    <g id="xtick_3">
     <g id="line2d_3">
      <g>
       <use style="stroke:#000000;stroke-width:0.8;" x="165.160449" xlink:href="#mb75272062d" y="239.758125"/>
      </g>
     </g>
     <g id="text_3">
      <!-- 1000 -->
      <defs>
       <path d="M 12.40625 8.296875 
L 28.515625 8.296875 
L 28.515625 63.921875 
L 10.984375 60.40625 
L 10.984375 69.390625 
L 28.421875 72.90625 
L 38.28125 72.90625 
L 38.28125 8.296875 
L 54.390625 8.296875 
L 54.390625 0 
L 12.40625 0 
z
" id="DejaVuSans-49"/>
      </defs>
      <g transform="translate(152.435449 254.356562)scale(0.1 -0.1)">
       <use xlink:href="#DejaVuSans-49"/>
       <use x="63.623047" xlink:href="#DejaVuSans-48"/>
       <use x="127.246094" xlink:href="#DejaVuSans-48"/>
       <use x="190.869141" xlink:href="#DejaVuSans-48"/>
      </g>
     </g>
    </g>
    <g id="xtick_4">
     <g id="line2d_4">
      <g>
       <use style="stroke:#000000;stroke-width:0.8;" x="218.240958" xlink:href="#mb75272062d" y="239.758125"/>
      </g>
     </g>
     <g id="text_4">
      <!-- 1500 -->
      <g transform="translate(205.515958 254.356562)scale(0.1 -0.1)">
       <use xlink:href="#DejaVuSans-49"/>
       <use x="63.623047" xlink:href="#DejaVuSans-53"/>
       <use x="127.246094" xlink:href="#DejaVuSans-48"/>
       <use x="190.869141" xlink:href="#DejaVuSans-48"/>
      </g>
     </g>
    </g>
    <g id="xtick_5">
     <g id="line2d_5">
      <g>
       <use style="stroke:#000000;stroke-width:0.8;" x="271.321466" xlink:href="#mb75272062d" y="239.758125"/>
      </g>
     </g>
     <g id="text_5">
      <!-- 2000 -->
      <defs>
       <path d="M 19.1875 8.296875 
L 53.609375 8.296875 
L 53.609375 0 
L 7.328125 0 
L 7.328125 8.296875 
Q 12.9375 14.109375 22.625 23.890625 
Q 32.328125 33.6875 34.8125 36.53125 
Q 39.546875 41.84375 41.421875 45.53125 
Q 43.3125 49.21875 43.3125 52.78125 
Q 43.3125 58.59375 39.234375 62.25 
Q 35.15625 65.921875 28.609375 65.921875 
Q 23.96875 65.921875 18.8125 64.3125 
Q 13.671875 62.703125 7.8125 59.421875 
L 7.8125 69.390625 
Q 13.765625 71.78125 18.9375 73 
Q 24.125 74.21875 28.421875 74.21875 
Q 39.75 74.21875 46.484375 68.546875 
Q 53.21875 62.890625 53.21875 53.421875 
Q 53.21875 48.921875 51.53125 44.890625 
Q 49.859375 40.875 45.40625 35.40625 
Q 44.1875 33.984375 37.640625 27.21875 
Q 31.109375 20.453125 19.1875 8.296875 
z
" id="DejaVuSans-50"/>
      </defs>
      <g transform="translate(258.596466 254.356562)scale(0.1 -0.1)">
       <use xlink:href="#DejaVuSans-50"/>
       <use x="63.623047" xlink:href="#DejaVuSans-48"/>
       <use x="127.246094" xlink:href="#DejaVuSans-48"/>
       <use x="190.869141" xlink:href="#DejaVuSans-48"/>
      </g>
     </g>
    </g>
    <g id="xtick_6">
     <g id="line2d_6">
      <g>
       <use style="stroke:#000000;stroke-width:0.8;" x="324.401975" xlink:href="#mb75272062d" y="239.758125"/>
      </g>
     </g>
     <g id="text_6">
      <!-- 2500 -->
      <g transform="translate(311.676975 254.356562)scale(0.1 -0.1)">
       <use xlink:href="#DejaVuSans-50"/>
       <use x="63.623047" xlink:href="#DejaVuSans-53"/>
       <use x="127.246094" xlink:href="#DejaVuSans-48"/>
       <use x="190.869141" xlink:href="#DejaVuSans-48"/>
      </g>
     </g>
    </g>
    <g id="xtick_7">
     <g id="line2d_7">
      <g>
       <use style="stroke:#000000;stroke-width:0.8;" x="377.482483" xlink:href="#mb75272062d" y="239.758125"/>
      </g>
     </g>
     <g id="text_7">
      <!-- 3000 -->
      <defs>
       <path d="M 40.578125 39.3125 
Q 47.65625 37.796875 51.625 33 
Q 55.609375 28.21875 55.609375 21.1875 
Q 55.609375 10.40625 48.1875 4.484375 
Q 40.765625 -1.421875 27.09375 -1.421875 
Q 22.515625 -1.421875 17.65625 -0.515625 
Q 12.796875 0.390625 7.625 2.203125 
L 7.625 11.71875 
Q 11.71875 9.328125 16.59375 8.109375 
Q 21.484375 6.890625 26.8125 6.890625 
Q 36.078125 6.890625 40.9375 10.546875 
Q 45.796875 14.203125 45.796875 21.1875 
Q 45.796875 27.640625 41.28125 31.265625 
Q 36.765625 34.90625 28.71875 34.90625 
L 20.21875 34.90625 
L 20.21875 43.015625 
L 29.109375 43.015625 
Q 36.375 43.015625 40.234375 45.921875 
Q 44.09375 48.828125 44.09375 54.296875 
Q 44.09375 59.90625 40.109375 62.90625 
Q 36.140625 65.921875 28.71875 65.921875 
Q 24.65625 65.921875 20.015625 65.03125 
Q 15.375 64.15625 9.8125 62.3125 
L 9.8125 71.09375 
Q 15.4375 72.65625 20.34375 73.4375 
Q 25.25 74.21875 29.59375 74.21875 
Q 40.828125 74.21875 47.359375 69.109375 
Q 53.90625 64.015625 53.90625 55.328125 
Q 53.90625 49.265625 50.4375 45.09375 
Q 46.96875 40.921875 40.578125 39.3125 
z
" id="DejaVuSans-51"/>
      </defs>
      <g transform="translate(364.757483 254.356562)scale(0.1 -0.1)">
       <use xlink:href="#DejaVuSans-51"/>
       <use x="63.623047" xlink:href="#DejaVuSans-48"/>
       <use x="127.246094" xlink:href="#DejaVuSans-48"/>
       <use x="190.869141" xlink:href="#DejaVuSans-48"/>
      </g>
     </g>
    </g>
    <g id="text_8">
     <!-- 50 BATCHES -->
     <defs>
      <path id="DejaVuSans-32"/>
      <path d="M 19.671875 34.8125 
L 19.671875 8.109375 
L 35.5 8.109375 
Q 43.453125 8.109375 47.28125 11.40625 
Q 51.125 14.703125 51.125 21.484375 
Q 51.125 28.328125 47.28125 31.5625 
Q 43.453125 34.8125 35.5 34.8125 
z
M 19.671875 64.796875 
L 19.671875 42.828125 
L 34.28125 42.828125 
Q 41.5 42.828125 45.03125 45.53125 
Q 48.578125 48.25 48.578125 53.8125 
Q 48.578125 59.328125 45.03125 62.0625 
Q 41.5 64.796875 34.28125 64.796875 
z
M 9.8125 72.90625 
L 35.015625 72.90625 
Q 46.296875 72.90625 52.390625 68.21875 
Q 58.5 63.53125 58.5 54.890625 
Q 58.5 48.1875 55.375 44.234375 
Q 52.25 40.28125 46.1875 39.3125 
Q 53.46875 37.75 57.5 32.78125 
Q 61.53125 27.828125 61.53125 20.40625 
Q 61.53125 10.640625 54.890625 5.3125 
Q 48.25 0 35.984375 0 
L 9.8125 0 
z
" id="DejaVuSans-66"/>
      <path d="M 34.1875 63.1875 
L 20.796875 26.90625 
L 47.609375 26.90625 
z
M 28.609375 72.90625 
L 39.796875 72.90625 
L 67.578125 0 
L 57.328125 0 
L 50.6875 18.703125 
L 17.828125 18.703125 
L 11.1875 0 
L 0.78125 0 
z
" id="DejaVuSans-65"/>
      <path d="M -0.296875 72.90625 
L 61.375 72.90625 
L 61.375 64.59375 
L 35.5 64.59375 
L 35.5 0 
L 25.59375 0 
L 25.59375 64.59375 
L -0.296875 64.59375 
z
" id="DejaVuSans-84"/>
      <path d="M 64.40625 67.28125 
L 64.40625 56.890625 
Q 59.421875 61.53125 53.78125 63.8125 
Q 48.140625 66.109375 41.796875 66.109375 
Q 29.296875 66.109375 22.65625 58.46875 
Q 16.015625 50.828125 16.015625 36.375 
Q 16.015625 21.96875 22.65625 14.328125 
Q 29.296875 6.6875 41.796875 6.6875 
Q 48.140625 6.6875 53.78125 8.984375 
Q 59.421875 11.28125 64.40625 15.921875 
L 64.40625 5.609375 
Q 59.234375 2.09375 53.4375 0.328125 
Q 47.65625 -1.421875 41.21875 -1.421875 
Q 24.65625 -1.421875 15.125 8.703125 
Q 5.609375 18.84375 5.609375 36.375 
Q 5.609375 53.953125 15.125 64.078125 
Q 24.65625 74.21875 41.21875 74.21875 
Q 47.75 74.21875 53.53125 72.484375 
Q 59.328125 70.75 64.40625 67.28125 
z
" id="DejaVuSans-67"/>
      <path d="M 9.8125 72.90625 
L 19.671875 72.90625 
L 19.671875 43.015625 
L 55.515625 43.015625 
L 55.515625 72.90625 
L 65.375 72.90625 
L 65.375 0 
L 55.515625 0 
L 55.515625 34.71875 
L 19.671875 34.71875 
L 19.671875 0 
L 9.8125 0 
z
" id="DejaVuSans-72"/>
      <path d="M 9.8125 72.90625 
L 55.90625 72.90625 
L 55.90625 64.59375 
L 19.671875 64.59375 
L 19.671875 43.015625 
L 54.390625 43.015625 
L 54.390625 34.71875 
L 19.671875 34.71875 
L 19.671875 8.296875 
L 56.78125 8.296875 
L 56.78125 0 
L 9.8125 0 
z
" id="DejaVuSans-69"/>
      <path d="M 53.515625 70.515625 
L 53.515625 60.890625 
Q 47.90625 63.578125 42.921875 64.890625 
Q 37.9375 66.21875 33.296875 66.21875 
Q 25.25 66.21875 20.875 63.09375 
Q 16.5 59.96875 16.5 54.203125 
Q 16.5 49.359375 19.40625 46.890625 
Q 22.3125 44.4375 30.421875 42.921875 
L 36.375 41.703125 
Q 47.40625 39.59375 52.65625 34.296875 
Q 57.90625 29 57.90625 20.125 
Q 57.90625 9.515625 50.796875 4.046875 
Q 43.703125 -1.421875 29.984375 -1.421875 
Q 24.8125 -1.421875 18.96875 -0.25 
Q 13.140625 0.921875 6.890625 3.21875 
L 6.890625 13.375 
Q 12.890625 10.015625 18.65625 8.296875 
Q 24.421875 6.59375 29.984375 6.59375 
Q 38.421875 6.59375 43.015625 9.90625 
Q 47.609375 13.234375 47.609375 19.390625 
Q 47.609375 24.75 44.3125 27.78125 
Q 41.015625 30.8125 33.5 32.328125 
L 27.484375 33.5 
Q 16.453125 35.6875 11.515625 40.375 
Q 6.59375 45.0625 6.59375 53.421875 
Q 6.59375 63.09375 13.40625 68.65625 
Q 20.21875 74.21875 32.171875 74.21875 
Q 37.3125 74.21875 42.625 73.28125 
Q 47.953125 72.359375 53.515625 70.515625 
z
" id="DejaVuSans-83"/>
     </defs>
     <g transform="translate(179.749219 268.034687)scale(0.1 -0.1)">
      <use xlink:href="#DejaVuSans-53"/>
      <use x="63.623047" xlink:href="#DejaVuSans-48"/>
      <use x="127.246094" xlink:href="#DejaVuSans-32"/>
      <use x="159.033203" xlink:href="#DejaVuSans-66"/>
      <use x="227.636719" xlink:href="#DejaVuSans-65"/>
      <use x="295.935547" xlink:href="#DejaVuSans-84"/>
      <use x="356.941406" xlink:href="#DejaVuSans-67"/>
      <use x="426.765625" xlink:href="#DejaVuSans-72"/>
      <use x="501.960938" xlink:href="#DejaVuSans-69"/>
      <use x="565.144531" xlink:href="#DejaVuSans-83"/>
     </g>
    </g>
   </g>
   <g id="matplotlib.axis_2">
    <g id="ytick_1">
     <g id="line2d_8">
      <defs>
       <path d="M 0 0 
L -3.5 0 
" id="mdc2d3545cf" style="stroke:#000000;stroke-width:0.8;"/>
      </defs>
      <g>
       <use style="stroke:#000000;stroke-width:0.8;" x="43.78125" xlink:href="#mdc2d3545cf" y="233.422382"/>
      </g>
     </g>
     <g id="text_9">
      <!-- 0.0 -->
      <defs>
       <path d="M 10.6875 12.40625 
L 21 12.40625 
L 21 0 
L 10.6875 0 
z
" id="DejaVuSans-46"/>
      </defs>
      <g transform="translate(20.878125 237.221601)scale(0.1 -0.1)">
       <use xlink:href="#DejaVuSans-48"/>
       <use x="63.623047" xlink:href="#DejaVuSans-46"/>
       <use x="95.410156" xlink:href="#DejaVuSans-48"/>
      </g>
     </g>
    </g>
    <g id="ytick_2">
     <g id="line2d_9">
      <g>
       <use style="stroke:#000000;stroke-width:0.8;" x="43.78125" xlink:href="#mdc2d3545cf" y="202.837093"/>
      </g>
     </g>
     <g id="text_10">
      <!-- 0.1 -->
      <g transform="translate(20.878125 206.636311)scale(0.1 -0.1)">
       <use xlink:href="#DejaVuSans-48"/>
       <use x="63.623047" xlink:href="#DejaVuSans-46"/>
       <use x="95.410156" xlink:href="#DejaVuSans-49"/>
      </g>
     </g>
    </g>
    <g id="ytick_3">
     <g id="line2d_10">
      <g>
       <use style="stroke:#000000;stroke-width:0.8;" x="43.78125" xlink:href="#mdc2d3545cf" y="172.251803"/>
      </g>
     </g>
     <g id="text_11">
      <!-- 0.2 -->
      <g transform="translate(20.878125 176.051022)scale(0.1 -0.1)">
       <use xlink:href="#DejaVuSans-48"/>
       <use x="63.623047" xlink:href="#DejaVuSans-46"/>
       <use x="95.410156" xlink:href="#DejaVuSans-50"/>
      </g>
     </g>
    </g>
    <g id="ytick_4">
     <g id="line2d_11">
      <g>
       <use style="stroke:#000000;stroke-width:0.8;" x="43.78125" xlink:href="#mdc2d3545cf" y="141.666513"/>
      </g>
     </g>
     <g id="text_12">
      <!-- 0.3 -->
      <g transform="translate(20.878125 145.465732)scale(0.1 -0.1)">
       <use xlink:href="#DejaVuSans-48"/>
       <use x="63.623047" xlink:href="#DejaVuSans-46"/>
       <use x="95.410156" xlink:href="#DejaVuSans-51"/>
      </g>
     </g>
    </g>
    <g id="ytick_5">
     <g id="line2d_12">
      <g>
       <use style="stroke:#000000;stroke-width:0.8;" x="43.78125" xlink:href="#mdc2d3545cf" y="111.081223"/>
      </g>
     </g>
     <g id="text_13">
      <!-- 0.4 -->
      <defs>
       <path d="M 37.796875 64.3125 
L 12.890625 25.390625 
L 37.796875 25.390625 
z
M 35.203125 72.90625 
L 47.609375 72.90625 
L 47.609375 25.390625 
L 58.015625 25.390625 
L 58.015625 17.1875 
L 47.609375 17.1875 
L 47.609375 0 
L 37.796875 0 
L 37.796875 17.1875 
L 4.890625 17.1875 
L 4.890625 26.703125 
z
" id="DejaVuSans-52"/>
      </defs>
      <g transform="translate(20.878125 114.880442)scale(0.1 -0.1)">
       <use xlink:href="#DejaVuSans-48"/>
       <use x="63.623047" xlink:href="#DejaVuSans-46"/>
       <use x="95.410156" xlink:href="#DejaVuSans-52"/>
      </g>
     </g>
    </g>
    <g id="ytick_6">
     <g id="line2d_13">
      <g>
       <use style="stroke:#000000;stroke-width:0.8;" x="43.78125" xlink:href="#mdc2d3545cf" y="80.495934"/>
      </g>
     </g>
     <g id="text_14">
      <!-- 0.5 -->
      <g transform="translate(20.878125 84.295153)scale(0.1 -0.1)">
       <use xlink:href="#DejaVuSans-48"/>
       <use x="63.623047" xlink:href="#DejaVuSans-46"/>
       <use x="95.410156" xlink:href="#DejaVuSans-53"/>
      </g>
     </g>
    </g>
    <g id="ytick_7">
     <g id="line2d_14">
      <g>
       <use style="stroke:#000000;stroke-width:0.8;" x="43.78125" xlink:href="#mdc2d3545cf" y="49.910644"/>
      </g>
     </g>
     <g id="text_15">
      <!-- 0.6 -->
      <defs>
       <path d="M 33.015625 40.375 
Q 26.375 40.375 22.484375 35.828125 
Q 18.609375 31.296875 18.609375 23.390625 
Q 18.609375 15.53125 22.484375 10.953125 
Q 26.375 6.390625 33.015625 6.390625 
Q 39.65625 6.390625 43.53125 10.953125 
Q 47.40625 15.53125 47.40625 23.390625 
Q 47.40625 31.296875 43.53125 35.828125 
Q 39.65625 40.375 33.015625 40.375 
z
M 52.59375 71.296875 
L 52.59375 62.3125 
Q 48.875 64.0625 45.09375 64.984375 
Q 41.3125 65.921875 37.59375 65.921875 
Q 27.828125 65.921875 22.671875 59.328125 
Q 17.53125 52.734375 16.796875 39.40625 
Q 19.671875 43.65625 24.015625 45.921875 
Q 28.375 48.1875 33.59375 48.1875 
Q 44.578125 48.1875 50.953125 41.515625 
Q 57.328125 34.859375 57.328125 23.390625 
Q 57.328125 12.15625 50.6875 5.359375 
Q 44.046875 -1.421875 33.015625 -1.421875 
Q 20.359375 -1.421875 13.671875 8.265625 
Q 6.984375 17.96875 6.984375 36.375 
Q 6.984375 53.65625 15.1875 63.9375 
Q 23.390625 74.21875 37.203125 74.21875 
Q 40.921875 74.21875 44.703125 73.484375 
Q 48.484375 72.75 52.59375 71.296875 
z
" id="DejaVuSans-54"/>
      </defs>
      <g transform="translate(20.878125 53.709863)scale(0.1 -0.1)">
       <use xlink:href="#DejaVuSans-48"/>
       <use x="63.623047" xlink:href="#DejaVuSans-46"/>
       <use x="95.410156" xlink:href="#DejaVuSans-54"/>
      </g>
     </g>
    </g>
    <g id="text_16">
     <!-- LOSS -->
     <defs>
      <path d="M 9.8125 72.90625 
L 19.671875 72.90625 
L 19.671875 8.296875 
L 55.171875 8.296875 
L 55.171875 0 
L 9.8125 0 
z
" id="DejaVuSans-76"/>
      <path d="M 39.40625 66.21875 
Q 28.65625 66.21875 22.328125 58.203125 
Q 16.015625 50.203125 16.015625 36.375 
Q 16.015625 22.609375 22.328125 14.59375 
Q 28.65625 6.59375 39.40625 6.59375 
Q 50.140625 6.59375 56.421875 14.59375 
Q 62.703125 22.609375 62.703125 36.375 
Q 62.703125 50.203125 56.421875 58.203125 
Q 50.140625 66.21875 39.40625 66.21875 
z
M 39.40625 74.21875 
Q 54.734375 74.21875 63.90625 63.9375 
Q 73.09375 53.65625 73.09375 36.375 
Q 73.09375 19.140625 63.90625 8.859375 
Q 54.734375 -1.421875 39.40625 -1.421875 
Q 24.03125 -1.421875 14.8125 8.828125 
Q 5.609375 19.09375 5.609375 36.375 
Q 5.609375 53.65625 14.8125 63.9375 
Q 24.03125 74.21875 39.40625 74.21875 
z
" id="DejaVuSans-79"/>
     </defs>
     <g transform="translate(14.798438 144.106094)rotate(-90)scale(0.1 -0.1)">
      <use xlink:href="#DejaVuSans-76"/>
      <use x="55.666016" xlink:href="#DejaVuSans-79"/>
      <use x="134.376953" xlink:href="#DejaVuSans-83"/>
      <use x="197.853516" xlink:href="#DejaVuSans-83"/>
     </g>
    </g>
   </g>
   <g id="line2d_15">
    <path clip-path="url(#pc44134f9a5)" d="M 58.999432 32.201761 
L 59.105593 161.42461 
L 59.317915 138.17979 
L 59.424076 143.562801 
L 59.530237 134.387214 
L 59.84872 143.776898 
L 60.061042 137.262231 
L 60.273364 134.968335 
L 60.379525 139.066764 
L 60.485686 134.631897 
L 60.698008 138.026864 
L 60.804169 129.004203 
L 60.91033 131.512197 
L 61.122652 142.308804 
L 61.228813 136.344673 
L 61.334974 137.996278 
L 61.441135 137.292817 
L 61.653457 143.073436 
L 61.759618 142.308804 
L 61.97194 137.109305 
L 62.078101 137.812767 
L 62.184262 146.04021 
L 62.290423 142.675828 
L 62.396584 143.195778 
L 62.608906 148.425862 
L 62.715067 140.963052 
L 62.821228 148.18118 
L 63.03355 140.198419 
L 63.139711 141.146563 
L 63.245873 143.165192 
L 63.352034 132.796779 
L 63.458195 137.323402 
L 63.670517 153.074826 
L 63.776678 144.113336 
L 63.882839 151.851415 
L 63.989 146.162551 
L 64.095161 146.896598 
L 64.201322 153.992385 
L 64.413644 141.574757 
L 64.519805 150.995027 
L 64.625966 147.385962 
L 64.732127 150.719759 
L 64.838288 142.125293 
L 65.05061 154.114726 
L 65.156771 152.340779 
L 65.369093 144.572116 
L 65.475254 155.460479 
L 65.581415 152.860729 
L 65.687576 158.855446 
L 65.793737 152.891314 
L 65.899898 159.558908 
L 66.006059 153.105412 
L 66.11222 155.735746 
L 66.324542 147.630645 
L 66.430703 153.778288 
L 66.536864 145.397919 
L 66.643025 146.193136 
L 66.749186 139.647884 
L 66.855347 160.935246 
L 67.17383 147.385962 
L 67.279991 149.557518 
L 67.386152 154.328823 
L 67.492313 153.074826 
L 67.598474 161.302269 
L 67.810796 142.675828 
L 67.916957 161.730463 
L 68.023118 148.303521 
L 68.129279 148.823471 
L 68.23544 145.214407 
L 68.341601 152.218438 
L 68.447762 146.315477 
L 68.553923 157.509693 
L 68.660084 150.903271 
L 68.766245 156.347452 
L 68.872406 150.199809 
L 68.978567 151.239709 
L 69.084728 157.570864 
L 69.190889 148.578789 
L 69.29705 156.745061 
L 69.403212 155.766332 
L 69.509373 158.977787 
L 69.615534 154.206482 
L 69.934017 165.675966 
L 70.040178 159.344811 
L 70.146339 161.791634 
L 70.2525 155.093455 
L 70.358661 156.653305 
L 70.464822 165.951233 
L 70.570983 153.900629 
L 70.677144 156.133355 
L 70.783305 155.307552 
L 70.889466 164.177286 
L 71.207949 152.585462 
L 71.420271 159.497737 
L 71.632593 167.847521 
L 71.844915 156.836817 
L 72.057237 165.614795 
L 72.163398 167.602839 
L 72.37572 164.330213 
L 72.481881 162.097487 
L 72.588042 162.953875 
L 72.694203 168.367471 
L 72.800364 155.460479 
L 72.906525 164.788992 
L 73.012686 163.993775 
L 73.225008 167.816936 
L 73.331169 165.523039 
L 73.43733 172.4659 
L 73.649652 164.452554 
L 73.861974 172.068291 
L 73.968135 171.487171 
L 74.180457 159.161299 
L 74.286618 169.407371 
L 74.392779 167.72518 
L 74.49894 172.374144 
L 74.605101 169.988491 
L 74.711262 161.332854 
L 74.923584 172.863509 
L 75.029745 162.495095 
L 75.135906 168.703909 
L 75.242067 164.054945 
L 75.348228 169.040347 
L 75.454389 162.219828 
L 75.560551 165.767721 
L 75.666712 165.033674 
L 75.772873 170.019077 
L 75.879034 163.626751 
L 76.197517 176.380817 
L 76.303678 172.863509 
L 76.409839 161.42461 
L 76.622161 172.98585 
L 76.728322 171.395415 
L 76.940644 176.258476 
L 77.046805 176.564329 
L 77.259127 172.618826 
L 77.365288 171.640097 
L 77.471449 169.560297 
L 77.57761 169.835565 
L 77.789932 177.237205 
L 77.896093 164.574895 
L 78.108415 177.604229 
L 78.320737 157.784961 
L 78.426898 174.912723 
L 78.63922 166.318257 
L 78.745381 175.402088 
L 78.851542 171.701268 
L 78.957703 177.848911 
L 79.063864 169.743809 
L 79.276186 177.023108 
L 79.382347 169.254444 
L 79.488508 171.211903 
L 79.594669 179.408761 
L 79.70083 173.597556 
L 79.806991 176.900767 
L 79.913152 166.838207 
L 80.125474 176.503158 
L 80.337796 169.80498 
L 80.443957 178.582958 
L 80.550118 171.915365 
L 80.656279 176.931352 
L 80.76244 174.423358 
L 80.868601 183.384848 
L 80.974762 177.879496 
L 81.080923 178.980567 
L 81.187084 177.512473 
L 81.293245 174.301017 
L 81.399406 182.559045 
L 81.611728 172.741167 
L 81.71789 176.533743 
L 81.824051 186.535133 
L 82.036373 167.664009 
L 82.248695 174.423358 
L 82.354856 166.532354 
L 82.567178 176.013793 
L 82.673339 176.68667 
L 82.885661 178.430031 
L 82.991822 179.041737 
L 83.097983 175.616185 
L 83.204144 176.900767 
L 83.310305 172.618826 
L 83.522627 185.801086 
L 83.734949 173.903409 
L 83.84111 174.270432 
L 83.947271 180.112222 
L 84.053432 178.30769 
L 84.159593 181.94734 
L 84.265754 177.543058 
L 84.371915 185.984598 
L 84.478076 184.027139 
L 84.584237 178.215934 
L 84.690398 185.067039 
L 84.796559 176.472573 
L 84.90272 180.846269 
L 85.008881 178.30769 
L 85.115042 187.483277 
L 85.221203 180.723928 
L 85.327364 192.193412 
L 85.433525 189.960686 
L 85.539686 174.08692 
L 85.645847 181.519146 
L 85.752008 179.806369 
L 85.858169 181.182707 
L 85.96433 175.707941 
L 86.070491 186.16811 
L 86.282813 178.644128 
L 86.388974 186.443377 
L 86.601296 177.604229 
L 86.707457 181.519146 
L 86.813618 180.540416 
L 86.919779 181.457975 
L 87.02594 178.001837 
L 87.132101 182.773143 
L 87.238262 181.48856 
L 87.344423 186.321036 
L 87.450584 174.148091 
L 87.556745 185.005869 
L 87.662906 182.497875 
L 87.769067 184.210651 
L 87.875229 177.390132 
L 87.98139 178.552373 
L 88.087551 178.30769 
L 88.193712 175.402088 
L 88.406034 178.063008 
L 88.512195 182.46729 
L 88.724517 170.661368 
L 88.936839 181.335634 
L 89.149161 181.763828 
L 89.255322 187.422107 
L 89.361483 180.173393 
L 89.573805 184.791772 
L 89.679966 180.785099 
L 89.892288 188.125568 
L 89.998449 181.243878 
L 90.10461 182.406119 
L 90.210771 180.051052 
L 90.316932 185.495233 
L 90.529254 180.571002 
L 90.635415 177.665399 
L 90.847737 187.972642 
L 90.953898 187.911471 
L 91.060059 190.327709 
L 91.272381 185.70933 
L 91.378542 192.682776 
L 91.590864 188.400836 
L 91.697025 187.78913 
L 91.803186 184.271822 
L 92.015508 190.664147 
L 92.121669 191.214682 
L 92.22783 182.681387 
L 92.440152 191.367609 
L 92.546313 188.462006 
L 92.652474 190.90883 
L 92.864796 186.290451 
L 92.970957 189.41015 
L 93.077118 177.848911 
L 93.183279 183.904798 
L 93.28944 181.090952 
L 93.395601 193.141556 
L 93.607923 185.158795 
L 93.714084 194.884917 
L 93.820245 194.181456 
L 94.032568 188.217324 
L 94.138729 190.817074 
L 94.24489 189.532492 
L 94.351051 189.960686 
L 94.457212 194.15087 
L 94.669534 185.464648 
L 94.775695 194.0897 
L 95.094178 186.932742 
L 95.200339 191.979315 
L 95.412661 183.996554 
L 95.624983 194.579064 
L 95.837305 184.332992 
L 96.049627 192.162826 
L 96.155788 193.722676 
L 96.261949 192.468679 
L 96.36811 194.426138 
L 96.580432 186.412792 
L 96.686593 191.826388 
L 96.792754 191.459365 
L 96.898915 191.581706 
L 97.005076 188.125568 
L 97.111237 192.101656 
L 97.217398 188.737274 
L 97.323559 190.90883 
L 97.42972 190.664147 
L 97.535881 193.783847 
L 97.642042 189.318395 
L 97.748203 190.358294 
L 97.854364 195.313111 
L 97.960525 191.948729 
L 98.066686 196.964717 
L 98.172847 192.162826 
L 98.279008 193.967359 
L 98.49133 189.379565 
L 98.597491 190.90883 
L 98.703652 196.383596 
L 98.809813 189.593662 
L 99.022135 193.56975 
L 99.128296 189.960686 
L 99.234457 192.193412 
L 99.340618 191.826388 
L 99.446779 192.346338 
L 99.765262 196.23067 
L 99.977584 187.78913 
L 100.189906 193.172141 
L 100.402229 189.196053 
L 100.50839 196.689449 
L 100.720712 191.153512 
L 100.826873 193.0498 
L 101.145356 185.525819 
L 101.251517 189.654833 
L 101.357678 186.871571 
L 101.463839 193.56975 
L 101.57 191.214682 
L 101.676161 192.621606 
L 101.782322 190.45005 
L 101.888483 195.037844 
L 101.994644 194.548479 
L 102.100805 187.177424 
L 102.419288 195.435452 
L 102.525449 189.043127 
L 102.737771 194.67082 
L 102.843932 200.604366 
L 103.056254 193.416823 
L 103.162415 190.90883 
L 103.268576 194.15087 
L 103.374737 193.753262 
L 103.480898 198.279884 
L 103.587059 192.162826 
L 103.69322 196.016573 
L 103.799381 193.294482 
L 104.011703 197.515252 
L 104.117864 199.044517 
L 104.224025 194.181456 
L 104.330186 204.611039 
L 104.542508 193.753262 
L 104.648669 197.729349 
L 104.75483 196.077744 
L 104.860991 198.555152 
L 104.967152 191.581706 
L 105.073313 195.496623 
L 105.285635 185.495233 
L 105.391796 200.298514 
L 105.497957 197.821105 
L 105.604118 187.330351 
L 105.710279 196.689449 
L 105.81644 193.600335 
L 105.922601 197.637593 
L 106.028762 196.353011 
L 106.134923 190.45005 
L 106.241084 195.404867 
L 106.347245 194.731991 
L 106.453407 190.297124 
L 106.665729 199.044517 
L 106.77189 196.872961 
L 106.878051 189.196053 
L 106.984212 192.835703 
L 107.090373 191.092341 
L 107.196534 195.404867 
L 107.408856 191.245268 
L 107.621178 198.585737 
L 107.8335 193.845017 
L 107.939661 201.307828 
L 108.045822 189.41015 
L 108.364305 200.97139 
L 108.576627 192.743947 
L 108.682788 192.774532 
L 108.788949 196.016573 
L 109.001271 194.181456 
L 109.107432 196.75062 
L 109.319754 194.364967 
L 109.532076 199.35037 
L 109.638237 198.89159 
L 109.744398 203.295872 
L 109.95672 199.564467 
L 110.062881 203.173531 
L 110.381364 197.759934 
L 110.699847 204.274601 
L 110.912169 197.943446 
L 111.01833 199.900905 
L 111.124491 197.668179 
L 111.230652 201.216072 
L 111.336813 199.564467 
L 111.442974 205.528598 
L 111.549135 201.001975 
L 111.655296 204.15226 
L 111.867618 192.958044 
L 112.07994 200.97139 
L 112.186101 197.056473 
L 112.398423 202.317143 
L 112.504584 201.980704 
L 112.610746 199.900905 
L 112.716907 201.185487 
L 112.929229 207.088448 
L 113.247712 201.827778 
L 113.353873 203.234701 
L 113.460034 202.439484 
L 113.566195 196.995302 
L 113.672356 206.23206 
L 113.778517 201.338413 
L 113.884678 201.399584 
L 113.990839 203.815822 
L 114.097 200.053831 
L 114.309322 206.109719 
L 114.415483 203.968748 
L 114.521644 207.975421 
L 114.627805 206.262645 
L 114.840127 197.239985 
L 114.946288 199.380955 
L 115.052449 198.157543 
L 115.15861 202.500654 
L 115.264771 199.105687 
L 115.477093 206.568498 
L 115.689415 203.57114 
L 115.795576 202.103046 
L 115.901737 205.161575 
L 116.007898 201.124316 
L 116.114059 202.103046 
L 116.22022 201.216072 
L 116.326381 205.283916 
L 116.432542 204.488698 
L 116.644864 205.008648 
L 116.857186 191.214682 
L 116.963347 202.898263 
L 117.069508 202.133631 
L 117.175669 203.907578 
L 117.28183 195.588379 
L 117.494152 204.121675 
L 117.600313 195.741305 
L 117.706474 201.185487 
L 117.812635 200.910219 
L 117.918796 204.886307 
L 118.131118 202.714751 
L 118.237279 205.039233 
L 118.34344 202.225387 
L 118.449601 205.559183 
L 118.555762 201.124316 
L 118.661923 191.48995 
L 118.874246 205.467427 
L 119.086568 200.45144 
L 119.192729 204.458113 
L 119.405051 200.237343 
L 119.511212 201.858363 
L 119.617373 194.487308 
L 119.723534 197.209399 
L 119.829695 206.170889 
L 119.935856 200.604366 
L 120.148178 203.479384 
L 120.254339 201.185487 
L 120.466661 203.448798 
L 120.572822 197.239985 
L 120.678983 199.105687 
L 120.785144 205.314501 
L 120.997466 197.882276 
L 121.315949 203.754651 
L 121.42211 203.357042 
L 121.528271 197.79052 
L 121.846754 206.568498 
L 122.059076 202.470069 
L 122.271398 206.537913 
L 122.377559 205.895622 
L 122.589881 203.204116 
L 122.696042 205.19216 
L 122.802203 201.613681 
L 122.908364 202.408898 
L 123.014525 205.314501 
L 123.120686 201.950119 
L 123.226847 206.537913 
L 123.333008 206.140304 
L 123.439169 200.757293 
L 123.54533 208.709468 
L 123.757652 202.684166 
L 123.863813 205.742695 
L 123.969974 205.375672 
L 124.076135 207.486057 
L 124.182296 200.512611 
L 124.394618 204.886307 
L 124.500779 202.806507 
L 124.60694 206.874351 
L 124.819262 202.286557 
L 125.031585 203.234701 
L 125.137746 207.700154 
L 125.350068 200.573781 
L 125.456229 205.314501 
L 125.56239 205.130989 
L 125.668551 197.698764 
L 125.880873 202.959434 
L 126.199356 206.384986 
L 126.305517 205.222745 
L 126.411678 202.684166 
L 126.517839 205.069819 
L 126.730161 201.063146 
L 126.942483 204.519283 
L 127.154805 199.870319 
L 127.260966 202.164216 
L 127.473288 199.472711 
L 127.791771 204.182845 
L 128.004093 203.754651 
L 128.110254 206.507327 
L 128.216415 199.595052 
L 128.322576 205.345086 
L 128.428737 205.130989 
L 128.534898 201.338413 
L 128.74722 207.577812 
L 128.853381 205.161575 
L 128.959542 207.730739 
L 129.065703 203.509969 
L 129.171864 207.730739 
L 129.278025 205.528598 
L 129.384186 211.798582 
L 129.490347 211.615071 
L 129.702669 205.467427 
L 129.80883 204.825136 
L 130.021152 209.168248 
L 130.127313 208.006007 
L 130.233474 208.801224 
L 130.339635 206.996692 
L 130.445796 201.766607 
L 130.658118 209.596442 
L 130.764279 205.834451 
L 130.87044 207.608398 
L 130.976601 206.140304 
L 131.082763 207.822495 
L 131.295085 206.017963 
L 131.401246 206.721424 
L 131.507407 209.4741 
L 131.613568 206.935521 
L 131.719729 198.555152 
L 131.82589 208.495371 
L 131.932051 206.29323 
L 132.144373 210.208147 
L 132.250534 205.069819 
L 132.356695 210.391659 
L 132.462856 209.290589 
L 132.569017 205.130989 
L 132.781339 212.349118 
L 132.993661 207.394301 
L 133.099822 211.186877 
L 133.312144 209.045906 
L 133.418305 208.036592 
L 133.524466 210.361074 
L 133.736788 206.323816 
L 133.842949 207.730739 
L 133.94911 207.180204 
L 134.055271 210.514 
L 134.161432 210.299903 
L 134.373754 203.63231 
L 134.479915 204.825136 
L 134.586076 205.345086 
L 134.692237 205.283916 
L 134.798398 209.015321 
L 134.904559 206.170889 
L 135.01072 208.740053 
L 135.116881 204.825136 
L 135.223042 207.119033 
L 135.329203 206.75201 
L 135.435364 208.311859 
L 135.541525 207.547227 
L 135.753847 210.361074 
L 135.966169 207.057863 
L 136.07233 211.431559 
L 136.284652 209.565856 
L 136.390813 212.226776 
L 136.496974 207.791909 
L 136.603135 210.881024 
L 136.815457 206.690839 
L 136.921618 210.45283 
L 137.13394 209.4741 
L 137.240102 206.323816 
L 137.346263 213.817212 
L 137.452424 205.467427 
L 137.558585 208.311859 
L 137.664746 206.874351 
L 137.770907 208.220104 
L 137.877068 212.104435 
L 137.983229 194.456723 
L 138.195551 208.067177 
L 138.301712 207.119033 
L 138.407873 212.226776 
L 138.514034 206.996692 
L 138.620195 209.596442 
L 138.726356 209.229418 
L 138.832517 207.975421 
L 139.151 209.137662 
L 139.257161 207.119033 
L 139.363322 210.942194 
L 139.575644 208.067177 
L 139.681805 208.220104 
L 139.894127 210.422244 
L 140.000288 210.238733 
L 140.21261 205.161575 
L 140.531093 212.807897 
L 140.637254 209.382345 
L 140.743415 212.930238 
L 140.849576 212.746726 
L 141.061898 206.507327 
L 141.168059 207.27196 
L 141.27422 206.782595 
L 141.380381 209.688197 
L 141.486542 208.617712 
L 141.592703 210.728097 
L 141.698864 208.984736 
L 141.911186 201.03256 
L 142.017347 202.225387 
L 142.123508 209.657612 
L 142.229669 207.761324 
L 142.441991 211.890338 
L 142.548152 211.859753 
L 142.760474 202.775922 
L 142.866635 203.234701 
L 142.972796 209.749368 
L 143.078957 207.394301 
L 143.291279 212.685556 
L 143.503602 200.206758 
L 143.822085 208.403615 
L 143.928246 206.599083 
L 144.034407 207.149618 
L 144.140568 208.740053 
L 144.246729 199.166858 
L 144.459051 205.069819 
L 144.565212 202.684166 
L 144.671373 210.789268 
L 144.777534 208.006007 
L 144.883695 201.644266 
L 145.096017 210.269318 
L 145.4145 206.384986 
L 145.732983 211.829168 
L 145.945305 210.177562 
L 146.051466 210.697512 
L 146.263788 203.234701 
L 146.47611 214.15365 
L 146.688432 209.443515 
L 146.794593 209.565856 
L 146.900754 211.064535 
L 147.006915 205.100404 
L 147.113076 205.283916 
L 147.219237 207.486057 
L 147.325398 204.978063 
L 147.431559 207.85308 
L 147.53772 207.394301 
L 147.750042 207.455471 
L 147.856203 210.636341 
L 147.962364 207.608398 
L 148.068525 209.168248 
L 148.174686 208.281274 
L 148.280847 209.4741 
L 148.387008 204.67221 
L 148.493169 205.620354 
L 148.59933 204.978063 
L 148.705491 208.464786 
L 148.811652 207.057863 
L 148.917813 209.718783 
L 149.023974 208.984736 
L 149.130135 206.996692 
L 149.236296 207.700154 
L 149.342457 209.504686 
L 149.448618 207.363715 
L 149.55478 208.220104 
L 149.660941 205.039233 
L 149.767102 213.450188 
L 149.873263 209.657612 
L 150.085585 210.728097 
L 150.191746 208.495371 
L 150.510229 213.297262 
L 150.61639 213.419603 
L 150.722551 207.944836 
L 150.828712 211.645656 
L 150.934873 206.446157 
L 151.041034 206.507327 
L 151.147195 207.761324 
L 151.253356 203.509969 
L 151.359517 206.109719 
L 151.465678 205.406257 
L 151.571839 209.657612 
L 151.890322 202.806507 
L 152.208805 211.370388 
L 152.314966 208.525956 
L 152.421127 208.831809 
L 152.527288 208.464786 
L 152.633449 210.024636 
L 152.845771 206.629668 
L 152.951932 204.060504 
L 153.164254 208.067177 
L 153.270415 206.966107 
L 153.482737 201.521925 
L 153.695059 207.119033 
L 153.80122 203.204116 
L 154.119703 208.556542 
L 154.225864 207.027277 
L 154.438186 210.758683 
L 154.544347 206.935521 
L 154.650508 208.311859 
L 154.756669 206.507327 
L 154.968991 209.015321 
L 155.075152 206.109719 
L 155.287474 209.99405 
L 155.393635 207.791909 
L 155.499796 208.006007 
L 155.605957 210.758683 
L 155.81828 203.815822 
L 156.136763 210.024636 
L 156.242924 199.809149 
L 156.349085 206.29323 
L 156.455246 206.109719 
L 156.667568 208.89298 
L 156.87989 205.834451 
L 156.986051 209.565856 
L 157.092212 204.488698 
L 157.304534 208.342445 
L 157.410695 207.516642 
L 157.729178 214.306576 
L 158.047661 201.797193 
L 158.259983 207.149618 
L 158.366144 207.700154 
L 158.472305 211.003365 
L 158.578466 208.587127 
L 158.684627 208.770639 
L 158.790788 207.85308 
L 158.896949 210.942194 
L 159.00311 209.99405 
L 159.109271 211.003365 
L 159.321593 207.149618 
L 159.533915 210.330489 
L 159.746237 212.654971 
L 159.852398 212.624385 
L 159.958559 209.351759 
L 160.06472 212.410288 
L 160.170881 209.688197 
L 160.383203 212.960823 
L 160.489364 212.349118 
L 160.701686 209.443515 
L 160.914008 212.838482 
L 161.020169 213.358432 
L 161.232491 210.789268 
L 161.338652 213.756041 
L 161.444813 212.746726 
L 161.550974 209.41293 
L 161.657135 209.902294 
L 161.975619 209.229418 
L 162.08178 208.158933 
L 162.187941 210.636341 
L 162.294102 209.627027 
L 162.400263 205.650939 
L 162.506424 210.881024 
L 162.612585 209.229418 
L 162.718746 209.627027 
L 162.824907 213.083165 
L 162.931068 211.125706 
L 163.14339 215.101794 
L 163.461873 210.269318 
L 163.674195 211.5539 
L 163.780356 214.367747 
L 163.992678 212.930238 
L 164.098839 212.899653 
L 164.205 210.605756 
L 164.311161 215.224135 
L 164.629644 209.137662 
L 164.948127 213.266676 
L 165.054288 212.807897 
L 165.160449 216.233449 
L 165.26661 211.156291 
L 165.372771 214.092479 
L 165.478932 212.716141 
L 165.585093 209.779953 
L 165.691254 210.483415 
L 165.903576 214.857111 
L 166.009737 211.829168 
L 166.115898 214.245406 
L 166.32822 205.987377 
L 166.434381 209.871709 
L 166.540542 204.060504 
L 166.752864 211.951509 
L 166.859025 212.838482 
L 167.071347 207.547227 
L 167.177508 206.721424 
L 167.283669 214.21482 
L 167.708313 202.837093 
L 167.814474 208.709468 
L 167.920635 205.926207 
L 168.026797 207.27196 
L 168.132958 206.935521 
L 168.239119 208.158933 
L 168.451441 205.008648 
L 168.557602 210.728097 
L 168.663763 207.394301 
L 168.982246 211.248047 
L 169.088407 209.382345 
L 169.194568 212.104435 
L 169.300729 211.798582 
L 169.40689 212.196191 
L 169.619212 204.702795 
L 169.725373 209.290589 
L 169.831534 203.173531 
L 169.937695 210.850438 
L 170.150017 204.763966 
L 170.362339 210.146977 
L 170.574661 212.930238 
L 170.680822 210.514 
L 170.786983 214.979453 
L 170.999305 206.384986 
L 171.105466 210.758683 
L 171.211627 210.45283 
L 171.53011 206.23206 
L 171.742432 209.4741 
L 171.848593 209.076492 
L 171.954754 211.706827 
L 172.060915 210.605756 
L 172.167076 212.930238 
L 172.273237 211.156291 
L 172.379398 207.027277 
L 172.485559 209.382345 
L 172.59172 207.516642 
L 172.697881 211.064535 
L 172.910203 208.770639 
L 173.016364 208.648298 
L 173.122525 205.498013 
L 173.441008 212.07385 
L 173.547169 209.107077 
L 173.865652 211.248047 
L 173.971813 207.577812 
L 174.077974 213.144335 
L 174.290297 210.055221 
L 174.502619 212.043265 
L 174.60878 208.495371 
L 174.714941 213.756041 
L 174.821102 210.238733 
L 175.033424 215.407647 
L 175.139585 213.327847 
L 175.245746 213.603115 
L 175.351907 216.936911 
L 175.458068 212.777312 
L 175.776551 214.031309 
L 175.882712 209.565856 
L 176.201195 214.367747 
L 176.307356 213.756041 
L 176.413517 214.795941 
L 176.519678 212.960823 
L 176.625839 213.664285 
L 176.838161 207.057863 
L 176.944322 208.006007 
L 177.050483 207.057863 
L 177.156644 210.758683 
L 177.262805 209.443515 
L 177.368966 206.599083 
L 177.687449 212.991409 
L 177.79361 210.789268 
L 177.899771 211.156291 
L 178.005932 208.556542 
L 178.218254 214.490088 
L 178.324415 214.367747 
L 178.430576 212.410288 
L 178.536737 207.914251 
L 178.642898 208.525956 
L 178.749059 211.003365 
L 178.961381 208.617712 
L 179.173703 213.17492 
L 179.279864 213.144335 
L 179.492186 214.581844 
L 179.598347 210.819853 
L 179.704508 211.278633 
L 179.810669 214.643014 
L 180.235313 212.135021 
L 180.447636 214.795941 
L 180.553797 213.052579 
L 180.659958 215.499402 
L 180.766119 211.706827 
L 180.87228 213.327847 
L 180.978441 212.318532 
L 181.084602 214.123064 
L 181.190763 214.061894 
L 181.403085 200.206758 
L 181.615407 211.064535 
L 181.721568 205.926207 
L 181.93389 211.890338 
L 182.146212 208.403615 
L 182.252373 211.03395 
L 182.464695 198.341055 
L 182.677017 208.556542 
L 182.783178 208.831809 
L 182.9955 212.257362 
L 183.101661 206.904936 
L 183.207822 210.575171 
L 183.313983 210.45283 
L 183.420144 211.278633 
L 183.526305 214.21482 
L 183.738627 211.920924 
L 183.844788 212.960823 
L 183.950949 210.085806 
L 184.05711 210.575171 
L 184.163271 212.287947 
L 184.269432 209.290589 
L 184.375593 212.654971 
L 184.481754 212.5938 
L 184.587915 212.624385 
L 184.694076 213.389017 
L 184.906398 211.400974 
L 185.012559 215.468817 
L 185.11872 215.315891 
L 185.224881 212.716141 
L 185.331042 213.6337 
L 185.543364 212.746726 
L 185.649525 213.817212 
L 185.861847 204.978063 
L 185.968008 202.59241 
L 186.18033 210.45283 
L 186.392652 205.589769 
L 186.498813 212.440874 
L 186.711136 209.4741 
L 186.817297 211.5539 
L 186.923458 211.064535 
L 187.029619 208.862395 
L 187.13578 213.450188 
L 187.241941 212.654971 
L 187.348102 208.984736 
L 187.454263 214.551259 
L 187.560424 214.337161 
L 187.666585 208.464786 
L 187.878907 215.682914 
L 188.091229 209.749368 
L 188.19739 214.184235 
L 188.303551 213.970138 
L 188.409712 212.807897 
L 188.622034 215.132379 
L 188.728195 212.685556 
L 188.940517 216.080523 
L 189.152839 208.281274 
L 189.471322 212.777312 
L 189.577483 206.23206 
L 189.683644 212.196191 
L 189.789805 207.914251 
L 189.895966 211.003365 
L 190.002127 207.822495 
L 190.108288 208.189518 
L 190.426771 212.869068 
L 190.532932 210.544586 
L 190.639093 211.278633 
L 190.745254 213.847797 
L 190.957576 210.942194 
L 191.063737 205.803866 
L 191.169898 211.370388 
L 191.38222 209.504686 
L 191.488381 211.523315 
L 191.594542 211.400974 
L 191.700703 212.471459 
L 191.806864 206.384986 
L 191.913025 208.006007 
L 192.019186 202.745337 
L 192.231508 208.89298 
L 192.337669 204.305186 
L 192.549991 211.03395 
L 192.762314 208.495371 
L 192.868475 211.737412 
L 192.974636 210.789268 
L 193.080797 206.29323 
L 193.186958 206.660254 
L 193.293119 210.299903 
L 193.505441 209.260003 
L 193.611602 201.03256 
L 193.823924 209.321174 
L 193.930085 208.189518 
L 194.036246 205.681524 
L 194.248568 210.116391 
L 194.354729 210.881024 
L 194.46089 210.391659 
L 194.567051 210.697512 
L 194.673212 204.794551 
L 194.779373 206.996692 
L 194.885534 206.721424 
L 195.097856 210.45283 
L 195.204017 213.144335 
L 195.5225 204.091089 
L 195.628661 205.742695 
L 195.734822 200.023246 
L 196.053305 211.339803 
L 196.159466 209.596442 
L 196.371788 212.287947 
L 196.58411 209.076492 
L 196.690271 210.942194 
L 196.796432 205.467427 
L 196.902593 210.911609 
L 197.114915 206.874351 
L 197.221076 209.902294 
L 197.327237 209.198833 
L 197.433398 214.000723 
L 197.751881 206.201474 
L 197.858042 206.323816 
L 197.964203 211.156291 
L 198.070364 208.434201 
L 198.176525 202.408898 
L 198.388847 213.11375 
L 198.495008 209.443515 
L 198.601169 210.422244 
L 198.813491 206.354401 
L 198.919653 210.483415 
L 199.025814 209.443515 
L 199.238136 213.878382 
L 199.344297 209.015321 
L 199.450458 211.982094 
L 199.556619 205.895622 
L 199.768941 213.817212 
L 199.875102 212.654971 
L 199.981263 212.440874 
L 200.087424 210.146977 
L 200.193585 210.514 
L 200.299746 211.615071 
L 200.405907 208.801224 
L 200.512068 210.850438 
L 200.618229 209.93288 
L 200.830551 205.039233 
L 200.936712 211.217462 
L 201.042873 206.782595 
L 201.255195 212.624385 
L 201.361356 207.057863 
L 201.573678 211.309218 
L 201.679839 211.829168 
L 201.786 210.97278 
L 201.892161 212.07385 
L 201.998322 211.400974 
L 202.104483 209.229418 
L 202.316805 209.443515 
L 202.422966 211.5539 
L 202.529127 208.434201 
L 202.741449 213.297262 
L 202.84761 208.097762 
L 202.953771 211.798582 
L 203.059932 209.99405 
L 203.272254 212.899653 
L 203.378415 210.208147 
L 203.590737 212.226776 
L 203.696898 212.318532 
L 203.803059 210.881024 
L 204.121542 215.958182 
L 204.333864 213.480773 
L 204.652347 209.41293 
L 204.758508 212.624385 
L 204.864669 210.881024 
L 204.97083 215.010038 
L 205.076992 214.765356 
L 205.183153 215.835841 
L 205.289314 213.541944 
L 205.501636 216.141694 
L 205.713958 212.746726 
L 205.820119 214.459503 
L 206.032441 213.266676 
L 206.138602 215.101794 
L 206.350924 213.6337 
L 206.457085 213.725456 
L 206.563246 212.165606 
L 206.669407 212.746726 
L 206.775568 215.652329 
L 206.881729 215.621744 
L 206.98789 213.358432 
L 207.094051 214.15365 
L 207.200212 213.725456 
L 207.306373 214.612429 
L 207.412534 214.490088 
L 207.518695 214.643014 
L 207.731017 208.984736 
L 207.837178 209.841124 
L 207.943339 208.923565 
L 208.0495 213.480773 
L 208.155661 212.012679 
L 208.474144 215.621744 
L 208.686466 213.817212 
L 208.898788 212.043265 
L 209.004949 208.342445 
L 209.11111 211.737412 
L 209.217271 211.248047 
L 209.323432 208.097762 
L 209.429593 213.878382 
L 209.535754 209.015321 
L 209.748076 215.682914 
L 209.854237 214.275991 
L 209.960398 215.835841 
L 210.066559 214.459503 
L 210.17272 216.355791 
L 210.278881 213.17492 
L 210.385042 217.028667 
L 210.491203 216.569888 
L 210.597364 217.120423 
L 210.809686 215.897011 
L 210.915847 216.386376 
L 211.022008 214.73477 
L 211.128169 215.132379 
L 211.234331 212.471459 
L 211.340492 212.654971 
L 211.552814 215.744085 
L 211.765136 218.986126 
L 211.871297 217.181593 
L 212.083619 217.242764 
L 212.508263 219.047296 
L 212.614424 217.39569 
L 212.720585 217.456861 
L 212.826746 217.059252 
L 213.25139 219.383734 
L 213.357551 219.047296 
L 213.463712 220.576561 
L 213.569873 218.037982 
L 213.676034 219.383734 
L 213.782195 218.129737 
L 213.888356 219.444905 
L 214.100678 217.976811 
L 214.313 218.037982 
L 214.525322 218.710858 
L 214.631483 218.588517 
L 214.737644 217.303935 
L 214.949966 220.576561 
L 215.056127 220.331878 
L 215.162288 216.631058 
L 215.268449 217.089838 
L 215.480771 219.567246 
L 215.586932 219.934269 
L 215.799254 219.230808 
L 215.905415 217.732129 
L 216.117737 220.026025 
L 216.223898 217.609787 
L 216.43622 218.741443 
L 216.542381 219.169637 
L 216.648542 218.924955 
L 216.754703 218.190908 
L 216.860864 218.95554 
L 217.073186 215.682914 
L 217.285508 218.924955 
L 217.39167 220.148367 
L 217.497831 218.89437 
L 217.603992 219.41432 
L 217.710153 217.151008 
L 217.816314 218.313249 
L 217.922475 215.438232 
L 218.028636 219.047296 
L 218.134797 218.37442 
L 218.240958 219.964855 
L 218.347119 217.823884 
L 218.45328 218.099152 
L 218.559441 216.569888 
L 218.665602 219.506075 
L 218.771763 217.212179 
L 218.877924 218.099152 
L 219.090246 207.944836 
L 219.302568 216.722814 
L 219.408729 217.548617 
L 219.51489 216.753399 
L 219.621051 219.108467 
L 219.727212 214.887697 
L 219.833373 216.722814 
L 219.939534 213.725456 
L 220.151856 217.640373 
L 220.258017 217.823884 
L 220.364178 218.466176 
L 220.5765 212.807897 
L 220.788822 217.273349 
L 220.894983 216.783985 
L 221.001144 217.91564 
L 221.107305 215.866426 
L 221.213466 217.976811 
L 221.319627 217.120423 
L 221.531949 211.951509 
L 221.63811 215.224135 
L 221.744271 208.006007 
L 222.062754 215.499402 
L 222.168915 215.77467 
L 222.275076 217.242764 
L 222.381237 216.049938 
L 222.487398 216.233449 
L 222.593559 218.007396 
L 222.69972 216.631058 
L 222.805881 217.701543 
L 222.912042 217.181593 
L 223.018203 215.101794 
L 223.124364 217.640373 
L 223.336686 212.869068 
L 223.442847 213.052579 
L 223.549009 213.480773 
L 223.65517 215.407647 
L 223.761331 214.275991 
L 223.973653 217.028667 
L 224.079814 214.887697 
L 224.185975 216.386376 
L 224.292136 216.29462 
L 224.398297 214.000723 
L 224.610619 218.924955 
L 224.822941 216.325205 
L 225.035263 215.285305 
L 225.141424 215.010038 
L 225.247585 211.125706 
L 225.459907 213.786626 
L 225.672229 204.611039 
L 225.884551 212.838482 
L 225.990712 211.431559 
L 226.096873 211.829168 
L 226.203034 208.740053 
L 226.309195 212.838482 
L 226.521517 208.067177 
L 226.627678 211.064535 
L 226.733839 208.281274 
L 226.84 213.266676 
L 226.946161 210.911609 
L 227.158483 213.847797 
L 227.264644 212.318532 
L 227.370805 214.123064 
L 227.476966 213.725456 
L 227.583127 212.287947 
L 227.689288 212.807897 
L 227.795449 214.123064 
L 227.90161 203.846407 
L 228.113932 211.309218 
L 228.220093 208.495371 
L 228.432415 212.563215 
L 228.750898 204.182845 
L 228.857059 210.666927 
L 228.96322 210.055221 
L 229.069381 213.786626 
L 229.281703 207.791909 
L 229.387864 212.135021 
L 229.494025 201.858363 
L 229.600186 209.321174 
L 229.91867 204.763966 
L 230.343314 214.643014 
L 230.555636 209.902294 
L 230.767958 212.287947 
L 230.98028 209.565856 
L 231.404924 212.471459 
L 231.511085 211.798582 
L 231.617246 212.226776 
L 231.723407 209.107077 
L 231.829568 212.899653 
L 231.935729 205.100404 
L 232.148051 210.483415 
L 232.360373 211.309218 
L 232.466534 208.740053 
L 232.572695 213.450188 
L 232.678856 210.728097 
L 232.785017 211.676241 
L 232.891178 210.177562 
L 232.997339 212.196191 
L 233.1035 208.342445 
L 233.421983 213.083165 
L 233.528144 213.205506 
L 233.634305 214.918282 
L 233.740466 213.541944 
L 233.846627 213.6337 
L 233.952788 217.548617 
L 234.16511 214.6736 
L 234.271271 214.948867 
L 234.377432 214.275991 
L 234.483593 215.77467 
L 234.695915 207.486057 
L 234.802076 205.650939 
L 235.014398 211.584485 
L 235.120559 209.4741 
L 235.22672 213.725456 
L 235.439042 209.504686 
L 235.545203 213.541944 
L 235.651364 213.266676 
L 235.757525 210.024636 
L 235.863687 215.7135 
L 235.969848 215.010038 
L 236.076009 218.588517 
L 236.288331 216.264035 
L 236.394492 216.049938 
L 236.500653 212.5938 
L 236.606814 213.052579 
L 236.712975 212.960823 
L 236.925297 216.875741 
L 237.137619 210.269318 
L 237.24378 213.664285 
L 237.349941 212.5938 
L 237.456102 216.111108 
L 237.668424 215.407647 
L 237.774585 213.297262 
L 237.986907 219.261393 
L 238.093068 214.459503 
L 238.30539 216.783985 
L 238.517712 215.285305 
L 238.623873 210.911609 
L 238.836195 216.753399 
L 238.942356 216.631058 
L 239.154678 218.924955 
L 239.260839 218.129737 
L 239.367 218.833199 
L 239.473161 216.783985 
L 239.791644 219.047296 
L 240.003966 218.099152 
L 240.110127 216.845155 
L 240.216288 218.37442 
L 240.322449 216.722814 
L 240.42861 217.426276 
L 240.534771 219.628417 
L 240.640932 216.936911 
L 240.747093 218.496761 
L 240.853254 215.988767 
L 240.959415 216.019352 
L 241.065576 218.710858 
L 241.277898 215.346476 
L 241.49022 218.068567 
L 241.702542 215.927597 
L 241.808703 218.496761 
L 241.914864 218.190908 
L 242.021026 218.343834 
L 242.339509 219.230808 
L 242.44567 215.744085 
L 242.551831 218.89437 
L 242.657992 217.732129 
L 242.870314 219.200223 
L 242.976475 217.762714 
L 243.294958 220.454219 
L 243.401119 220.270708 
L 243.613441 215.591158 
L 244.038085 220.668316 
L 244.144246 218.282664 
L 244.356568 219.41432 
L 244.56889 217.885055 
L 244.781212 219.353149 
L 244.887373 219.047296 
L 244.993534 219.322564 
L 245.099695 216.447546 
L 245.205856 218.496761 
L 245.312017 217.885055 
L 245.418178 213.419603 
L 245.6305 216.81457 
L 245.736661 215.162964 
L 245.842822 219.139052 
L 246.055144 211.03395 
L 246.161305 209.41293 
L 246.267466 214.581844 
L 246.373627 214.490088 
L 246.479788 212.838482 
L 246.585949 214.367747 
L 246.798271 205.283916 
L 247.010593 214.6736 
L 247.116754 216.29462 
L 247.222915 211.920924 
L 247.329076 213.389017 
L 247.541398 211.186877 
L 247.75372 214.765356 
L 247.859881 215.315891 
L 247.966042 218.89437 
L 248.072203 213.17492 
L 248.178365 213.878382 
L 248.390687 212.410288 
L 248.496848 212.440874 
L 248.603009 210.605756 
L 248.70917 212.226776 
L 248.815331 216.661643 
L 248.921492 213.511359 
L 249.027653 215.315891 
L 249.133814 212.135021 
L 249.239975 216.325205 
L 249.346136 215.407647 
L 249.452297 216.631058 
L 249.77078 213.664285 
L 249.876941 216.447546 
L 250.089263 213.541944 
L 250.195424 214.520673 
L 250.301585 209.443515 
L 250.620068 217.456861 
L 250.726229 214.704185 
L 250.83239 218.680273 
L 251.044712 213.603115 
L 251.150873 214.000723 
L 251.257034 216.967496 
L 251.363195 212.012679 
L 251.575517 216.81457 
L 251.894 212.869068 
L 252.000161 214.826526 
L 252.106322 213.572529 
L 252.318644 214.918282 
L 252.424805 214.000723 
L 252.637127 209.779953 
L 252.743288 208.434201 
L 252.849449 210.085806 
L 252.95561 214.367747 
L 253.061771 213.664285 
L 253.167932 216.600473 
L 253.380254 209.290589 
L 253.486415 211.737412 
L 253.592576 211.125706 
L 253.698737 209.076492 
L 253.804898 210.881024 
L 253.911059 204.029919 
L 254.123381 213.419603 
L 254.335703 210.391659 
L 254.441865 214.245406 
L 254.548026 211.737412 
L 254.760348 217.303935 
L 254.866509 215.010038 
L 254.97267 215.958182 
L 255.184992 210.514 
L 255.291153 210.024636 
L 255.503475 214.551259 
L 255.609636 214.979453 
L 255.715797 210.97278 
L 255.821958 211.951509 
L 256.03428 215.744085 
L 256.140441 212.379703 
L 256.246602 214.826526 
L 256.458924 212.471459 
L 256.671246 216.447546 
L 256.883568 207.883665 
L 257.09589 214.092479 
L 257.308212 211.156291 
L 257.414373 211.829168 
L 257.520534 211.064535 
L 257.732856 214.21482 
L 257.839017 212.410288 
L 257.945178 214.15365 
L 258.051339 210.330489 
L 258.1575 214.21482 
L 258.263661 211.584485 
L 258.475983 214.704185 
L 258.582144 201.705437 
L 258.794466 212.379703 
L 259.006788 207.883665 
L 259.21911 212.196191 
L 259.431432 209.504686 
L 259.537593 213.389017 
L 259.643754 210.789268 
L 259.749915 211.095121 
L 259.856076 212.5938 
L 259.962237 208.709468 
L 260.068398 209.596442 
L 260.174559 214.123064 
L 260.28072 210.881024 
L 260.493042 215.25472 
L 260.599204 212.440874 
L 260.705365 213.052579 
L 260.811526 208.006007 
L 260.917687 213.266676 
L 261.023848 212.716141 
L 261.23617 214.857111 
L 261.342331 210.911609 
L 261.554653 215.591158 
L 261.660814 215.805255 
L 261.766975 216.81457 
L 261.979297 210.819853 
L 262.191619 216.416961 
L 262.403941 218.282664 
L 262.616263 219.139052 
L 262.828585 218.007396 
L 262.934746 219.444905 
L 263.147068 217.85447 
L 263.253229 220.576561 
L 263.35939 219.291978 
L 263.465551 219.47549 
L 263.571712 221.738802 
L 263.677873 221.494119 
L 263.784034 220.51539 
L 263.996356 220.821243 
L 264.102517 220.178952 
L 264.208678 220.240122 
L 264.314839 221.830557 
L 264.421 221.157681 
L 264.739483 222.472849 
L 264.845644 220.148367 
L 264.951805 221.09651 
L 265.057966 220.821243 
L 265.270288 221.647046 
L 265.376449 220.882413 
L 265.48261 222.014069 
L 265.588771 220.698902 
L 265.801093 222.534019 
L 265.907254 221.280022 
L 266.119576 221.647046 
L 266.225737 221.708216 
L 266.331898 221.922313 
L 266.438059 221.769387 
L 266.54422 222.686946 
L 266.650381 221.647046 
L 266.756543 221.922313 
L 266.968865 223.63509 
L 267.287348 222.014069 
L 267.49967 223.268066 
L 267.605831 223.512748 
L 267.711992 220.882413 
L 267.818153 222.901043 
L 267.924314 221.524705 
L 268.136636 223.451578 
L 268.242797 223.298651 
L 268.455119 223.879772 
L 268.56128 222.778701 
L 268.773602 223.573919 
L 268.879763 223.206895 
L 268.985924 224.307966 
L 269.092085 222.717531 
L 269.198246 223.053969 
L 269.304407 222.472849 
L 269.516729 224.797331 
L 269.62289 223.053969 
L 269.941373 224.307966 
L 270.047534 222.931628 
L 270.153695 223.971528 
L 270.259856 222.442263 
L 270.6845 224.980842 
L 270.896822 223.482163 
L 271.002983 224.460892 
L 271.215305 222.809287 
L 271.321466 224.705575 
L 271.427627 223.940942 
L 271.533788 224.827916 
L 271.74611 223.849187 
L 271.958432 224.919672 
L 272.064593 224.644404 
L 272.170754 225.347866 
L 272.276915 224.583234 
L 272.383076 225.072598 
L 272.489237 224.399722 
L 272.595398 224.980842 
L 272.701559 224.613819 
L 272.80772 224.950257 
L 272.913882 224.063284 
L 273.020043 224.277381 
L 273.126204 225.77606 
L 273.338526 224.032698 
L 273.444687 224.583234 
L 273.550848 223.788016 
L 273.76317 225.042013 
L 273.869331 223.940942 
L 273.975492 225.194939 
L 274.081653 224.950257 
L 274.187814 225.653719 
L 274.293975 224.155039 
L 274.400136 225.194939 
L 274.506297 224.766745 
L 274.612458 225.347866 
L 274.718619 223.971528 
L 274.930941 226.29601 
L 275.037102 224.063284 
L 275.143263 225.042013 
L 275.249424 224.644404 
L 275.355585 225.133769 
L 275.461746 224.766745 
L 275.567907 225.164354 
L 275.674068 225.133769 
L 275.992551 225.592548 
L 276.098712 225.623133 
L 276.417195 224.889086 
L 276.523356 226.29601 
L 276.735678 224.827916 
L 276.841839 225.31728 
L 277.054161 224.21621 
L 277.160322 224.705575 
L 277.266483 226.020742 
L 277.372644 224.491478 
L 277.584966 225.745475 
L 277.691127 225.072598 
L 277.797288 226.326595 
L 277.903449 224.766745 
L 278.115771 226.020742 
L 278.221932 225.531378 
L 278.328093 225.684304 
L 278.434254 224.919672 
L 278.540415 226.632448 
L 278.646576 225.531378 
L 278.858898 225.928986 
L 278.965059 225.83723 
L 279.177382 224.766745 
L 279.283543 225.31728 
L 279.389704 224.093869 
L 279.708187 226.35718 
L 279.920509 225.561963 
L 280.02667 226.234839 
L 280.238992 225.77606 
L 280.451314 226.907716 
L 280.663636 225.25611 
L 280.769797 226.143083 
L 280.875958 225.25611 
L 280.982119 225.500792 
L 281.08828 226.540692 
L 281.194441 226.418351 
L 281.300602 226.510107 
L 281.512924 225.653719 
L 281.619085 225.133769 
L 281.725246 227.152398 
L 281.831407 225.990157 
L 281.937568 226.29601 
L 282.14989 225.409036 
L 282.256051 226.907716 
L 282.362212 225.531378 
L 282.468373 227.488836 
L 282.680695 225.806645 
L 282.893017 225.31728 
L 283.105339 227.213568 
L 283.2115 226.754789 
L 283.317661 227.182983 
L 283.423822 225.806645 
L 283.636144 226.571277 
L 283.742305 225.745475 
L 283.954627 226.968886 
L 284.166949 225.684304 
L 284.27311 225.898401 
L 284.485432 226.968886 
L 284.591593 226.999471 
L 284.803915 225.072598 
L 285.122398 226.540692 
L 285.334721 225.714889 
L 285.440882 226.601863 
L 285.653204 225.898401 
L 285.759365 226.81596 
L 285.971687 226.204254 
L 286.077848 226.326595 
L 286.184009 226.173669 
L 286.29017 226.846545 
L 286.502492 226.479521 
L 286.608653 226.81596 
L 286.714814 226.754789 
L 286.820975 227.519421 
L 286.927136 226.510107 
L 287.139458 226.999471 
L 287.245619 226.020742 
L 287.457941 226.663033 
L 287.564102 226.204254 
L 287.776424 227.244154 
L 287.882585 226.540692 
L 287.988746 226.846545 
L 288.094907 225.990157 
L 288.201068 227.121813 
L 288.307229 226.693619 
L 288.41339 226.754789 
L 288.519551 226.204254 
L 288.625712 227.794689 
L 289.050356 227.091227 
L 289.368839 226.693619 
L 289.475 226.846545 
L 289.687322 227.611177 
L 289.899644 226.724204 
L 290.005805 226.785374 
L 290.111966 226.907716 
L 290.218127 226.571277 
L 290.430449 227.366495 
L 290.53661 227.274739 
L 290.748932 226.87713 
L 290.855093 226.87713 
L 290.961254 227.733518 
L 291.067415 226.601863 
L 291.173576 227.274739 
L 291.279737 226.540692 
L 291.49206 227.244154 
L 291.598221 226.510107 
L 291.916704 227.672348 
L 292.022865 227.182983 
L 292.129026 227.580592 
L 292.235187 225.898401 
L 292.447509 227.39708 
L 292.55367 226.35718 
L 292.659831 226.907716 
L 292.765992 226.81596 
L 292.872153 227.886445 
L 292.978314 227.030057 
L 293.084475 227.519421 
L 293.296797 227.091227 
L 293.402958 227.244154 
L 293.509119 226.754789 
L 293.61528 227.152398 
L 293.721441 227.060642 
L 293.827602 227.274739 
L 293.933763 227.030057 
L 294.039924 228.100542 
L 294.146085 227.947615 
L 294.358407 227.33591 
L 294.464568 227.519421 
L 294.570729 227.978201 
L 294.67689 227.550007 
L 294.783051 227.85586 
L 294.889212 227.764104 
L 295.101534 226.754789 
L 295.207695 227.886445 
L 295.313856 226.418351 
L 295.632339 228.314639 
L 295.7385 227.274739 
L 295.844661 227.39708 
L 295.950822 228.069957 
L 296.056983 227.091227 
L 296.163144 227.91703 
L 296.269305 227.488836 
L 296.375466 227.672348 
L 296.587788 227.458251 
L 296.693949 227.550007 
L 296.80011 227.886445 
L 296.906271 226.999471 
L 297.012432 227.152398 
L 297.118593 226.968886 
L 297.224754 227.121813 
L 297.330915 226.81596 
L 297.437076 227.121813 
L 297.543238 226.87713 
L 297.75556 227.825274 
L 297.967882 226.448936 
L 298.074043 227.458251 
L 298.286365 227.366495 
L 298.392526 227.274739 
L 298.498687 226.601863 
L 298.604848 227.733518 
L 298.711009 227.244154 
L 298.923331 227.550007 
L 299.029492 226.632448 
L 299.241814 227.947615 
L 299.347975 228.131127 
L 299.454136 226.938301 
L 299.666458 227.794689 
L 299.772619 227.519421 
L 299.87878 227.213568 
L 299.984941 228.008786 
L 300.091102 226.785374 
L 300.197263 226.81596 
L 300.409585 227.488836 
L 300.621907 227.764104 
L 300.728068 227.305324 
L 300.834229 227.672348 
L 301.152712 227.244154 
L 301.258873 227.550007 
L 301.365034 227.244154 
L 301.577356 228.008786 
L 301.683517 227.702933 
L 301.789678 228.222883 
L 301.895839 227.213568 
L 302.002 227.305324 
L 302.108161 227.764104 
L 302.214322 227.060642 
L 302.320483 227.978201 
L 302.532805 227.702933 
L 302.638966 226.693619 
L 302.851288 227.550007 
L 302.957449 227.978201 
L 303.06361 226.999471 
L 303.275932 228.039371 
L 303.382093 228.008786 
L 303.488254 227.488836 
L 303.594415 227.947615 
L 303.700577 227.550007 
L 303.806738 228.069957 
L 303.912899 227.702933 
L 304.01906 228.100542 
L 304.125221 227.519421 
L 304.337543 228.222883 
L 304.443704 227.060642 
L 304.549865 227.611177 
L 304.656026 227.427665 
L 304.762187 228.131127 
L 304.868348 227.152398 
L 304.974509 227.702933 
L 305.08067 226.234839 
L 305.186831 228.528736 
L 305.292992 227.978201 
L 305.399153 228.773418 
L 305.505314 227.85586 
L 305.611475 228.192298 
L 305.823797 227.274739 
L 305.929958 227.366495 
L 306.036119 228.161712 
L 306.14228 227.244154 
L 306.248441 227.611177 
L 306.354602 227.091227 
L 306.460763 228.192298 
L 306.673085 227.91703 
L 306.779246 227.33591 
L 307.20389 228.222883 
L 307.310051 227.825274 
L 307.416212 228.314639 
L 307.628534 227.947615 
L 307.734695 228.222883 
L 307.840856 227.366495 
L 308.053178 228.314639 
L 308.159339 228.161712 
L 308.2655 226.968886 
L 308.477822 228.43698 
L 308.690144 227.947615 
L 308.796305 227.733518 
L 308.902466 228.253468 
L 309.114788 227.152398 
L 309.220949 228.651077 
L 309.32711 228.43698 
L 309.433271 226.81596 
L 309.645593 227.91703 
L 309.751754 227.550007 
L 309.857916 228.314639 
L 309.964077 228.161712 
L 310.176399 227.091227 
L 310.28256 228.161712 
L 310.388721 227.244154 
L 310.494882 228.192298 
L 310.601043 228.039371 
L 310.707204 228.345224 
L 310.919526 227.91703 
L 311.025687 227.611177 
L 311.34417 228.008786 
L 311.450331 228.039371 
L 311.556492 227.244154 
L 311.662653 228.314639 
L 311.874975 228.069957 
L 311.981136 228.559321 
L 312.087297 227.947615 
L 312.299619 228.131127 
L 312.40578 227.85586 
L 312.511941 227.213568 
L 312.618102 228.834589 
L 312.724263 228.345224 
L 312.830424 228.620492 
L 313.042746 227.641762 
L 313.148907 227.733518 
L 313.361229 228.95693 
L 313.46739 228.161712 
L 313.573551 228.712248 
L 313.679712 228.284054 
L 313.785873 229.018101 
L 313.892034 228.008786 
L 313.998195 228.528736 
L 314.104356 228.100542 
L 314.210517 228.467565 
L 314.316678 228.131127 
L 314.422839 228.375809 
L 314.529 228.069957 
L 314.635161 228.559321 
L 314.741322 228.314639 
L 314.847483 228.620492 
L 314.953644 228.100542 
L 315.165966 228.284054 
L 315.272127 228.222883 
L 315.378288 228.742833 
L 315.484449 228.314639 
L 315.59061 228.498151 
L 315.696771 228.314639 
L 315.802932 227.702933 
L 315.909093 227.733518 
L 316.015255 227.213568 
L 316.121416 228.773418 
L 316.227577 227.39708 
L 316.333738 228.559321 
L 316.439899 228.069957 
L 316.652221 228.651077 
L 316.864543 228.100542 
L 316.970704 228.742833 
L 317.076865 228.039371 
L 317.183026 228.467565 
L 317.289187 228.100542 
L 317.395348 229.018101 
L 317.501509 228.161712 
L 317.60767 228.528736 
L 317.713831 228.161712 
L 317.819992 228.498151 
L 318.032314 228.069957 
L 318.138475 228.712248 
L 318.350797 227.91703 
L 318.456958 228.039371 
L 318.563119 228.742833 
L 318.66928 228.008786 
L 318.775441 228.345224 
L 318.881602 228.131127 
L 318.987763 228.620492 
L 319.093924 228.222883 
L 319.306246 228.467565 
L 319.412407 228.589906 
L 319.73089 228.069957 
L 319.837051 228.467565 
L 319.943212 227.702933 
L 320.049373 228.834589 
L 320.155534 228.467565 
L 320.367856 228.589906 
L 320.474017 228.069957 
L 320.580178 228.589906 
L 320.7925 227.611177 
L 320.898661 229.018101 
L 321.004822 227.488836 
L 321.110983 229.354539 
L 321.323305 227.641762 
L 321.429466 228.375809 
L 321.535627 228.253468 
L 321.641788 228.345224 
L 321.747949 227.580592 
L 321.960271 228.95693 
L 322.066432 228.100542 
L 322.172594 228.222883 
L 322.278755 228.773418 
L 322.384916 228.039371 
L 322.491077 228.620492 
L 322.597238 227.458251 
L 322.703399 228.712248 
L 322.80956 228.467565 
L 322.915721 227.672348 
L 323.128043 228.589906 
L 323.234204 227.733518 
L 323.340365 228.651077 
L 323.552687 228.406395 
L 323.658848 227.305324 
L 324.083492 228.804003 
L 324.189653 228.345224 
L 324.401975 228.528736 
L 324.508136 227.702933 
L 324.614297 228.43698 
L 324.720458 227.825274 
L 324.93278 228.620492 
L 325.038941 228.651077 
L 325.145102 228.314639 
L 325.251263 228.926345 
L 325.463585 228.069957 
L 325.569746 228.926345 
L 325.888229 228.406395 
L 325.99439 229.140442 
L 326.100551 228.069957 
L 326.312873 228.43698 
L 326.419034 229.629806 
L 326.737517 227.458251 
L 326.843678 229.171027 
L 327.268322 228.039371 
L 327.374483 229.232198 
L 327.480644 227.978201 
L 327.586805 228.345224 
L 327.799127 228.131127 
L 328.11761 228.804003 
L 328.223771 228.528736 
L 328.329932 229.262783 
L 328.436094 228.43698 
L 328.754577 229.201612 
L 328.860738 228.192298 
L 329.07306 228.681662 
L 329.179221 228.589906 
L 329.285382 228.773418 
L 329.391543 228.039371 
L 329.497704 229.232198 
L 329.603865 229.109856 
L 329.710026 227.580592 
L 329.816187 228.589906 
L 329.922348 228.161712 
L 330.13467 228.95693 
L 330.240831 227.702933 
L 330.346992 228.742833 
L 330.559314 228.314639 
L 330.665475 229.109856 
L 330.771636 228.192298 
L 330.877797 229.385124 
L 331.090119 228.192298 
L 331.19628 228.43698 
L 331.302441 229.47688 
L 331.408602 227.794689 
L 331.514763 228.161712 
L 331.620924 227.733518 
L 331.727085 228.43698 
L 331.833246 228.069957 
L 331.939407 228.95693 
L 332.045568 228.314639 
L 332.151729 228.865174 
L 332.364051 228.192298 
L 332.576373 228.222883 
L 332.682534 229.018101 
L 332.894856 227.764104 
L 333.001017 229.079271 
L 333.213339 228.589906 
L 333.425661 229.018101 
L 333.531822 227.733518 
L 333.850305 229.201612 
L 334.062627 228.559321 
L 334.168788 228.284054 
L 334.38111 229.140442 
L 334.487271 228.467565 
L 334.593433 228.834589 
L 334.699594 228.43698 
L 335.124238 229.079271 
L 335.33656 228.192298 
L 335.442721 228.773418 
L 335.548882 228.222883 
L 335.655043 229.109856 
L 335.761204 227.947615 
L 335.973526 228.498151 
L 336.079687 228.375809 
L 336.185848 229.293368 
L 336.292009 228.008786 
L 336.39817 228.773418 
L 336.610492 228.314639 
L 336.716653 228.926345 
L 336.928975 228.834589 
L 337.035136 228.161712 
L 337.141297 228.834589 
L 337.247458 228.284054 
L 337.45978 228.987515 
L 337.565941 229.171027 
L 337.990585 228.345224 
L 338.202907 229.232198 
L 338.309068 228.651077 
L 338.52139 229.109856 
L 338.627551 229.079271 
L 338.946034 228.222883 
L 339.052195 229.140442 
L 339.158356 228.253468 
L 339.264517 229.079271 
L 339.370678 228.804003 
L 339.476839 228.895759 
L 339.689161 229.385124 
L 339.901483 228.865174 
L 340.007644 229.201612 
L 340.113805 229.048686 
L 340.219966 229.201612 
L 340.326127 228.987515 
L 340.432288 229.47688 
L 340.64461 228.95693 
L 340.750772 228.834589 
L 340.963094 229.171027 
L 341.069255 229.140442 
L 341.175416 229.385124 
L 341.281577 228.742833 
L 341.387738 229.232198 
L 341.493899 228.95693 
L 341.60006 229.048686 
L 341.706221 228.865174 
L 341.812382 229.262783 
L 341.918543 228.95693 
L 342.024704 229.721562 
L 342.237026 228.865174 
L 342.449348 229.599221 
L 342.555509 228.43698 
L 342.66167 228.987515 
L 342.767831 228.865174 
L 343.086314 229.629806 
L 343.192475 229.385124 
L 343.298636 228.95693 
L 343.404797 229.171027 
L 343.617119 228.712248 
L 343.829441 228.834589 
L 344.041763 229.171027 
L 344.147924 229.385124 
L 344.254085 228.742833 
L 344.360246 228.773418 
L 344.466407 229.171027 
L 344.572568 228.712248 
L 344.78489 229.53805 
L 344.891051 229.262783 
L 345.103373 229.354539 
L 345.209534 229.874489 
L 345.421856 228.895759 
L 345.634178 229.262783 
L 345.740339 229.323953 
L 345.8465 228.834589 
L 345.952661 229.323953 
L 346.058822 228.865174 
L 346.164983 229.171027 
L 346.377305 228.804003 
L 346.589627 229.53805 
L 346.695788 229.079271 
L 346.908111 229.385124 
L 347.014272 228.895759 
L 347.120433 229.293368 
L 347.226594 229.109856 
L 347.332755 229.415709 
L 347.438916 229.323953 
L 347.545077 229.53805 
L 347.86356 228.712248 
L 347.969721 228.773418 
L 348.075882 229.201612 
L 348.182043 229.018101 
L 348.288204 229.323953 
L 348.606687 228.865174 
L 348.712848 229.018101 
L 348.819009 228.742833 
L 348.92517 229.415709 
L 349.137492 228.131127 
L 349.243653 229.415709 
L 349.349814 229.018101 
L 349.562136 229.323953 
L 349.668297 228.987515 
L 349.880619 229.385124 
L 349.98678 229.140442 
L 350.092941 229.599221 
L 350.411424 228.987515 
L 350.517585 229.446295 
L 350.623746 229.140442 
L 350.729907 229.47688 
L 350.836068 228.926345 
L 350.942229 229.171027 
L 351.04839 228.712248 
L 351.260712 229.079271 
L 351.366873 228.712248 
L 351.473034 228.95693 
L 351.579195 228.742833 
L 351.791517 229.171027 
L 351.897678 228.192298 
L 352.11 229.293368 
L 352.216161 229.629806 
L 352.428483 229.018101 
L 352.534644 229.53805 
L 352.640805 228.589906 
L 352.746966 229.109856 
L 352.853127 228.95693 
L 352.959288 229.568636 
L 353.06545 229.47688 
L 353.277772 229.262783 
L 353.383933 229.721562 
L 353.596255 228.834589 
L 353.702416 229.446295 
L 353.914738 229.109856 
L 354.020899 228.742833 
L 354.339382 229.53805 
L 354.551704 229.53805 
L 354.657865 229.782733 
L 354.764026 229.660392 
L 354.870187 229.232198 
L 355.082509 229.721562 
L 355.18867 228.406395 
L 355.294831 229.47688 
L 355.400992 228.773418 
L 355.507153 228.865174 
L 355.613314 229.568636 
L 355.931797 228.742833 
L 356.037958 229.690977 
L 356.144119 229.262783 
L 356.25028 229.446295 
L 356.462602 228.284054 
L 356.674924 228.865174 
L 356.887246 229.171027 
L 356.993407 229.323953 
L 357.099568 228.926345 
L 357.205729 229.048686 
L 357.31189 229.690977 
L 357.418051 229.293368 
L 357.524212 229.47688 
L 357.630373 228.406395 
L 357.948856 229.47688 
L 358.055017 229.47688 
L 358.161178 229.629806 
L 358.267339 228.804003 
L 358.3735 229.385124 
L 358.479661 228.926345 
L 358.585822 229.079271 
L 358.798144 228.651077 
L 358.904305 229.813318 
L 359.222789 229.415709 
L 359.32895 229.660392 
L 359.541272 229.140442 
L 359.647433 229.079271 
L 359.859755 229.599221 
L 360.072077 228.926345 
L 360.284399 229.385124 
L 360.496721 229.874489 
L 360.709043 229.293368 
L 360.815204 229.232198 
L 360.921365 228.681662 
L 361.027526 229.507465 
L 361.133687 229.47688 
L 361.45217 229.53805 
L 361.558331 228.712248 
L 361.664492 228.804003 
L 361.770653 228.284054 
L 361.876814 229.140442 
L 362.089136 228.95693 
L 362.195297 229.599221 
L 362.301458 229.53805 
L 362.407619 228.253468 
L 362.51378 229.53805 
L 362.726102 228.222883 
L 362.938424 229.446295 
L 363.044585 228.987515 
L 363.256907 229.385124 
L 363.363068 229.109856 
L 363.363068 229.109856 
" style="fill:none;stroke:#1f77b4;stroke-linecap:square;stroke-width:1.5;"/>
   </g>
   <g id="patch_3">
    <path d="M 43.78125 239.758125 
L 43.78125 22.318125 
" style="fill:none;stroke:#000000;stroke-linecap:square;stroke-linejoin:miter;stroke-width:0.8;"/>
   </g>
   <g id="patch_4">
    <path d="M 378.58125 239.758125 
L 378.58125 22.318125 
" style="fill:none;stroke:#000000;stroke-linecap:square;stroke-linejoin:miter;stroke-width:0.8;"/>
   </g>
   <g id="patch_5">
    <path d="M 43.78125 239.758125 
L 378.58125 239.758125 
" style="fill:none;stroke:#000000;stroke-linecap:square;stroke-linejoin:miter;stroke-width:0.8;"/>
   </g>
   <g id="patch_6">
    <path d="M 43.78125 22.318125 
L 378.58125 22.318125 
" style="fill:none;stroke:#000000;stroke-linecap:square;stroke-linejoin:miter;stroke-width:0.8;"/>
   </g>
   <g id="text_17">
    <!-- FASTER RCNN 1 -->
    <defs>
     <path d="M 9.8125 72.90625 
L 51.703125 72.90625 
L 51.703125 64.59375 
L 19.671875 64.59375 
L 19.671875 43.109375 
L 48.578125 43.109375 
L 48.578125 34.8125 
L 19.671875 34.8125 
L 19.671875 0 
L 9.8125 0 
z
" id="DejaVuSans-70"/>
     <path d="M 44.390625 34.1875 
Q 47.5625 33.109375 50.5625 29.59375 
Q 53.5625 26.078125 56.59375 19.921875 
L 66.609375 0 
L 56 0 
L 46.6875 18.703125 
Q 43.0625 26.03125 39.671875 28.421875 
Q 36.28125 30.8125 30.421875 30.8125 
L 19.671875 30.8125 
L 19.671875 0 
L 9.8125 0 
L 9.8125 72.90625 
L 32.078125 72.90625 
Q 44.578125 72.90625 50.734375 67.671875 
Q 56.890625 62.453125 56.890625 51.90625 
Q 56.890625 45.015625 53.6875 40.46875 
Q 50.484375 35.9375 44.390625 34.1875 
z
M 19.671875 64.796875 
L 19.671875 38.921875 
L 32.078125 38.921875 
Q 39.203125 38.921875 42.84375 42.21875 
Q 46.484375 45.515625 46.484375 51.90625 
Q 46.484375 58.296875 42.84375 61.546875 
Q 39.203125 64.796875 32.078125 64.796875 
z
" id="DejaVuSans-82"/>
     <path d="M 9.8125 72.90625 
L 23.09375 72.90625 
L 55.421875 11.921875 
L 55.421875 72.90625 
L 64.984375 72.90625 
L 64.984375 0 
L 51.703125 0 
L 19.390625 60.984375 
L 19.390625 0 
L 9.8125 0 
z
" id="DejaVuSans-78"/>
    </defs>
    <g transform="translate(163.2375 16.318125)scale(0.12 -0.12)">
     <use xlink:href="#DejaVuSans-70"/>
     <use x="57.378906" xlink:href="#DejaVuSans-65"/>
     <use x="125.787109" xlink:href="#DejaVuSans-83"/>
     <use x="189.263672" xlink:href="#DejaVuSans-84"/>
     <use x="250.347656" xlink:href="#DejaVuSans-69"/>
     <use x="313.53125" xlink:href="#DejaVuSans-82"/>
     <use x="383.013672" xlink:href="#DejaVuSans-32"/>
     <use x="414.800781" xlink:href="#DejaVuSans-82"/>
     <use x="484.205078" xlink:href="#DejaVuSans-67"/>
     <use x="554.029297" xlink:href="#DejaVuSans-78"/>
     <use x="628.833984" xlink:href="#DejaVuSans-78"/>
     <use x="703.638672" xlink:href="#DejaVuSans-32"/>
     <use x="735.425781" xlink:href="#DejaVuSans-49"/>
    </g>
   </g>
  </g>
 </g>
 <defs>
  <clipPath id="pc44134f9a5">
   <rect height="217.44" width="334.8" x="43.78125" y="22.318125"/>
  </clipPath>
 </defs>
</svg>
