<?xml version="1.0" encoding="utf-8" standalone="no"?>
<!DOCTYPE svg PUBLIC "-//W3C//DTD SVG 1.1//EN"
  "http://www.w3.org/Graphics/SVG/1.1/DTD/svg11.dtd">
<!-- Created with matplotlib (https://matplotlib.org/) -->
<svg height="277.314375pt" version="1.1" viewBox="0 0 385.78125 277.314375" width="385.78125pt" xmlns="http://www.w3.org/2000/svg" xmlns:xlink="http://www.w3.org/1999/xlink">
 <defs>
  <style type="text/css">
*{stroke-linecap:butt;stroke-linejoin:round;}
  </style>
 </defs>
 <g id="figure_1">
  <g id="patch_1">
   <path d="M 0 277.314375 
L 385.78125 277.314375 
L 385.78125 0 
L 0 0 
z
" style="fill:none;"/>
  </g>
  <g id="axes_1">
   <g id="patch_2">
    <path d="M 43.78125 239.758125 
L 378.58125 239.758125 
L 378.58125 22.318125 
L 43.78125 22.318125 
z
" style="fill:#ffffff;"/>
   </g>
   <g id="matplotlib.axis_1">
    <g id="xtick_1">
     <g id="line2d_1">
      <defs>
       <path d="M 0 0 
L 0 3.5 
" id="ma5a7c721e5" style="stroke:#000000;stroke-width:0.8;"/>
      </defs>
      <g>
       <use style="stroke:#000000;stroke-width:0.8;" x="58.999432" xlink:href="#ma5a7c721e5" y="239.758125"/>
      </g>
     </g>
     <g id="text_1">
      <!-- 0 -->
      <defs>
       <path d="M 31.78125 66.40625 
Q 24.171875 66.40625 20.328125 58.90625 
Q 16.5 51.421875 16.5 36.375 
Q 16.5 21.390625 20.328125 13.890625 
Q 24.171875 6.390625 31.78125 6.390625 
Q 39.453125 6.390625 43.28125 13.890625 
Q 47.125 21.390625 47.125 36.375 
Q 47.125 51.421875 43.28125 58.90625 
Q 39.453125 66.40625 31.78125 66.40625 
z
M 31.78125 74.21875 
Q 44.046875 74.21875 50.515625 64.515625 
Q 56.984375 54.828125 56.984375 36.375 
Q 56.984375 17.96875 50.515625 8.265625 
Q 44.046875 -1.421875 31.78125 -1.421875 
Q 19.53125 -1.421875 13.0625 8.265625 
Q 6.59375 17.96875 6.59375 36.375 
Q 6.59375 54.828125 13.0625 64.515625 
Q 19.53125 74.21875 31.78125 74.21875 
z
" id="DejaVuSans-48"/>
      </defs>
      <g transform="translate(55.818182 254.356562)scale(0.1 -0.1)">
       <use xlink:href="#DejaVuSans-48"/>
      </g>
     </g>
    </g>
    <g id="xtick_2">
     <g id="line2d_2">
      <g>
       <use style="stroke:#000000;stroke-width:0.8;" x="101.657265" xlink:href="#ma5a7c721e5" y="239.758125"/>
      </g>
     </g>
     <g id="text_2">
      <!-- 200 -->
      <defs>
       <path d="M 19.1875 8.296875 
L 53.609375 8.296875 
L 53.609375 0 
L 7.328125 0 
L 7.328125 8.296875 
Q 12.9375 14.109375 22.625 23.890625 
Q 32.328125 33.6875 34.8125 36.53125 
Q 39.546875 41.84375 41.421875 45.53125 
Q 43.3125 49.21875 43.3125 52.78125 
Q 43.3125 58.59375 39.234375 62.25 
Q 35.15625 65.921875 28.609375 65.921875 
Q 23.96875 65.921875 18.8125 64.3125 
Q 13.671875 62.703125 7.8125 59.421875 
L 7.8125 69.390625 
Q 13.765625 71.78125 18.9375 73 
Q 24.125 74.21875 28.421875 74.21875 
Q 39.75 74.21875 46.484375 68.546875 
Q 53.21875 62.890625 53.21875 53.421875 
Q 53.21875 48.921875 51.53125 44.890625 
Q 49.859375 40.875 45.40625 35.40625 
Q 44.1875 33.984375 37.640625 27.21875 
Q 31.109375 20.453125 19.1875 8.296875 
z
" id="DejaVuSans-50"/>
      </defs>
      <g transform="translate(92.113515 254.356562)scale(0.1 -0.1)">
       <use xlink:href="#DejaVuSans-50"/>
       <use x="63.623047" xlink:href="#DejaVuSans-48"/>
       <use x="127.246094" xlink:href="#DejaVuSans-48"/>
      </g>
     </g>
    </g>
    <g id="xtick_3">
     <g id="line2d_3">
      <g>
       <use style="stroke:#000000;stroke-width:0.8;" x="144.315097" xlink:href="#ma5a7c721e5" y="239.758125"/>
      </g>
     </g>
     <g id="text_3">
      <!-- 400 -->
      <defs>
       <path d="M 37.796875 64.3125 
L 12.890625 25.390625 
L 37.796875 25.390625 
z
M 35.203125 72.90625 
L 47.609375 72.90625 
L 47.609375 25.390625 
L 58.015625 25.390625 
L 58.015625 17.1875 
L 47.609375 17.1875 
L 47.609375 0 
L 37.796875 0 
L 37.796875 17.1875 
L 4.890625 17.1875 
L 4.890625 26.703125 
z
" id="DejaVuSans-52"/>
      </defs>
      <g transform="translate(134.771347 254.356562)scale(0.1 -0.1)">
       <use xlink:href="#DejaVuSans-52"/>
       <use x="63.623047" xlink:href="#DejaVuSans-48"/>
       <use x="127.246094" xlink:href="#DejaVuSans-48"/>
      </g>
     </g>
    </g>
    <g id="xtick_4">
     <g id="line2d_4">
      <g>
       <use style="stroke:#000000;stroke-width:0.8;" x="186.97293" xlink:href="#ma5a7c721e5" y="239.758125"/>
      </g>
     </g>
     <g id="text_4">
      <!-- 600 -->
      <defs>
       <path d="M 33.015625 40.375 
Q 26.375 40.375 22.484375 35.828125 
Q 18.609375 31.296875 18.609375 23.390625 
Q 18.609375 15.53125 22.484375 10.953125 
Q 26.375 6.390625 33.015625 6.390625 
Q 39.65625 6.390625 43.53125 10.953125 
Q 47.40625 15.53125 47.40625 23.390625 
Q 47.40625 31.296875 43.53125 35.828125 
Q 39.65625 40.375 33.015625 40.375 
z
M 52.59375 71.296875 
L 52.59375 62.3125 
Q 48.875 64.0625 45.09375 64.984375 
Q 41.3125 65.921875 37.59375 65.921875 
Q 27.828125 65.921875 22.671875 59.328125 
Q 17.53125 52.734375 16.796875 39.40625 
Q 19.671875 43.65625 24.015625 45.921875 
Q 28.375 48.1875 33.59375 48.1875 
Q 44.578125 48.1875 50.953125 41.515625 
Q 57.328125 34.859375 57.328125 23.390625 
Q 57.328125 12.15625 50.6875 5.359375 
Q 44.046875 -1.421875 33.015625 -1.421875 
Q 20.359375 -1.421875 13.671875 8.265625 
Q 6.984375 17.96875 6.984375 36.375 
Q 6.984375 53.65625 15.1875 63.9375 
Q 23.390625 74.21875 37.203125 74.21875 
Q 40.921875 74.21875 44.703125 73.484375 
Q 48.484375 72.75 52.59375 71.296875 
z
" id="DejaVuSans-54"/>
      </defs>
      <g transform="translate(177.42918 254.356562)scale(0.1 -0.1)">
       <use xlink:href="#DejaVuSans-54"/>
       <use x="63.623047" xlink:href="#DejaVuSans-48"/>
       <use x="127.246094" xlink:href="#DejaVuSans-48"/>
      </g>
     </g>
    </g>
    <g id="xtick_5">
     <g id="line2d_5">
      <g>
       <use style="stroke:#000000;stroke-width:0.8;" x="229.630763" xlink:href="#ma5a7c721e5" y="239.758125"/>
      </g>
     </g>
     <g id="text_5">
      <!-- 800 -->
      <defs>
       <path d="M 31.78125 34.625 
Q 24.75 34.625 20.71875 30.859375 
Q 16.703125 27.09375 16.703125 20.515625 
Q 16.703125 13.921875 20.71875 10.15625 
Q 24.75 6.390625 31.78125 6.390625 
Q 38.8125 6.390625 42.859375 10.171875 
Q 46.921875 13.96875 46.921875 20.515625 
Q 46.921875 27.09375 42.890625 30.859375 
Q 38.875 34.625 31.78125 34.625 
z
M 21.921875 38.8125 
Q 15.578125 40.375 12.03125 44.71875 
Q 8.5 49.078125 8.5 55.328125 
Q 8.5 64.0625 14.71875 69.140625 
Q 20.953125 74.21875 31.78125 74.21875 
Q 42.671875 74.21875 48.875 69.140625 
Q 55.078125 64.0625 55.078125 55.328125 
Q 55.078125 49.078125 51.53125 44.71875 
Q 48 40.375 41.703125 38.8125 
Q 48.828125 37.15625 52.796875 32.3125 
Q 56.78125 27.484375 56.78125 20.515625 
Q 56.78125 9.90625 50.3125 4.234375 
Q 43.84375 -1.421875 31.78125 -1.421875 
Q 19.734375 -1.421875 13.25 4.234375 
Q 6.78125 9.90625 6.78125 20.515625 
Q 6.78125 27.484375 10.78125 32.3125 
Q 14.796875 37.15625 21.921875 38.8125 
z
M 18.3125 54.390625 
Q 18.3125 48.734375 21.84375 45.5625 
Q 25.390625 42.390625 31.78125 42.390625 
Q 38.140625 42.390625 41.71875 45.5625 
Q 45.3125 48.734375 45.3125 54.390625 
Q 45.3125 60.0625 41.71875 63.234375 
Q 38.140625 66.40625 31.78125 66.40625 
Q 25.390625 66.40625 21.84375 63.234375 
Q 18.3125 60.0625 18.3125 54.390625 
z
" id="DejaVuSans-56"/>
      </defs>
      <g transform="translate(220.087013 254.356562)scale(0.1 -0.1)">
       <use xlink:href="#DejaVuSans-56"/>
       <use x="63.623047" xlink:href="#DejaVuSans-48"/>
       <use x="127.246094" xlink:href="#DejaVuSans-48"/>
      </g>
     </g>
    </g>
    <g id="xtick_6">
     <g id="line2d_6">
      <g>
       <use style="stroke:#000000;stroke-width:0.8;" x="272.288595" xlink:href="#ma5a7c721e5" y="239.758125"/>
      </g>
     </g>
     <g id="text_6">
      <!-- 1000 -->
      <defs>
       <path d="M 12.40625 8.296875 
L 28.515625 8.296875 
L 28.515625 63.921875 
L 10.984375 60.40625 
L 10.984375 69.390625 
L 28.421875 72.90625 
L 38.28125 72.90625 
L 38.28125 8.296875 
L 54.390625 8.296875 
L 54.390625 0 
L 12.40625 0 
z
" id="DejaVuSans-49"/>
      </defs>
      <g transform="translate(259.563595 254.356562)scale(0.1 -0.1)">
       <use xlink:href="#DejaVuSans-49"/>
       <use x="63.623047" xlink:href="#DejaVuSans-48"/>
       <use x="127.246094" xlink:href="#DejaVuSans-48"/>
       <use x="190.869141" xlink:href="#DejaVuSans-48"/>
      </g>
     </g>
    </g>
    <g id="xtick_7">
     <g id="line2d_7">
      <g>
       <use style="stroke:#000000;stroke-width:0.8;" x="314.946428" xlink:href="#ma5a7c721e5" y="239.758125"/>
      </g>
     </g>
     <g id="text_7">
      <!-- 1200 -->
      <g transform="translate(302.221428 254.356562)scale(0.1 -0.1)">
       <use xlink:href="#DejaVuSans-49"/>
       <use x="63.623047" xlink:href="#DejaVuSans-50"/>
       <use x="127.246094" xlink:href="#DejaVuSans-48"/>
       <use x="190.869141" xlink:href="#DejaVuSans-48"/>
      </g>
     </g>
    </g>
    <g id="xtick_8">
     <g id="line2d_8">
      <g>
       <use style="stroke:#000000;stroke-width:0.8;" x="357.604261" xlink:href="#ma5a7c721e5" y="239.758125"/>
      </g>
     </g>
     <g id="text_8">
      <!-- 1400 -->
      <g transform="translate(344.879261 254.356562)scale(0.1 -0.1)">
       <use xlink:href="#DejaVuSans-49"/>
       <use x="63.623047" xlink:href="#DejaVuSans-52"/>
       <use x="127.246094" xlink:href="#DejaVuSans-48"/>
       <use x="190.869141" xlink:href="#DejaVuSans-48"/>
      </g>
     </g>
    </g>
    <g id="text_9">
     <!-- 50 BATCHES -->
     <defs>
      <path d="M 10.796875 72.90625 
L 49.515625 72.90625 
L 49.515625 64.59375 
L 19.828125 64.59375 
L 19.828125 46.734375 
Q 21.96875 47.46875 24.109375 47.828125 
Q 26.265625 48.1875 28.421875 48.1875 
Q 40.625 48.1875 47.75 41.5 
Q 54.890625 34.8125 54.890625 23.390625 
Q 54.890625 11.625 47.5625 5.09375 
Q 40.234375 -1.421875 26.90625 -1.421875 
Q 22.3125 -1.421875 17.546875 -0.640625 
Q 12.796875 0.140625 7.71875 1.703125 
L 7.71875 11.625 
Q 12.109375 9.234375 16.796875 8.0625 
Q 21.484375 6.890625 26.703125 6.890625 
Q 35.15625 6.890625 40.078125 11.328125 
Q 45.015625 15.765625 45.015625 23.390625 
Q 45.015625 31 40.078125 35.4375 
Q 35.15625 39.890625 26.703125 39.890625 
Q 22.75 39.890625 18.8125 39.015625 
Q 14.890625 38.140625 10.796875 36.28125 
z
" id="DejaVuSans-53"/>
      <path id="DejaVuSans-32"/>
      <path d="M 19.671875 34.8125 
L 19.671875 8.109375 
L 35.5 8.109375 
Q 43.453125 8.109375 47.28125 11.40625 
Q 51.125 14.703125 51.125 21.484375 
Q 51.125 28.328125 47.28125 31.5625 
Q 43.453125 34.8125 35.5 34.8125 
z
M 19.671875 64.796875 
L 19.671875 42.828125 
L 34.28125 42.828125 
Q 41.5 42.828125 45.03125 45.53125 
Q 48.578125 48.25 48.578125 53.8125 
Q 48.578125 59.328125 45.03125 62.0625 
Q 41.5 64.796875 34.28125 64.796875 
z
M 9.8125 72.90625 
L 35.015625 72.90625 
Q 46.296875 72.90625 52.390625 68.21875 
Q 58.5 63.53125 58.5 54.890625 
Q 58.5 48.1875 55.375 44.234375 
Q 52.25 40.28125 46.1875 39.3125 
Q 53.46875 37.75 57.5 32.78125 
Q 61.53125 27.828125 61.53125 20.40625 
Q 61.53125 10.640625 54.890625 5.3125 
Q 48.25 0 35.984375 0 
L 9.8125 0 
z
" id="DejaVuSans-66"/>
      <path d="M 34.1875 63.1875 
L 20.796875 26.90625 
L 47.609375 26.90625 
z
M 28.609375 72.90625 
L 39.796875 72.90625 
L 67.578125 0 
L 57.328125 0 
L 50.6875 18.703125 
L 17.828125 18.703125 
L 11.1875 0 
L 0.78125 0 
z
" id="DejaVuSans-65"/>
      <path d="M -0.296875 72.90625 
L 61.375 72.90625 
L 61.375 64.59375 
L 35.5 64.59375 
L 35.5 0 
L 25.59375 0 
L 25.59375 64.59375 
L -0.296875 64.59375 
z
" id="DejaVuSans-84"/>
      <path d="M 64.40625 67.28125 
L 64.40625 56.890625 
Q 59.421875 61.53125 53.78125 63.8125 
Q 48.140625 66.109375 41.796875 66.109375 
Q 29.296875 66.109375 22.65625 58.46875 
Q 16.015625 50.828125 16.015625 36.375 
Q 16.015625 21.96875 22.65625 14.328125 
Q 29.296875 6.6875 41.796875 6.6875 
Q 48.140625 6.6875 53.78125 8.984375 
Q 59.421875 11.28125 64.40625 15.921875 
L 64.40625 5.609375 
Q 59.234375 2.09375 53.4375 0.328125 
Q 47.65625 -1.421875 41.21875 -1.421875 
Q 24.65625 -1.421875 15.125 8.703125 
Q 5.609375 18.84375 5.609375 36.375 
Q 5.609375 53.953125 15.125 64.078125 
Q 24.65625 74.21875 41.21875 74.21875 
Q 47.75 74.21875 53.53125 72.484375 
Q 59.328125 70.75 64.40625 67.28125 
z
" id="DejaVuSans-67"/>
      <path d="M 9.8125 72.90625 
L 19.671875 72.90625 
L 19.671875 43.015625 
L 55.515625 43.015625 
L 55.515625 72.90625 
L 65.375 72.90625 
L 65.375 0 
L 55.515625 0 
L 55.515625 34.71875 
L 19.671875 34.71875 
L 19.671875 0 
L 9.8125 0 
z
" id="DejaVuSans-72"/>
      <path d="M 9.8125 72.90625 
L 55.90625 72.90625 
L 55.90625 64.59375 
L 19.671875 64.59375 
L 19.671875 43.015625 
L 54.390625 43.015625 
L 54.390625 34.71875 
L 19.671875 34.71875 
L 19.671875 8.296875 
L 56.78125 8.296875 
L 56.78125 0 
L 9.8125 0 
z
" id="DejaVuSans-69"/>
      <path d="M 53.515625 70.515625 
L 53.515625 60.890625 
Q 47.90625 63.578125 42.921875 64.890625 
Q 37.9375 66.21875 33.296875 66.21875 
Q 25.25 66.21875 20.875 63.09375 
Q 16.5 59.96875 16.5 54.203125 
Q 16.5 49.359375 19.40625 46.890625 
Q 22.3125 44.4375 30.421875 42.921875 
L 36.375 41.703125 
Q 47.40625 39.59375 52.65625 34.296875 
Q 57.90625 29 57.90625 20.125 
Q 57.90625 9.515625 50.796875 4.046875 
Q 43.703125 -1.421875 29.984375 -1.421875 
Q 24.8125 -1.421875 18.96875 -0.25 
Q 13.140625 0.921875 6.890625 3.21875 
L 6.890625 13.375 
Q 12.890625 10.015625 18.65625 8.296875 
Q 24.421875 6.59375 29.984375 6.59375 
Q 38.421875 6.59375 43.015625 9.90625 
Q 47.609375 13.234375 47.609375 19.390625 
Q 47.609375 24.75 44.3125 27.78125 
Q 41.015625 30.8125 33.5 32.328125 
L 27.484375 33.5 
Q 16.453125 35.6875 11.515625 40.375 
Q 6.59375 45.0625 6.59375 53.421875 
Q 6.59375 63.09375 13.40625 68.65625 
Q 20.21875 74.21875 32.171875 74.21875 
Q 37.3125 74.21875 42.625 73.28125 
Q 47.953125 72.359375 53.515625 70.515625 
z
" id="DejaVuSans-83"/>
     </defs>
     <g transform="translate(179.749219 268.034687)scale(0.1 -0.1)">
      <use xlink:href="#DejaVuSans-53"/>
      <use x="63.623047" xlink:href="#DejaVuSans-48"/>
      <use x="127.246094" xlink:href="#DejaVuSans-32"/>
      <use x="159.033203" xlink:href="#DejaVuSans-66"/>
      <use x="227.636719" xlink:href="#DejaVuSans-65"/>
      <use x="295.935547" xlink:href="#DejaVuSans-84"/>
      <use x="356.941406" xlink:href="#DejaVuSans-67"/>
      <use x="426.765625" xlink:href="#DejaVuSans-72"/>
      <use x="501.960938" xlink:href="#DejaVuSans-69"/>
      <use x="565.144531" xlink:href="#DejaVuSans-83"/>
     </g>
    </g>
   </g>
   <g id="matplotlib.axis_2">
    <g id="ytick_1">
     <g id="line2d_9">
      <defs>
       <path d="M 0 0 
L -3.5 0 
" id="mc147fed8a5" style="stroke:#000000;stroke-width:0.8;"/>
      </defs>
      <g>
       <use style="stroke:#000000;stroke-width:0.8;" x="43.78125" xlink:href="#mc147fed8a5" y="226.152491"/>
      </g>
     </g>
     <g id="text_10">
      <!-- 0.2 -->
      <defs>
       <path d="M 10.6875 12.40625 
L 21 12.40625 
L 21 0 
L 10.6875 0 
z
" id="DejaVuSans-46"/>
      </defs>
      <g transform="translate(20.878125 229.95171)scale(0.1 -0.1)">
       <use xlink:href="#DejaVuSans-48"/>
       <use x="63.623047" xlink:href="#DejaVuSans-46"/>
       <use x="95.410156" xlink:href="#DejaVuSans-50"/>
      </g>
     </g>
    </g>
    <g id="ytick_2">
     <g id="line2d_10">
      <g>
       <use style="stroke:#000000;stroke-width:0.8;" x="43.78125" xlink:href="#mc147fed8a5" y="196.014859"/>
      </g>
     </g>
     <g id="text_11">
      <!-- 0.4 -->
      <g transform="translate(20.878125 199.814078)scale(0.1 -0.1)">
       <use xlink:href="#DejaVuSans-48"/>
       <use x="63.623047" xlink:href="#DejaVuSans-46"/>
       <use x="95.410156" xlink:href="#DejaVuSans-52"/>
      </g>
     </g>
    </g>
    <g id="ytick_3">
     <g id="line2d_11">
      <g>
       <use style="stroke:#000000;stroke-width:0.8;" x="43.78125" xlink:href="#mc147fed8a5" y="165.877227"/>
      </g>
     </g>
     <g id="text_12">
      <!-- 0.6 -->
      <g transform="translate(20.878125 169.676446)scale(0.1 -0.1)">
       <use xlink:href="#DejaVuSans-48"/>
       <use x="63.623047" xlink:href="#DejaVuSans-46"/>
       <use x="95.410156" xlink:href="#DejaVuSans-54"/>
      </g>
     </g>
    </g>
    <g id="ytick_4">
     <g id="line2d_12">
      <g>
       <use style="stroke:#000000;stroke-width:0.8;" x="43.78125" xlink:href="#mc147fed8a5" y="135.739596"/>
      </g>
     </g>
     <g id="text_13">
      <!-- 0.8 -->
      <g transform="translate(20.878125 139.538814)scale(0.1 -0.1)">
       <use xlink:href="#DejaVuSans-48"/>
       <use x="63.623047" xlink:href="#DejaVuSans-46"/>
       <use x="95.410156" xlink:href="#DejaVuSans-56"/>
      </g>
     </g>
    </g>
    <g id="ytick_5">
     <g id="line2d_13">
      <g>
       <use style="stroke:#000000;stroke-width:0.8;" x="43.78125" xlink:href="#mc147fed8a5" y="105.601964"/>
      </g>
     </g>
     <g id="text_14">
      <!-- 1.0 -->
      <g transform="translate(20.878125 109.401182)scale(0.1 -0.1)">
       <use xlink:href="#DejaVuSans-49"/>
       <use x="63.623047" xlink:href="#DejaVuSans-46"/>
       <use x="95.410156" xlink:href="#DejaVuSans-48"/>
      </g>
     </g>
    </g>
    <g id="ytick_6">
     <g id="line2d_14">
      <g>
       <use style="stroke:#000000;stroke-width:0.8;" x="43.78125" xlink:href="#mc147fed8a5" y="75.464332"/>
      </g>
     </g>
     <g id="text_15">
      <!-- 1.2 -->
      <g transform="translate(20.878125 79.263551)scale(0.1 -0.1)">
       <use xlink:href="#DejaVuSans-49"/>
       <use x="63.623047" xlink:href="#DejaVuSans-46"/>
       <use x="95.410156" xlink:href="#DejaVuSans-50"/>
      </g>
     </g>
    </g>
    <g id="ytick_7">
     <g id="line2d_15">
      <g>
       <use style="stroke:#000000;stroke-width:0.8;" x="43.78125" xlink:href="#mc147fed8a5" y="45.3267"/>
      </g>
     </g>
     <g id="text_16">
      <!-- 1.4 -->
      <g transform="translate(20.878125 49.125919)scale(0.1 -0.1)">
       <use xlink:href="#DejaVuSans-49"/>
       <use x="63.623047" xlink:href="#DejaVuSans-46"/>
       <use x="95.410156" xlink:href="#DejaVuSans-52"/>
      </g>
     </g>
    </g>
    <g id="text_17">
     <!-- LOSS -->
     <defs>
      <path d="M 9.8125 72.90625 
L 19.671875 72.90625 
L 19.671875 8.296875 
L 55.171875 8.296875 
L 55.171875 0 
L 9.8125 0 
z
" id="DejaVuSans-76"/>
      <path d="M 39.40625 66.21875 
Q 28.65625 66.21875 22.328125 58.203125 
Q 16.015625 50.203125 16.015625 36.375 
Q 16.015625 22.609375 22.328125 14.59375 
Q 28.65625 6.59375 39.40625 6.59375 
Q 50.140625 6.59375 56.421875 14.59375 
Q 62.703125 22.609375 62.703125 36.375 
Q 62.703125 50.203125 56.421875 58.203125 
Q 50.140625 66.21875 39.40625 66.21875 
z
M 39.40625 74.21875 
Q 54.734375 74.21875 63.90625 63.9375 
Q 73.09375 53.65625 73.09375 36.375 
Q 73.09375 19.140625 63.90625 8.859375 
Q 54.734375 -1.421875 39.40625 -1.421875 
Q 24.03125 -1.421875 14.8125 8.828125 
Q 5.609375 19.09375 5.609375 36.375 
Q 5.609375 53.65625 14.8125 63.9375 
Q 24.03125 74.21875 39.40625 74.21875 
z
" id="DejaVuSans-79"/>
     </defs>
     <g transform="translate(14.798438 144.106094)rotate(-90)scale(0.1 -0.1)">
      <use xlink:href="#DejaVuSans-76"/>
      <use x="55.666016" xlink:href="#DejaVuSans-79"/>
      <use x="134.376953" xlink:href="#DejaVuSans-83"/>
      <use x="197.853516" xlink:href="#DejaVuSans-83"/>
     </g>
    </g>
   </g>
   <g id="line2d_16">
    <path clip-path="url(#pd2e44ec8ea)" d="M 58.999432 32.201761 
L 59.212721 129.455899 
L 59.42601 135.875215 
L 59.639299 138.723221 
L 59.852588 140.079415 
L 60.919034 154.786579 
L 61.132323 163.647043 
L 61.772191 211.324776 
L 61.98548 215.498838 
L 62.412058 227.870336 
L 62.625348 219.311249 
L 62.838637 219.80852 
L 63.051926 223.907238 
L 63.265215 220.622236 
L 63.478504 227.82513 
L 63.691793 221.466089 
L 63.905083 223.003109 
L 64.118372 223.440104 
L 64.331661 224.208614 
L 64.54495 227.960749 
L 64.758239 220.81813 
L 64.971528 224.238751 
L 65.184818 224.13327 
L 65.398107 224.525059 
L 65.611396 218.166019 
L 65.824685 221.059231 
L 66.037974 229.874489 
L 66.251263 225.233293 
L 66.464553 224.570265 
L 66.677842 225.896321 
L 66.891131 223.379829 
L 67.10442 227.222377 
L 67.317709 227.734717 
L 67.530998 223.756549 
L 67.744288 226.408661 
L 67.957577 223.771618 
L 68.170866 226.047009 
L 68.384155 226.107285 
L 68.597444 225.007261 
L 68.810733 228.005955 
L 69.024023 220.772924 
L 69.450601 226.815519 
L 69.66389 223.937375 
L 69.877179 227.071689 
L 70.090468 227.297721 
L 70.303757 222.822283 
L 70.517047 224.720954 
L 70.730336 224.268889 
L 70.943625 223.214072 
L 71.156914 224.931917 
L 71.370203 223.635999 
L 71.583492 226.001803 
L 71.796782 225.625083 
L 72.010071 224.50999 
L 72.22336 220.95375 
L 72.436649 226.634693 
L 72.649938 222.551044 
L 72.863227 222.716801 
L 73.076517 223.349691 
L 73.289806 226.062078 
L 73.716384 221.451021 
L 73.929673 226.077147 
L 74.142962 225.157949 
L 74.356252 222.400356 
L 74.569541 222.279805 
L 74.78283 227.147033 
L 74.996119 226.348386 
L 75.422697 221.70719 
L 75.635987 224.012719 
L 75.849276 221.360608 
L 76.062565 221.631846 
L 76.275854 219.356455 
L 76.489143 224.283958 
L 76.702432 223.078453 
L 76.915722 226.468936 
L 77.129011 227.373065 
L 77.3423 223.409967 
L 77.555589 222.566113 
L 77.768878 219.80852 
L 77.982167 222.415425 
L 78.195457 222.340081 
L 78.408746 222.882558 
L 78.622035 221.616778 
L 78.835324 221.767466 
L 79.048613 221.405814 
L 79.261902 224.64561 
L 79.475192 221.466089 
L 79.688481 223.741481 
L 79.90177 222.792145 
L 80.115059 222.445562 
L 80.328348 220.049621 
L 80.541637 222.204461 
L 80.754926 223.063384 
L 80.968216 219.311249 
L 81.181505 218.542739 
L 81.394794 218.708496 
L 81.608083 221.285264 
L 81.821372 221.526365 
L 82.034661 222.98804 
L 82.247951 220.260584 
L 82.674529 224.615472 
L 82.887818 219.009872 
L 83.101107 217.744092 
L 83.314396 220.350997 
L 83.527686 216.192004 
L 83.740975 214.489228 
L 83.954264 222.716801 
L 84.167553 221.059231 
L 84.594131 224.208614 
L 84.807421 218.497533 
L 85.02071 223.470242 
L 85.233999 221.872947 
L 85.447288 222.520906 
L 85.660577 220.727717 
L 85.873866 223.952444 
L 86.087156 221.737328 
L 86.300445 221.164713 
L 86.513734 219.311249 
L 86.727023 220.803061 
L 87.153601 217.909849 
L 87.366891 218.648221 
L 87.58018 217.834505 
L 87.793469 218.361913 
L 88.006758 212.982346 
L 88.220047 218.15095 
L 88.433336 217.337234 
L 88.859915 224.012719 
L 89.073204 223.319554 
L 89.286493 222.008567 
L 89.499782 217.502991 
L 89.713071 223.334623 
L 89.926361 218.919459 
L 90.13965 217.924918 
L 90.352939 218.497533 
L 90.566228 217.804367 
L 90.779517 223.199003 
L 91.206096 215.468701 
L 91.419385 218.196156 
L 91.632674 217.457784 
L 91.845963 220.275653 
L 92.059252 219.341386 
L 92.272541 219.763313 
L 92.48583 216.975582 
L 92.69912 224.25382 
L 92.912409 218.557808 
L 93.125698 219.914001 
L 93.338987 218.572877 
L 93.552276 223.123659 
L 93.765565 221.903085 
L 94.192144 220.998956 
L 94.405433 221.978429 
L 94.618722 219.009872 
L 94.832011 222.430494 
L 95.0453 218.844115 
L 95.471879 217.593404 
L 95.685168 219.386593 
L 95.898457 220.230446 
L 96.325035 216.357761 
L 96.538325 216.49338 
L 96.964903 217.367371 
L 97.391481 219.612625 
L 97.60477 214.519365 
L 97.81806 221.481158 
L 98.031349 214.97143 
L 98.244638 218.587946 
L 98.457927 218.844115 
L 98.671216 221.58664 
L 98.884505 217.51806 
L 99.097795 221.933223 
L 99.311084 218.648221 
L 99.524373 218.618083 
L 99.737662 222.626388 
L 99.950951 218.452326 
L 100.16424 218.030399 
L 100.37753 220.682511 
L 100.590819 216.764619 
L 100.804108 219.868795 
L 101.017397 215.544045 
L 101.230686 220.712649 
L 101.657265 217.442716 
L 102.083843 217.683817 
L 102.510421 222.023636 
L 102.72371 220.426341 
L 102.937 216.101591 
L 103.150289 220.81813 
L 103.790156 216.11666 
L 104.003445 218.256432 
L 104.216734 218.452326 
L 104.430024 219.959208 
L 104.643313 216.402967 
L 105.069891 212.816589 
L 105.28318 217.834505 
L 105.496469 217.668748 
L 105.709759 216.975582 
L 105.923048 217.246821 
L 106.136337 218.075606 
L 106.349626 219.537281 
L 106.776204 216.508449 
L 106.989494 217.141339 
L 107.202783 214.745397 
L 107.416072 220.396203 
L 107.629361 217.186546 
L 107.84265 219.853726 
L 108.055939 219.431799 
L 108.269229 215.122118 
L 108.482518 215.950903 
L 108.695807 219.838657 
L 108.909096 215.122118 
L 109.122385 218.52767 
L 109.335674 215.513907 
L 109.762253 216.779688 
L 109.975542 216.74955 
L 110.188831 215.031705 
L 110.40212 217.050926 
L 110.615409 215.800215 
L 110.828699 218.331776 
L 111.041988 216.583793 
L 111.255277 219.371524 
L 111.468566 218.949597 
L 111.681855 217.51806 
L 111.895144 219.085216 
L 112.108434 216.478311 
L 112.321723 216.49338 
L 112.535012 213.765924 
L 112.748301 218.52767 
L 112.96159 213.780993 
L 113.174879 217.668748 
L 113.601458 214.670053 
L 113.814747 218.52767 
L 114.028036 219.281111 
L 114.241325 218.829047 
L 114.454614 220.019483 
L 114.667904 216.418036 
L 114.881193 218.512601 
L 115.094482 216.538587 
L 115.307771 221.481158 
L 115.52106 217.035857 
L 115.734349 220.516754 
L 115.947638 213.660443 
L 116.160928 213.675512 
L 116.374217 211.867254 
L 116.587506 217.186546 
L 116.800795 215.634458 
L 117.014084 218.452326 
L 117.653952 216.734481 
L 117.867241 220.079758 
L 118.08053 218.40712 
L 118.293819 215.528976 
L 118.507108 214.398815 
L 118.720398 218.829047 
L 119.146976 221.812672 
L 119.360265 216.041316 
L 119.573554 217.457784 
L 119.786843 214.986499 
L 120.000133 218.693427 
L 120.213422 215.257737 
L 120.426711 215.649526 
L 120.64 217.442716 
L 120.853289 218.120812 
L 121.066578 213.961819 
L 121.279868 217.38244 
L 121.706446 215.513907 
L 121.919735 216.734481 
L 122.133024 215.694733 
L 122.346313 215.318012 
L 122.559603 213.57003 
L 122.772892 219.883864 
L 122.986181 213.976888 
L 123.412759 220.757855 
L 123.626048 215.242668 
L 124.052627 216.583793 
L 124.479205 221.556502 
L 124.692494 211.972735 
L 124.905783 219.914001 
L 125.119073 221.782534 
L 125.332362 215.739939 
L 125.545651 219.250973 
L 125.75894 212.741245 
L 125.972229 215.755008 
L 126.185518 216.207073 
L 126.398807 214.881017 
L 126.612097 214.670053 
L 126.825386 215.122118 
L 127.038675 220.486616 
L 127.251964 215.031705 
L 127.465253 215.664595 
L 127.678542 213.931681 
L 127.891832 219.537281 
L 128.105121 219.914001 
L 128.31841 215.589251 
L 128.531699 214.775535 
L 128.744988 218.512601 
L 128.958277 215.528976 
L 129.171567 215.137187 
L 129.384856 217.668748 
L 129.598145 217.653679 
L 129.811434 215.107049 
L 130.024723 217.352303 
L 130.238012 218.331776 
L 130.451302 214.127576 
L 130.664591 214.745397 
L 130.87788 219.793451 
L 131.091169 216.719412 
L 131.304458 211.490533 
L 131.517747 217.879711 
L 131.731037 209.87817 
L 131.944326 214.941292 
L 132.157615 216.960513 
L 132.370904 217.89478 
L 132.584193 215.272806 
L 132.797482 216.568724 
L 133.010772 209.757619 
L 133.224061 217.51806 
L 133.43735 218.361913 
L 133.650639 214.534434 
L 133.863928 213.976888 
L 134.077217 218.015331 
L 134.290507 215.649526 
L 134.503796 218.000262 
L 134.717085 218.512601 
L 134.930374 220.140034 
L 135.143663 219.627694 
L 135.356952 215.513907 
L 135.570242 218.331776 
L 135.783531 215.197462 
L 135.99682 219.853726 
L 136.210109 212.454937 
L 136.423398 218.226294 
L 136.636687 218.075606 
L 136.849977 215.996109 
L 137.063266 218.648221 
L 137.276555 216.086522 
L 137.489844 219.868795 
L 137.703133 214.353608 
L 137.916422 217.955055 
L 138.129711 212.876864 
L 138.343001 218.361913 
L 138.55629 219.250973 
L 138.769579 215.333081 
L 138.982868 219.04001 
L 139.196157 219.356455 
L 139.409446 212.379593 
L 139.836025 216.915307 
L 140.049314 222.792145 
L 140.262603 220.215378 
L 140.475892 214.368677 
L 140.689181 216.8701 
L 140.902471 217.668748 
L 141.11576 214.504296 
L 141.329049 218.437257 
L 141.542338 213.494686 
L 141.755627 217.593404 
L 142.182206 213.148103 
L 142.395495 214.444021 
L 142.608784 213.780993 
L 142.822073 215.423494 
L 143.035362 214.112507 
L 143.248651 207.678123 
L 143.461941 215.755008 
L 143.67523 214.142645 
L 143.888519 217.156408 
L 144.101808 212.907002 
L 144.528386 220.290722 
L 144.741676 213.238516 
L 144.954965 212.28918 
L 145.168254 217.111202 
L 145.381543 218.090675 
L 145.594832 215.875559 
L 145.808121 215.528976 
L 146.021411 212.922071 
L 146.2347 216.824894 
L 146.661278 214.639916 
L 147.087856 219.838657 
L 147.301146 215.122118 
L 147.514435 217.909849 
L 147.727724 219.009872 
L 148.154302 212.997415 
L 148.367591 217.38244 
L 148.580881 213.585099 
L 148.79417 214.052232 
L 149.007459 219.6729 
L 149.434037 217.26189 
L 149.647326 217.939986 
L 149.860615 217.457784 
L 150.073905 220.396203 
L 150.287194 210.842574 
L 150.713772 216.945445 
L 150.927061 214.142645 
L 151.14035 217.065995 
L 151.35364 214.820742 
L 151.566929 217.352303 
L 151.780218 214.57964 
L 151.993507 217.834505 
L 152.206796 214.654985 
L 152.420085 220.396203 
L 152.633375 214.308402 
L 152.846664 219.778382 
L 153.059953 210.616542 
L 153.273242 218.120812 
L 153.486531 214.157714 
L 153.91311 217.985193 
L 154.126399 218.844115 
L 154.339688 218.678358 
L 154.552977 213.163172 
L 154.766266 215.09198 
L 154.979555 211.972735 
L 155.192845 215.137187 
L 155.406134 211.897391 
L 155.619423 217.63861 
L 155.832712 214.775535 
L 156.25929 217.578335 
L 156.47258 209.124729 
L 156.685869 211.837116 
L 156.899158 216.839963 
L 157.112447 216.764619 
L 157.325736 218.422189 
L 157.539025 216.478311 
L 157.752315 218.994804 
L 157.965604 211.008331 
L 158.392182 216.855032 
L 158.605471 217.156408 
L 158.81876 214.624847 
L 159.03205 214.278264 
L 159.245339 215.302944 
L 159.458628 212.530282 
L 159.671917 216.644068 
L 159.885206 213.539892 
L 160.098495 218.452326 
L 160.311784 208.657596 
L 160.738363 217.050926 
L 160.951652 213.886475 
L 161.37823 212.470006 
L 161.591519 218.196156 
L 161.804809 214.896086 
L 162.018098 207.828811 
L 162.231387 216.824894 
L 162.444676 212.756314 
L 162.657965 211.580946 
L 162.871254 218.422189 
L 163.084544 210.993262 
L 163.297833 217.533128 
L 163.724411 211.806978 
L 163.9377 217.216683 
L 164.150989 213.931681 
L 164.364279 219.944139 
L 164.577568 216.463242 
L 164.790857 215.453632 
L 165.004146 217.081064 
L 165.217435 215.920765 
L 165.430724 213.841268 
L 165.644014 215.122118 
L 165.857303 211.294639 
L 166.283881 218.964666 
L 166.49717 218.874253 
L 166.710459 219.461937 
L 166.923749 214.549503 
L 167.137038 217.985193 
L 167.350327 210.164477 
L 167.776905 217.397509 
L 167.990194 215.528976 
L 168.203484 215.046774 
L 168.416773 218.798909 
L 168.630062 211.505602 
L 168.843351 213.856337 
L 169.05664 206.804131 
L 169.269929 214.323471 
L 169.483219 211.671359 
L 169.696508 211.339845 
L 169.909797 208.582252 
L 170.123086 216.598862 
L 170.336375 214.20292 
L 170.549664 219.024941 
L 170.762954 214.881017 
L 170.976243 220.607167 
L 171.189532 217.909849 
L 171.402821 218.166019 
L 171.61611 210.465854 
L 171.829399 209.576794 
L 172.255978 218.346844 
L 172.469267 215.72487 
L 172.895845 216.026247 
L 173.109134 217.322165 
L 173.322423 212.756314 
L 173.535713 217.307096 
L 173.749002 212.620694 
L 173.962291 217.216683 
L 174.17558 215.694733 
L 174.388869 211.701497 
L 174.602158 216.628999 
L 174.815448 217.442716 
L 175.028737 212.952208 
L 175.242026 215.60432 
L 175.455315 211.159019 
L 175.668604 218.241363 
L 175.881893 216.026247 
L 176.095183 217.201614 
L 176.308472 216.327623 
L 176.521761 214.639916 
L 176.73505 214.83581 
L 176.948339 216.312554 
L 177.161628 215.2276 
L 177.588207 223.394898 
L 177.801496 215.378288 
L 178.014785 217.533128 
L 178.228074 214.639916 
L 178.441363 214.941292 
L 178.654653 213.841268 
L 178.867942 216.915307 
L 179.081231 212.575488 
L 179.29452 214.278264 
L 179.507809 214.474159 
L 179.721098 219.431799 
L 179.934388 214.052232 
L 180.147677 216.101591 
L 180.360966 213.976888 
L 180.574255 217.050926 
L 180.787544 218.301638 
L 181.000833 210.932987 
L 181.214123 212.063148 
L 181.427412 216.222141 
L 181.640701 210.601473 
L 182.067279 215.483769 
L 182.280568 213.223447 
L 182.493858 213.464548 
L 182.707147 212.876864 
L 182.920436 212.952208 
L 183.133725 213.328929 
L 183.347014 215.122118 
L 183.560303 215.785146 
L 183.773592 214.609778 
L 183.986882 215.950903 
L 184.200171 212.304249 
L 184.41346 213.901544 
L 184.626749 218.166019 
L 184.840038 210.902849 
L 185.053327 212.726176 
L 185.266617 218.557808 
L 185.479906 215.302944 
L 185.693195 216.809825 
L 186.333062 210.827505 
L 186.546352 219.612625 
L 186.759641 218.618083 
L 187.186219 209.049385 
L 187.399508 217.156408 
L 187.612797 218.226294 
L 187.826087 214.413883 
L 188.039376 216.252279 
L 188.252665 215.709802 
L 188.465954 221.044163 
L 188.679243 209.968583 
L 188.892532 217.050926 
L 189.105822 214.428952 
L 189.5324 217.020789 
L 189.745689 212.349456 
L 190.172267 217.578335 
L 190.385557 216.146797 
L 190.598846 209.953514 
L 190.812135 215.709802 
L 191.025424 216.975582 
L 191.238713 213.705649 
L 191.452002 220.109896 
L 191.665292 212.017942 
L 191.878581 220.577029 
L 192.305159 216.644068 
L 192.518448 218.135881 
L 192.731737 218.753702 
L 192.945027 209.260348 
L 193.158316 211.942598 
L 193.371605 219.311249 
L 193.798183 215.528976 
L 194.011472 213.811131 
L 194.224761 213.57003 
L 194.438051 219.341386 
L 194.864629 210.963125 
L 195.077918 218.105743 
L 195.291207 217.38244 
L 195.504496 212.017942 
L 195.931075 215.197462 
L 196.144364 212.123423 
L 196.357653 216.613931 
L 196.570942 211.385051 
L 196.784231 214.564572 
L 196.997521 213.43441 
L 197.21081 215.589251 
L 197.424099 213.916613 
L 197.637388 214.067301 
L 197.850677 208.084981 
L 198.063966 217.864642 
L 198.277256 212.138492 
L 198.490545 212.108355 
L 198.917123 215.182393 
L 199.130412 214.067301 
L 199.556991 218.979735 
L 199.77028 214.881017 
L 199.983569 214.127576 
L 200.196858 209.591862 
L 200.410147 214.519365 
L 200.623436 213.645374 
L 200.836726 216.945445 
L 201.263304 211.806978 
L 201.689882 212.846727 
L 201.903171 214.956361 
L 202.116461 211.189157 
L 202.32975 214.745397 
L 202.543039 214.172782 
L 202.756328 212.560419 
L 202.969617 209.034316 
L 203.396196 211.550808 
L 203.609485 216.734481 
L 203.822774 211.867254 
L 204.036063 220.652373 
L 204.249352 211.882322 
L 204.462641 212.017942 
L 204.675931 217.729023 
L 205.102509 211.490533 
L 205.529087 219.868795 
L 205.742376 211.068606 
L 206.168955 218.723565 
L 206.382244 209.36583 
L 206.595533 212.861795 
L 206.808822 209.757619 
L 207.022111 214.097438 
L 207.2354 211.113813 
L 207.44869 220.546892 
L 207.661979 214.052232 
L 207.875268 213.374135 
L 208.088557 216.23721 
L 208.515135 212.741245 
L 208.728425 207.753467 
L 208.941714 216.387898 
L 209.155003 210.857643 
L 209.368292 217.171477 
L 209.581581 212.28918 
L 209.79487 212.620694 
L 210.00816 214.609778 
L 210.221449 211.430258 
L 210.434738 215.965972 
L 210.648027 211.324776 
L 210.861316 215.242668 
L 211.074605 210.179546 
L 211.501184 216.809825 
L 211.714473 212.54535 
L 211.927762 214.609778 
L 212.35434 214.639916 
L 212.56763 208.838422 
L 212.780919 216.613931 
L 212.994208 214.248127 
L 213.420786 216.207073 
L 213.634075 212.228905 
L 213.847365 214.187851 
L 214.060654 218.467395 
L 214.273943 211.234363 
L 214.487232 208.356219 
L 214.700521 217.487922 
L 214.91381 214.067301 
L 215.1271 208.416495 
L 215.340389 210.345303 
L 215.553678 211.083675 
L 215.766967 218.919459 
L 216.193545 215.528976 
L 216.620124 211.776841 
L 216.833413 211.460396 
L 217.046702 212.515213 
L 217.259991 215.528976 
L 217.47328 208.687733 
L 217.686569 214.368677 
L 217.899859 216.252279 
L 218.113148 212.967277 
L 218.326437 216.598862 
L 218.539726 213.223447 
L 218.753015 214.067301 
L 219.392883 218.090675 
L 219.606172 214.790604 
L 219.819461 217.955055 
L 220.03275 217.834505 
L 220.246039 213.133034 
L 220.459329 213.57003 
L 220.672618 216.975582 
L 220.885907 214.896086 
L 221.099196 211.445327 
L 221.312485 220.381135 
L 221.525774 216.794756 
L 221.739064 217.322165 
L 221.952353 211.596015 
L 222.165642 214.911154 
L 222.378931 211.40012 
L 222.59222 218.693427 
L 222.805509 209.606931 
L 223.018799 216.900238 
L 223.232088 214.549503 
L 223.445377 208.883628 
L 223.658666 210.104202 
L 223.871955 213.976888 
L 224.085244 214.489228 
L 224.298534 217.653679 
L 224.511823 215.031705 
L 224.725112 214.97143 
L 224.938401 216.418036 
L 225.15169 208.748009 
L 225.364979 215.830352 
L 225.578269 214.112507 
L 225.791558 208.612389 
L 226.004847 214.037163 
L 226.218136 213.600167 
L 226.431425 214.865948 
L 226.644714 214.172782 
L 226.858004 218.000262 
L 227.071293 215.182393 
L 227.284582 220.155102 
L 227.497871 208.401426 
L 227.71116 215.333081 
L 227.924449 207.527435 
L 228.137739 210.887781 
L 228.351028 217.563266 
L 228.564317 213.765924 
L 228.777606 212.786451 
L 228.990895 216.553655 
L 229.204184 214.428952 
L 229.417473 215.513907 
L 229.630763 212.696038 
L 229.844052 217.744092 
L 230.057341 212.922071 
L 230.27063 215.815283 
L 230.483919 216.086522 
L 230.697208 217.00572 
L 231.123787 207.406884 
L 231.337076 213.615236 
L 231.763654 217.156408 
L 232.190233 210.13434 
L 232.403522 212.786451 
L 232.616811 218.135881 
L 232.8301 211.40012 
L 233.256678 217.698885 
L 233.469968 213.343998 
L 233.683257 215.845421 
L 233.896546 210.76723 
L 234.323124 216.824894 
L 234.536413 216.146797 
L 234.749703 209.787757 
L 235.176281 213.901544 
L 235.38957 209.953514 
L 235.602859 213.961819 
L 235.816148 213.554961 
L 236.029438 212.846727 
L 236.242727 213.178241 
L 236.669305 216.824894 
L 236.882594 217.141339 
L 237.095883 214.504296 
L 237.522462 217.683817 
L 237.94904 211.580946 
L 238.162329 207.904155 
L 238.375618 217.487922 
L 238.588908 217.879711 
L 238.802197 212.560419 
L 239.015486 211.324776 
L 239.228775 208.506908 
L 239.442064 214.157714 
L 239.868642 211.249432 
L 240.081932 210.269959 
L 240.295221 211.008331 
L 240.50851 216.659137 
L 240.721799 216.146797 
L 240.935088 219.582487 
L 241.148377 213.660443 
L 241.574956 215.423494 
L 242.001534 211.942598 
L 242.214823 215.574182 
L 242.428112 217.171477 
L 242.641402 215.920765 
L 242.854691 211.159019 
L 243.281269 215.559114 
L 243.494558 212.54535 
L 243.707847 213.133034 
L 243.921137 211.309707 
L 244.134426 207.889086 
L 244.347715 217.171477 
L 244.561004 210.420647 
L 244.774293 210.857643 
L 244.987582 215.09198 
L 245.200872 211.957667 
L 245.414161 212.108355 
L 245.62745 217.367371 
L 245.840739 209.305555 
L 246.054028 215.60432 
L 246.267317 216.478311 
L 246.480607 209.622 
L 246.693896 211.942598 
L 246.907185 211.294639 
L 247.120474 213.976888 
L 247.333763 220.049621 
L 247.547052 212.4248 
L 247.760342 210.812436 
L 247.973631 211.79191 
L 248.18692 215.031705 
L 248.400209 215.408425 
L 248.826787 213.087828 
L 249.040077 215.890627 
L 249.253366 214.654985 
L 249.466655 206.126035 
L 249.679944 215.016636 
L 249.893233 218.105743 
L 250.106522 215.86049 
L 250.319812 210.300097 
L 250.74639 221.692122 
L 250.959679 215.513907 
L 251.172968 213.042621 
L 251.386257 215.619389 
L 251.599546 213.374135 
L 251.812836 214.037163 
L 252.026125 217.322165 
L 252.239414 217.111202 
L 252.452703 216.433105 
L 252.665992 216.252279 
L 252.879281 210.963125 
L 253.092571 215.830352 
L 253.30586 217.035857 
L 253.519149 217.472853 
L 253.732438 219.597556 
L 254.159016 211.550808 
L 254.372306 216.478311 
L 254.798884 211.219295 
L 255.012173 209.848032 
L 255.225462 216.282417 
L 255.438751 215.920765 
L 255.652041 211.128882 
L 255.86533 219.92907 
L 256.078619 208.702802 
L 256.291908 215.287875 
L 256.505197 209.260348 
L 256.718486 213.012484 
L 256.931776 212.756314 
L 257.145065 213.238516 
L 257.358354 208.160325 
L 257.571643 206.171241 
L 257.998221 216.523518 
L 258.211511 216.207073 
L 258.4248 218.708496 
L 258.638089 208.009637 
L 258.851378 209.124729 
L 259.064667 214.067301 
L 259.277956 212.470006 
L 259.704535 216.207073 
L 259.917824 209.652138 
L 260.131113 218.904391 
L 260.344402 211.837116 
L 260.557691 213.012484 
L 260.770981 209.516518 
L 260.98427 217.020789 
L 261.197559 211.987804 
L 261.410848 213.148103 
L 261.624137 213.374135 
L 261.837426 211.897391 
L 262.050716 209.320624 
L 262.264005 213.780993 
L 262.477294 214.790604 
L 262.690583 217.849574 
L 263.33045 215.031705 
L 263.54374 217.849574 
L 263.757029 219.024941 
L 263.970318 214.022094 
L 264.396896 216.387898 
L 264.610185 212.033011 
L 264.823475 216.8701 
L 265.036764 211.671359 
L 265.676631 219.612625 
L 265.88992 217.412578 
L 266.10321 210.149409 
L 266.529788 216.74955 
L 266.743077 213.253585 
L 267.169655 218.346844 
L 267.382945 213.374135 
L 267.596234 215.739939 
L 267.809523 216.056384 
L 268.022812 214.097438 
L 268.236101 213.720718 
L 268.44939 219.627694 
L 268.66268 215.965972 
L 268.875969 218.497533 
L 269.089258 212.063148 
L 269.302547 216.176935 
L 269.515836 215.559114 
L 269.729125 216.192004 
L 269.942415 211.490533 
L 270.155704 212.650832 
L 270.368993 215.72487 
L 270.582282 214.08237 
L 270.795571 215.453632 
L 271.00886 215.076911 
L 271.22215 215.137187 
L 271.435439 212.033011 
L 271.648728 217.774229 
L 272.075306 208.054843 
L 272.501885 217.593404 
L 272.715174 213.027552 
L 272.928463 216.839963 
L 273.141752 214.534434 
L 273.355041 219.853726 
L 273.56833 214.278264 
L 273.994909 220.200309 
L 274.208198 213.796062 
L 274.421487 215.287875 
L 274.634776 208.612389 
L 274.848065 213.012484 
L 275.061354 211.611084 
L 275.274644 212.274112 
L 275.487933 209.817895 
L 276.1278 220.803061 
L 276.341089 215.318012 
L 276.554379 216.568724 
L 276.767668 216.252279 
L 276.980957 213.404273 
L 277.194246 216.794756 
L 277.407535 212.891933 
L 277.620824 214.248127 
L 277.834114 216.794756 
L 278.047403 212.861795 
L 278.260692 217.653679 
L 278.473981 214.187851 
L 278.68727 216.568724 
L 278.900559 214.248127 
L 279.113849 215.001567 
L 279.327138 214.609778 
L 279.540427 211.671359 
L 279.753716 219.703038 
L 279.967005 214.172782 
L 280.180294 213.389204 
L 280.393584 213.705649 
L 280.606873 219.190698 
L 281.033451 212.093286 
L 281.460029 212.500144 
L 281.673319 217.246821 
L 281.886608 216.161866 
L 282.099897 211.309707 
L 282.313186 214.067301 
L 282.526475 210.752161 
L 282.739764 217.744092 
L 282.953054 216.900238 
L 283.166343 214.338539 
L 283.379632 219.703038 
L 283.592921 213.585099 
L 283.80621 212.243974 
L 284.019499 208.446632 
L 284.446078 218.000262 
L 284.659367 212.334387 
L 284.872656 218.030399 
L 285.299234 212.620694 
L 285.512523 213.343998 
L 285.725813 217.487922 
L 285.939102 217.201614 
L 286.152391 209.983652 
L 286.578969 220.44141 
L 286.792258 214.127576 
L 287.005548 213.449479 
L 287.218837 210.932987 
L 287.432126 215.890627 
L 287.645415 212.228905 
L 287.858704 214.45909 
L 288.071993 210.39051 
L 288.285283 212.861795 
L 288.498572 212.002873 
L 288.92515 220.396203 
L 289.138439 220.456479 
L 289.565018 211.053538 
L 289.778307 213.735787 
L 289.991596 212.259043 
L 290.204885 217.533128 
L 290.418174 211.852185 
L 290.631463 211.038469 
L 290.844753 215.965972 
L 291.058042 213.042621 
L 291.271331 220.124965 
L 291.48462 209.772688 
L 291.697909 216.161866 
L 291.911198 217.487922 
L 292.124488 217.337234 
L 292.337777 210.812436 
L 292.551066 219.477006 
L 292.764355 209.697344 
L 293.190933 219.55235 
L 293.404223 211.776841 
L 293.617512 213.539892 
L 293.830801 218.994804 
L 294.04409 215.965972 
L 294.257379 219.371524 
L 294.470668 211.65629 
L 294.683958 215.619389 
L 294.897247 211.008331 
L 295.110536 214.172782 
L 295.323825 219.657831 
L 295.537114 219.04001 
L 295.750403 218.919459 
L 296.176982 214.20292 
L 296.390271 212.485075 
L 296.60356 211.701497 
L 296.816849 212.605626 
L 297.456717 220.908543 
L 297.670006 214.534434 
L 297.883295 214.067301 
L 298.096584 215.107049 
L 298.309873 213.675512 
L 298.523162 219.009872 
L 298.736452 218.768771 
L 298.949741 214.157714 
L 299.16303 215.920765 
L 299.376319 208.582252 
L 299.589608 215.363219 
L 299.802897 208.280875 
L 300.016187 216.011178 
L 300.229476 214.308402 
L 300.442765 215.800215 
L 300.656054 213.102897 
L 300.869343 218.813978 
L 301.082632 218.723565 
L 301.295922 212.967277 
L 301.509211 217.819436 
L 301.7225 212.93714 
L 301.935789 214.172782 
L 302.149078 216.086522 
L 302.788946 211.0234 
L 303.002235 215.800215 
L 303.215524 216.387898 
L 303.428813 214.353608 
L 303.642102 214.20292 
L 303.855392 213.253585 
L 304.068681 218.000262 
L 304.28197 214.624847 
L 304.495259 214.383746 
L 304.708548 216.478311 
L 305.135127 211.445327 
L 305.348416 214.383746 
L 305.561705 213.509755 
L 305.774994 213.735787 
L 305.988283 214.639916 
L 306.201572 217.955055 
L 306.414862 217.789298 
L 306.84144 212.907002 
L 307.054729 212.861795 
L 307.268018 211.731634 
L 307.481307 215.453632 
L 307.694596 214.383746 
L 307.907886 210.013789 
L 308.334464 220.079758 
L 308.547753 213.389204 
L 308.761042 216.523518 
L 308.974331 213.148103 
L 309.40091 219.597556 
L 309.614199 211.430258 
L 309.827488 215.34815 
L 310.040777 210.64668 
L 310.254066 217.231752 
L 310.467356 213.464548 
L 310.680645 212.771383 
L 310.893934 215.965972 
L 311.320512 215.920765 
L 311.533801 213.961819 
L 311.747091 221.767466 
L 311.96038 211.79191 
L 312.173669 211.927529 
L 312.386958 213.359066 
L 312.600247 213.901544 
L 312.813536 212.68097 
L 313.026826 215.60432 
L 313.240115 214.760466 
L 313.453404 210.51106 
L 313.666693 211.927529 
L 313.879982 219.597556 
L 314.306561 213.253585 
L 314.51985 215.09198 
L 314.733139 214.926223 
L 314.946428 211.927529 
L 315.159717 214.08237 
L 315.373006 219.070148 
L 315.586296 212.198768 
L 315.799585 211.294639 
L 316.012874 218.874253 
L 316.226163 213.389204 
L 316.439452 217.487922 
L 316.652741 215.739939 
L 316.866031 217.276959 
L 317.292609 208.054843 
L 317.505898 214.022094 
L 317.719187 215.137187 
L 317.932476 215.152255 
L 318.145766 213.976888 
L 318.359055 217.63861 
L 318.785633 211.189157 
L 318.998922 215.34815 
L 319.212211 212.28918 
L 319.4255 213.615236 
L 319.63879 213.871406 
L 319.852079 215.152255 
L 320.065368 218.090675 
L 320.278657 212.500144 
L 320.491946 210.39051 
L 320.705235 216.086522 
L 320.918525 215.920765 
L 321.131814 212.243974 
L 321.345103 212.620694 
L 321.558392 218.120812 
L 321.771681 212.078217 
L 321.98497 212.560419 
L 322.19826 219.371524 
L 322.411549 215.182393 
L 322.624838 214.142645 
L 322.838127 219.944139 
L 323.051416 212.259043 
L 323.477995 209.064454 
L 323.691284 218.015331 
L 323.904573 213.871406 
L 324.117862 215.755008 
L 324.331151 214.805673 
L 324.54444 212.605626 
L 324.75773 212.982346 
L 324.971019 217.412578 
L 325.397597 211.79191 
L 325.824175 216.885169 
L 326.037465 217.12627 
L 326.250754 210.631611 
L 326.677332 215.2276 
L 326.890621 213.449479 
L 327.10391 217.276959 
L 327.3172 214.45909 
L 327.530489 216.071453 
L 327.743778 209.983652 
L 327.957067 220.833199 
L 328.170356 214.700191 
L 328.383645 214.353608 
L 328.596935 213.042621 
L 328.810224 214.564572 
L 329.023513 221.556502 
L 329.236802 217.111202 
L 329.450091 216.824894 
L 329.66338 214.670053 
L 329.87667 219.989345 
L 330.303248 210.993262 
L 330.516537 217.337234 
L 330.729826 209.893239 
L 330.943115 210.526129 
L 331.156404 218.542739 
L 331.369694 209.380899 
L 331.582983 213.796062 
L 331.796272 211.14395 
L 332.009561 213.05769 
L 332.22285 220.938681 
L 332.649429 212.891933 
L 332.862718 216.915307 
L 333.076007 211.701497 
L 333.289296 215.709802 
L 333.715874 217.713954 
L 333.929164 213.645374 
L 334.142453 217.337234 
L 334.355742 216.312554 
L 334.78232 221.692122 
L 334.995609 213.102897 
L 335.208899 210.013789 
L 335.422188 217.081064 
L 335.635477 216.418036 
L 335.848766 216.824894 
L 336.062055 215.890627 
L 336.275344 220.094827 
L 336.488634 218.226294 
L 336.701923 213.359066 
L 336.915212 212.922071 
L 337.128501 220.350997 
L 337.34179 212.153561 
L 337.555079 216.930376 
L 337.768369 214.127576 
L 337.981658 215.694733 
L 338.194947 213.404273 
L 338.408236 218.768771 
L 338.621525 217.096133 
L 338.834814 212.213836 
L 339.048104 217.397509 
L 339.474682 216.719412 
L 339.90126 220.215378 
L 340.114549 213.43441 
L 340.327839 211.008331 
L 340.541128 217.668748 
L 340.754417 218.889322 
L 341.394284 211.611084 
L 341.607574 214.760466 
L 341.820863 213.57003 
L 342.034152 215.2276 
L 342.247441 212.54535 
L 342.46073 215.2276 
L 342.674019 213.524823 
L 342.887308 215.815283 
L 343.100598 214.654985 
L 343.313887 217.397509 
L 343.527176 210.676817 
L 343.740465 211.339845 
L 343.953754 216.101591 
L 344.380333 212.696038 
L 344.593622 217.804367 
L 344.806911 215.709802 
L 345.0202 216.900238 
L 345.233489 213.811131 
L 345.446778 220.155102 
L 345.660068 211.324776 
L 345.873357 210.737092 
L 346.086646 217.26189 
L 346.299935 216.418036 
L 346.513224 219.461937 
L 346.726513 216.448174 
L 347.153092 214.896086 
L 347.366381 216.900238 
L 347.57967 214.007025 
L 347.792959 219.371524 
L 348.006248 220.290722 
L 348.219538 217.89478 
L 348.432827 218.798909 
L 348.646116 214.248127 
L 348.859405 212.078217 
L 349.072694 217.171477 
L 349.285983 218.633152 
L 349.499273 215.302944 
L 349.712562 216.794756 
L 349.925851 215.559114 
L 350.13914 209.516518 
L 350.352429 211.430258 
L 350.565718 219.100285 
L 350.779008 217.442716 
L 350.992297 212.123423 
L 351.205586 214.474159 
L 351.418875 218.166019 
L 351.632164 216.945445 
L 351.845453 211.957667 
L 352.058743 213.8262 
L 352.272032 218.693427 
L 352.485321 211.91246 
L 352.69861 212.515213 
L 352.911899 219.205767 
L 353.125188 211.27957 
L 353.338477 216.704344 
L 353.551767 212.002873 
L 353.765056 212.861795 
L 353.978345 212.620694 
L 354.191634 217.292027 
L 354.404923 215.122118 
L 354.618212 222.867489 
L 355.044791 215.98104 
L 355.25808 208.491839 
L 355.471369 215.408425 
L 355.684658 214.45909 
L 355.897947 209.606931 
L 356.111237 208.280875 
L 356.324526 211.520671 
L 356.537815 217.412578 
L 356.751104 214.097438 
L 356.964393 213.796062 
L 357.177682 215.664595 
L 357.604261 209.908308 
L 357.81755 215.408425 
L 358.030839 216.418036 
L 358.244128 214.639916 
L 358.457417 215.528976 
L 358.670707 214.142645 
L 358.883996 216.674206 
L 359.097285 209.320624 
L 359.310574 207.256196 
L 359.523863 215.483769 
L 359.737152 209.923376 
L 359.950442 218.52767 
L 360.163731 213.072759 
L 360.37702 216.689275 
L 360.803598 213.163172 
L 361.230177 214.519365 
L 361.443466 221.58664 
L 361.656755 215.031705 
L 361.870044 217.502991 
L 362.296622 211.611084 
L 362.509912 214.670053 
L 362.723201 212.816589 
L 362.93649 217.276959 
L 363.149779 213.675512 
L 363.363068 215.755008 
L 363.363068 215.755008 
" style="fill:none;stroke:#1f77b4;stroke-linecap:square;stroke-width:1.5;"/>
   </g>
   <g id="patch_3">
    <path d="M 43.78125 239.758125 
L 43.78125 22.318125 
" style="fill:none;stroke:#000000;stroke-linecap:square;stroke-linejoin:miter;stroke-width:0.8;"/>
   </g>
   <g id="patch_4">
    <path d="M 378.58125 239.758125 
L 378.58125 22.318125 
" style="fill:none;stroke:#000000;stroke-linecap:square;stroke-linejoin:miter;stroke-width:0.8;"/>
   </g>
   <g id="patch_5">
    <path d="M 43.78125 239.758125 
L 378.58125 239.758125 
" style="fill:none;stroke:#000000;stroke-linecap:square;stroke-linejoin:miter;stroke-width:0.8;"/>
   </g>
   <g id="patch_6">
    <path d="M 43.78125 22.318125 
L 378.58125 22.318125 
" style="fill:none;stroke:#000000;stroke-linecap:square;stroke-linejoin:miter;stroke-width:0.8;"/>
   </g>
   <g id="text_18">
    <!-- FASTER RCNN 2 -->
    <defs>
     <path d="M 9.8125 72.90625 
L 51.703125 72.90625 
L 51.703125 64.59375 
L 19.671875 64.59375 
L 19.671875 43.109375 
L 48.578125 43.109375 
L 48.578125 34.8125 
L 19.671875 34.8125 
L 19.671875 0 
L 9.8125 0 
z
" id="DejaVuSans-70"/>
     <path d="M 44.390625 34.1875 
Q 47.5625 33.109375 50.5625 29.59375 
Q 53.5625 26.078125 56.59375 19.921875 
L 66.609375 0 
L 56 0 
L 46.6875 18.703125 
Q 43.0625 26.03125 39.671875 28.421875 
Q 36.28125 30.8125 30.421875 30.8125 
L 19.671875 30.8125 
L 19.671875 0 
L 9.8125 0 
L 9.8125 72.90625 
L 32.078125 72.90625 
Q 44.578125 72.90625 50.734375 67.671875 
Q 56.890625 62.453125 56.890625 51.90625 
Q 56.890625 45.015625 53.6875 40.46875 
Q 50.484375 35.9375 44.390625 34.1875 
z
M 19.671875 64.796875 
L 19.671875 38.921875 
L 32.078125 38.921875 
Q 39.203125 38.921875 42.84375 42.21875 
Q 46.484375 45.515625 46.484375 51.90625 
Q 46.484375 58.296875 42.84375 61.546875 
Q 39.203125 64.796875 32.078125 64.796875 
z
" id="DejaVuSans-82"/>
     <path d="M 9.8125 72.90625 
L 23.09375 72.90625 
L 55.421875 11.921875 
L 55.421875 72.90625 
L 64.984375 72.90625 
L 64.984375 0 
L 51.703125 0 
L 19.390625 60.984375 
L 19.390625 0 
L 9.8125 0 
z
" id="DejaVuSans-78"/>
    </defs>
    <g transform="translate(163.2375 16.318125)scale(0.12 -0.12)">
     <use xlink:href="#DejaVuSans-70"/>
     <use x="57.378906" xlink:href="#DejaVuSans-65"/>
     <use x="125.787109" xlink:href="#DejaVuSans-83"/>
     <use x="189.263672" xlink:href="#DejaVuSans-84"/>
     <use x="250.347656" xlink:href="#DejaVuSans-69"/>
     <use x="313.53125" xlink:href="#DejaVuSans-82"/>
     <use x="383.013672" xlink:href="#DejaVuSans-32"/>
     <use x="414.800781" xlink:href="#DejaVuSans-82"/>
     <use x="484.205078" xlink:href="#DejaVuSans-67"/>
     <use x="554.029297" xlink:href="#DejaVuSans-78"/>
     <use x="628.833984" xlink:href="#DejaVuSans-78"/>
     <use x="703.638672" xlink:href="#DejaVuSans-32"/>
     <use x="735.425781" xlink:href="#DejaVuSans-50"/>
    </g>
   </g>
  </g>
 </g>
 <defs>
  <clipPath id="pd2e44ec8ea">
   <rect height="217.44" width="334.8" x="43.78125" y="22.318125"/>
  </clipPath>
 </defs>
</svg>
