<?xml version="1.0" encoding="utf-8" standalone="no"?>
<!DOCTYPE svg PUBLIC "-//W3C//DTD SVG 1.1//EN"
  "http://www.w3.org/Graphics/SVG/1.1/DTD/svg11.dtd">
<!-- Created with matplotlib (https://matplotlib.org/) -->
<svg height="277.314375pt" version="1.1" viewBox="0 0 385.78125 277.314375" width="385.78125pt" xmlns="http://www.w3.org/2000/svg" xmlns:xlink="http://www.w3.org/1999/xlink">
 <defs>
  <style type="text/css">
*{stroke-linecap:butt;stroke-linejoin:round;}
  </style>
 </defs>
 <g id="figure_1">
  <g id="patch_1">
   <path d="M 0 277.314375 
L 385.78125 277.314375 
L 385.78125 0 
L 0 0 
z
" style="fill:none;"/>
  </g>
  <g id="axes_1">
   <g id="patch_2">
    <path d="M 43.78125 239.758125 
L 378.58125 239.758125 
L 378.58125 22.318125 
L 43.78125 22.318125 
z
" style="fill:#ffffff;"/>
   </g>
   <g id="matplotlib.axis_1">
    <g id="xtick_1">
     <g id="line2d_1">
      <defs>
       <path d="M 0 0 
L 0 3.5 
" id="m0533690e1d" style="stroke:#000000;stroke-width:0.8;"/>
      </defs>
      <g>
       <use style="stroke:#000000;stroke-width:0.8;" x="58.999432" xlink:href="#m0533690e1d" y="239.758125"/>
      </g>
     </g>
     <g id="text_1">
      <!-- 0 -->
      <defs>
       <path d="M 31.78125 66.40625 
Q 24.171875 66.40625 20.328125 58.90625 
Q 16.5 51.421875 16.5 36.375 
Q 16.5 21.390625 20.328125 13.890625 
Q 24.171875 6.390625 31.78125 6.390625 
Q 39.453125 6.390625 43.28125 13.890625 
Q 47.125 21.390625 47.125 36.375 
Q 47.125 51.421875 43.28125 58.90625 
Q 39.453125 66.40625 31.78125 66.40625 
z
M 31.78125 74.21875 
Q 44.046875 74.21875 50.515625 64.515625 
Q 56.984375 54.828125 56.984375 36.375 
Q 56.984375 17.96875 50.515625 8.265625 
Q 44.046875 -1.421875 31.78125 -1.421875 
Q 19.53125 -1.421875 13.0625 8.265625 
Q 6.59375 17.96875 6.59375 36.375 
Q 6.59375 54.828125 13.0625 64.515625 
Q 19.53125 74.21875 31.78125 74.21875 
z
" id="DejaVuSans-48"/>
      </defs>
      <g transform="translate(55.818182 254.356562)scale(0.1 -0.1)">
       <use xlink:href="#DejaVuSans-48"/>
      </g>
     </g>
    </g>
    <g id="xtick_2">
     <g id="line2d_2">
      <g>
       <use style="stroke:#000000;stroke-width:0.8;" x="105.325708" xlink:href="#m0533690e1d" y="239.758125"/>
      </g>
     </g>
     <g id="text_2">
      <!-- 200 -->
      <defs>
       <path d="M 19.1875 8.296875 
L 53.609375 8.296875 
L 53.609375 0 
L 7.328125 0 
L 7.328125 8.296875 
Q 12.9375 14.109375 22.625 23.890625 
Q 32.328125 33.6875 34.8125 36.53125 
Q 39.546875 41.84375 41.421875 45.53125 
Q 43.3125 49.21875 43.3125 52.78125 
Q 43.3125 58.59375 39.234375 62.25 
Q 35.15625 65.921875 28.609375 65.921875 
Q 23.96875 65.921875 18.8125 64.3125 
Q 13.671875 62.703125 7.8125 59.421875 
L 7.8125 69.390625 
Q 13.765625 71.78125 18.9375 73 
Q 24.125 74.21875 28.421875 74.21875 
Q 39.75 74.21875 46.484375 68.546875 
Q 53.21875 62.890625 53.21875 53.421875 
Q 53.21875 48.921875 51.53125 44.890625 
Q 49.859375 40.875 45.40625 35.40625 
Q 44.1875 33.984375 37.640625 27.21875 
Q 31.109375 20.453125 19.1875 8.296875 
z
" id="DejaVuSans-50"/>
      </defs>
      <g transform="translate(95.781958 254.356562)scale(0.1 -0.1)">
       <use xlink:href="#DejaVuSans-50"/>
       <use x="63.623047" xlink:href="#DejaVuSans-48"/>
       <use x="127.246094" xlink:href="#DejaVuSans-48"/>
      </g>
     </g>
    </g>
    <g id="xtick_3">
     <g id="line2d_3">
      <g>
       <use style="stroke:#000000;stroke-width:0.8;" x="151.651985" xlink:href="#m0533690e1d" y="239.758125"/>
      </g>
     </g>
     <g id="text_3">
      <!-- 400 -->
      <defs>
       <path d="M 37.796875 64.3125 
L 12.890625 25.390625 
L 37.796875 25.390625 
z
M 35.203125 72.90625 
L 47.609375 72.90625 
L 47.609375 25.390625 
L 58.015625 25.390625 
L 58.015625 17.1875 
L 47.609375 17.1875 
L 47.609375 0 
L 37.796875 0 
L 37.796875 17.1875 
L 4.890625 17.1875 
L 4.890625 26.703125 
z
" id="DejaVuSans-52"/>
      </defs>
      <g transform="translate(142.108235 254.356562)scale(0.1 -0.1)">
       <use xlink:href="#DejaVuSans-52"/>
       <use x="63.623047" xlink:href="#DejaVuSans-48"/>
       <use x="127.246094" xlink:href="#DejaVuSans-48"/>
      </g>
     </g>
    </g>
    <g id="xtick_4">
     <g id="line2d_4">
      <g>
       <use style="stroke:#000000;stroke-width:0.8;" x="197.978261" xlink:href="#m0533690e1d" y="239.758125"/>
      </g>
     </g>
     <g id="text_4">
      <!-- 600 -->
      <defs>
       <path d="M 33.015625 40.375 
Q 26.375 40.375 22.484375 35.828125 
Q 18.609375 31.296875 18.609375 23.390625 
Q 18.609375 15.53125 22.484375 10.953125 
Q 26.375 6.390625 33.015625 6.390625 
Q 39.65625 6.390625 43.53125 10.953125 
Q 47.40625 15.53125 47.40625 23.390625 
Q 47.40625 31.296875 43.53125 35.828125 
Q 39.65625 40.375 33.015625 40.375 
z
M 52.59375 71.296875 
L 52.59375 62.3125 
Q 48.875 64.0625 45.09375 64.984375 
Q 41.3125 65.921875 37.59375 65.921875 
Q 27.828125 65.921875 22.671875 59.328125 
Q 17.53125 52.734375 16.796875 39.40625 
Q 19.671875 43.65625 24.015625 45.921875 
Q 28.375 48.1875 33.59375 48.1875 
Q 44.578125 48.1875 50.953125 41.515625 
Q 57.328125 34.859375 57.328125 23.390625 
Q 57.328125 12.15625 50.6875 5.359375 
Q 44.046875 -1.421875 33.015625 -1.421875 
Q 20.359375 -1.421875 13.671875 8.265625 
Q 6.984375 17.96875 6.984375 36.375 
Q 6.984375 53.65625 15.1875 63.9375 
Q 23.390625 74.21875 37.203125 74.21875 
Q 40.921875 74.21875 44.703125 73.484375 
Q 48.484375 72.75 52.59375 71.296875 
z
" id="DejaVuSans-54"/>
      </defs>
      <g transform="translate(188.434511 254.356562)scale(0.1 -0.1)">
       <use xlink:href="#DejaVuSans-54"/>
       <use x="63.623047" xlink:href="#DejaVuSans-48"/>
       <use x="127.246094" xlink:href="#DejaVuSans-48"/>
      </g>
     </g>
    </g>
    <g id="xtick_5">
     <g id="line2d_5">
      <g>
       <use style="stroke:#000000;stroke-width:0.8;" x="244.304538" xlink:href="#m0533690e1d" y="239.758125"/>
      </g>
     </g>
     <g id="text_5">
      <!-- 800 -->
      <defs>
       <path d="M 31.78125 34.625 
Q 24.75 34.625 20.71875 30.859375 
Q 16.703125 27.09375 16.703125 20.515625 
Q 16.703125 13.921875 20.71875 10.15625 
Q 24.75 6.390625 31.78125 6.390625 
Q 38.8125 6.390625 42.859375 10.171875 
Q 46.921875 13.96875 46.921875 20.515625 
Q 46.921875 27.09375 42.890625 30.859375 
Q 38.875 34.625 31.78125 34.625 
z
M 21.921875 38.8125 
Q 15.578125 40.375 12.03125 44.71875 
Q 8.5 49.078125 8.5 55.328125 
Q 8.5 64.0625 14.71875 69.140625 
Q 20.953125 74.21875 31.78125 74.21875 
Q 42.671875 74.21875 48.875 69.140625 
Q 55.078125 64.0625 55.078125 55.328125 
Q 55.078125 49.078125 51.53125 44.71875 
Q 48 40.375 41.703125 38.8125 
Q 48.828125 37.15625 52.796875 32.3125 
Q 56.78125 27.484375 56.78125 20.515625 
Q 56.78125 9.90625 50.3125 4.234375 
Q 43.84375 -1.421875 31.78125 -1.421875 
Q 19.734375 -1.421875 13.25 4.234375 
Q 6.78125 9.90625 6.78125 20.515625 
Q 6.78125 27.484375 10.78125 32.3125 
Q 14.796875 37.15625 21.921875 38.8125 
z
M 18.3125 54.390625 
Q 18.3125 48.734375 21.84375 45.5625 
Q 25.390625 42.390625 31.78125 42.390625 
Q 38.140625 42.390625 41.71875 45.5625 
Q 45.3125 48.734375 45.3125 54.390625 
Q 45.3125 60.0625 41.71875 63.234375 
Q 38.140625 66.40625 31.78125 66.40625 
Q 25.390625 66.40625 21.84375 63.234375 
Q 18.3125 60.0625 18.3125 54.390625 
z
" id="DejaVuSans-56"/>
      </defs>
      <g transform="translate(234.760788 254.356562)scale(0.1 -0.1)">
       <use xlink:href="#DejaVuSans-56"/>
       <use x="63.623047" xlink:href="#DejaVuSans-48"/>
       <use x="127.246094" xlink:href="#DejaVuSans-48"/>
      </g>
     </g>
    </g>
    <g id="xtick_6">
     <g id="line2d_6">
      <g>
       <use style="stroke:#000000;stroke-width:0.8;" x="290.630814" xlink:href="#m0533690e1d" y="239.758125"/>
      </g>
     </g>
     <g id="text_6">
      <!-- 1000 -->
      <defs>
       <path d="M 12.40625 8.296875 
L 28.515625 8.296875 
L 28.515625 63.921875 
L 10.984375 60.40625 
L 10.984375 69.390625 
L 28.421875 72.90625 
L 38.28125 72.90625 
L 38.28125 8.296875 
L 54.390625 8.296875 
L 54.390625 0 
L 12.40625 0 
z
" id="DejaVuSans-49"/>
      </defs>
      <g transform="translate(277.905814 254.356562)scale(0.1 -0.1)">
       <use xlink:href="#DejaVuSans-49"/>
       <use x="63.623047" xlink:href="#DejaVuSans-48"/>
       <use x="127.246094" xlink:href="#DejaVuSans-48"/>
       <use x="190.869141" xlink:href="#DejaVuSans-48"/>
      </g>
     </g>
    </g>
    <g id="xtick_7">
     <g id="line2d_7">
      <g>
       <use style="stroke:#000000;stroke-width:0.8;" x="336.957091" xlink:href="#m0533690e1d" y="239.758125"/>
      </g>
     </g>
     <g id="text_7">
      <!-- 1200 -->
      <g transform="translate(324.232091 254.356562)scale(0.1 -0.1)">
       <use xlink:href="#DejaVuSans-49"/>
       <use x="63.623047" xlink:href="#DejaVuSans-50"/>
       <use x="127.246094" xlink:href="#DejaVuSans-48"/>
       <use x="190.869141" xlink:href="#DejaVuSans-48"/>
      </g>
     </g>
    </g>
    <g id="text_8">
     <!-- 50 BATCHES -->
     <defs>
      <path d="M 10.796875 72.90625 
L 49.515625 72.90625 
L 49.515625 64.59375 
L 19.828125 64.59375 
L 19.828125 46.734375 
Q 21.96875 47.46875 24.109375 47.828125 
Q 26.265625 48.1875 28.421875 48.1875 
Q 40.625 48.1875 47.75 41.5 
Q 54.890625 34.8125 54.890625 23.390625 
Q 54.890625 11.625 47.5625 5.09375 
Q 40.234375 -1.421875 26.90625 -1.421875 
Q 22.3125 -1.421875 17.546875 -0.640625 
Q 12.796875 0.140625 7.71875 1.703125 
L 7.71875 11.625 
Q 12.109375 9.234375 16.796875 8.0625 
Q 21.484375 6.890625 26.703125 6.890625 
Q 35.15625 6.890625 40.078125 11.328125 
Q 45.015625 15.765625 45.015625 23.390625 
Q 45.015625 31 40.078125 35.4375 
Q 35.15625 39.890625 26.703125 39.890625 
Q 22.75 39.890625 18.8125 39.015625 
Q 14.890625 38.140625 10.796875 36.28125 
z
" id="DejaVuSans-53"/>
      <path id="DejaVuSans-32"/>
      <path d="M 19.671875 34.8125 
L 19.671875 8.109375 
L 35.5 8.109375 
Q 43.453125 8.109375 47.28125 11.40625 
Q 51.125 14.703125 51.125 21.484375 
Q 51.125 28.328125 47.28125 31.5625 
Q 43.453125 34.8125 35.5 34.8125 
z
M 19.671875 64.796875 
L 19.671875 42.828125 
L 34.28125 42.828125 
Q 41.5 42.828125 45.03125 45.53125 
Q 48.578125 48.25 48.578125 53.8125 
Q 48.578125 59.328125 45.03125 62.0625 
Q 41.5 64.796875 34.28125 64.796875 
z
M 9.8125 72.90625 
L 35.015625 72.90625 
Q 46.296875 72.90625 52.390625 68.21875 
Q 58.5 63.53125 58.5 54.890625 
Q 58.5 48.1875 55.375 44.234375 
Q 52.25 40.28125 46.1875 39.3125 
Q 53.46875 37.75 57.5 32.78125 
Q 61.53125 27.828125 61.53125 20.40625 
Q 61.53125 10.640625 54.890625 5.3125 
Q 48.25 0 35.984375 0 
L 9.8125 0 
z
" id="DejaVuSans-66"/>
      <path d="M 34.1875 63.1875 
L 20.796875 26.90625 
L 47.609375 26.90625 
z
M 28.609375 72.90625 
L 39.796875 72.90625 
L 67.578125 0 
L 57.328125 0 
L 50.6875 18.703125 
L 17.828125 18.703125 
L 11.1875 0 
L 0.78125 0 
z
" id="DejaVuSans-65"/>
      <path d="M -0.296875 72.90625 
L 61.375 72.90625 
L 61.375 64.59375 
L 35.5 64.59375 
L 35.5 0 
L 25.59375 0 
L 25.59375 64.59375 
L -0.296875 64.59375 
z
" id="DejaVuSans-84"/>
      <path d="M 64.40625 67.28125 
L 64.40625 56.890625 
Q 59.421875 61.53125 53.78125 63.8125 
Q 48.140625 66.109375 41.796875 66.109375 
Q 29.296875 66.109375 22.65625 58.46875 
Q 16.015625 50.828125 16.015625 36.375 
Q 16.015625 21.96875 22.65625 14.328125 
Q 29.296875 6.6875 41.796875 6.6875 
Q 48.140625 6.6875 53.78125 8.984375 
Q 59.421875 11.28125 64.40625 15.921875 
L 64.40625 5.609375 
Q 59.234375 2.09375 53.4375 0.328125 
Q 47.65625 -1.421875 41.21875 -1.421875 
Q 24.65625 -1.421875 15.125 8.703125 
Q 5.609375 18.84375 5.609375 36.375 
Q 5.609375 53.953125 15.125 64.078125 
Q 24.65625 74.21875 41.21875 74.21875 
Q 47.75 74.21875 53.53125 72.484375 
Q 59.328125 70.75 64.40625 67.28125 
z
" id="DejaVuSans-67"/>
      <path d="M 9.8125 72.90625 
L 19.671875 72.90625 
L 19.671875 43.015625 
L 55.515625 43.015625 
L 55.515625 72.90625 
L 65.375 72.90625 
L 65.375 0 
L 55.515625 0 
L 55.515625 34.71875 
L 19.671875 34.71875 
L 19.671875 0 
L 9.8125 0 
z
" id="DejaVuSans-72"/>
      <path d="M 9.8125 72.90625 
L 55.90625 72.90625 
L 55.90625 64.59375 
L 19.671875 64.59375 
L 19.671875 43.015625 
L 54.390625 43.015625 
L 54.390625 34.71875 
L 19.671875 34.71875 
L 19.671875 8.296875 
L 56.78125 8.296875 
L 56.78125 0 
L 9.8125 0 
z
" id="DejaVuSans-69"/>
      <path d="M 53.515625 70.515625 
L 53.515625 60.890625 
Q 47.90625 63.578125 42.921875 64.890625 
Q 37.9375 66.21875 33.296875 66.21875 
Q 25.25 66.21875 20.875 63.09375 
Q 16.5 59.96875 16.5 54.203125 
Q 16.5 49.359375 19.40625 46.890625 
Q 22.3125 44.4375 30.421875 42.921875 
L 36.375 41.703125 
Q 47.40625 39.59375 52.65625 34.296875 
Q 57.90625 29 57.90625 20.125 
Q 57.90625 9.515625 50.796875 4.046875 
Q 43.703125 -1.421875 29.984375 -1.421875 
Q 24.8125 -1.421875 18.96875 -0.25 
Q 13.140625 0.921875 6.890625 3.21875 
L 6.890625 13.375 
Q 12.890625 10.015625 18.65625 8.296875 
Q 24.421875 6.59375 29.984375 6.59375 
Q 38.421875 6.59375 43.015625 9.90625 
Q 47.609375 13.234375 47.609375 19.390625 
Q 47.609375 24.75 44.3125 27.78125 
Q 41.015625 30.8125 33.5 32.328125 
L 27.484375 33.5 
Q 16.453125 35.6875 11.515625 40.375 
Q 6.59375 45.0625 6.59375 53.421875 
Q 6.59375 63.09375 13.40625 68.65625 
Q 20.21875 74.21875 32.171875 74.21875 
Q 37.3125 74.21875 42.625 73.28125 
Q 47.953125 72.359375 53.515625 70.515625 
z
" id="DejaVuSans-83"/>
     </defs>
     <g transform="translate(179.749219 268.034687)scale(0.1 -0.1)">
      <use xlink:href="#DejaVuSans-53"/>
      <use x="63.623047" xlink:href="#DejaVuSans-48"/>
      <use x="127.246094" xlink:href="#DejaVuSans-32"/>
      <use x="159.033203" xlink:href="#DejaVuSans-66"/>
      <use x="227.636719" xlink:href="#DejaVuSans-65"/>
      <use x="295.935547" xlink:href="#DejaVuSans-84"/>
      <use x="356.941406" xlink:href="#DejaVuSans-67"/>
      <use x="426.765625" xlink:href="#DejaVuSans-72"/>
      <use x="501.960938" xlink:href="#DejaVuSans-69"/>
      <use x="565.144531" xlink:href="#DejaVuSans-83"/>
     </g>
    </g>
   </g>
   <g id="matplotlib.axis_2">
    <g id="ytick_1">
     <g id="line2d_8">
      <defs>
       <path d="M 0 0 
L -3.5 0 
" id="mbf6a197c3a" style="stroke:#000000;stroke-width:0.8;"/>
      </defs>
      <g>
       <use style="stroke:#000000;stroke-width:0.8;" x="43.78125" xlink:href="#mbf6a197c3a" y="239.289581"/>
      </g>
     </g>
     <g id="text_9">
      <!-- 0.4 -->
      <defs>
       <path d="M 10.6875 12.40625 
L 21 12.40625 
L 21 0 
L 10.6875 0 
z
" id="DejaVuSans-46"/>
      </defs>
      <g transform="translate(20.878125 243.088799)scale(0.1 -0.1)">
       <use xlink:href="#DejaVuSans-48"/>
       <use x="63.623047" xlink:href="#DejaVuSans-46"/>
       <use x="95.410156" xlink:href="#DejaVuSans-52"/>
      </g>
     </g>
    </g>
    <g id="ytick_2">
     <g id="line2d_9">
      <g>
       <use style="stroke:#000000;stroke-width:0.8;" x="43.78125" xlink:href="#mbf6a197c3a" y="209.821374"/>
      </g>
     </g>
     <g id="text_10">
      <!-- 0.6 -->
      <g transform="translate(20.878125 213.620593)scale(0.1 -0.1)">
       <use xlink:href="#DejaVuSans-48"/>
       <use x="63.623047" xlink:href="#DejaVuSans-46"/>
       <use x="95.410156" xlink:href="#DejaVuSans-54"/>
      </g>
     </g>
    </g>
    <g id="ytick_3">
     <g id="line2d_10">
      <g>
       <use style="stroke:#000000;stroke-width:0.8;" x="43.78125" xlink:href="#mbf6a197c3a" y="180.353168"/>
      </g>
     </g>
     <g id="text_11">
      <!-- 0.8 -->
      <g transform="translate(20.878125 184.152387)scale(0.1 -0.1)">
       <use xlink:href="#DejaVuSans-48"/>
       <use x="63.623047" xlink:href="#DejaVuSans-46"/>
       <use x="95.410156" xlink:href="#DejaVuSans-56"/>
      </g>
     </g>
    </g>
    <g id="ytick_4">
     <g id="line2d_11">
      <g>
       <use style="stroke:#000000;stroke-width:0.8;" x="43.78125" xlink:href="#mbf6a197c3a" y="150.884962"/>
      </g>
     </g>
     <g id="text_12">
      <!-- 1.0 -->
      <g transform="translate(20.878125 154.684181)scale(0.1 -0.1)">
       <use xlink:href="#DejaVuSans-49"/>
       <use x="63.623047" xlink:href="#DejaVuSans-46"/>
       <use x="95.410156" xlink:href="#DejaVuSans-48"/>
      </g>
     </g>
    </g>
    <g id="ytick_5">
     <g id="line2d_12">
      <g>
       <use style="stroke:#000000;stroke-width:0.8;" x="43.78125" xlink:href="#mbf6a197c3a" y="121.416756"/>
      </g>
     </g>
     <g id="text_13">
      <!-- 1.2 -->
      <g transform="translate(20.878125 125.215974)scale(0.1 -0.1)">
       <use xlink:href="#DejaVuSans-49"/>
       <use x="63.623047" xlink:href="#DejaVuSans-46"/>
       <use x="95.410156" xlink:href="#DejaVuSans-50"/>
      </g>
     </g>
    </g>
    <g id="ytick_6">
     <g id="line2d_13">
      <g>
       <use style="stroke:#000000;stroke-width:0.8;" x="43.78125" xlink:href="#mbf6a197c3a" y="91.948549"/>
      </g>
     </g>
     <g id="text_14">
      <!-- 1.4 -->
      <g transform="translate(20.878125 95.747768)scale(0.1 -0.1)">
       <use xlink:href="#DejaVuSans-49"/>
       <use x="63.623047" xlink:href="#DejaVuSans-46"/>
       <use x="95.410156" xlink:href="#DejaVuSans-52"/>
      </g>
     </g>
    </g>
    <g id="ytick_7">
     <g id="line2d_14">
      <g>
       <use style="stroke:#000000;stroke-width:0.8;" x="43.78125" xlink:href="#mbf6a197c3a" y="62.480343"/>
      </g>
     </g>
     <g id="text_15">
      <!-- 1.6 -->
      <g transform="translate(20.878125 66.279562)scale(0.1 -0.1)">
       <use xlink:href="#DejaVuSans-49"/>
       <use x="63.623047" xlink:href="#DejaVuSans-46"/>
       <use x="95.410156" xlink:href="#DejaVuSans-54"/>
      </g>
     </g>
    </g>
    <g id="ytick_8">
     <g id="line2d_15">
      <g>
       <use style="stroke:#000000;stroke-width:0.8;" x="43.78125" xlink:href="#mbf6a197c3a" y="33.012137"/>
      </g>
     </g>
     <g id="text_16">
      <!-- 1.8 -->
      <g transform="translate(20.878125 36.811356)scale(0.1 -0.1)">
       <use xlink:href="#DejaVuSans-49"/>
       <use x="63.623047" xlink:href="#DejaVuSans-46"/>
       <use x="95.410156" xlink:href="#DejaVuSans-56"/>
      </g>
     </g>
    </g>
    <g id="text_17">
     <!-- LOSS -->
     <defs>
      <path d="M 9.8125 72.90625 
L 19.671875 72.90625 
L 19.671875 8.296875 
L 55.171875 8.296875 
L 55.171875 0 
L 9.8125 0 
z
" id="DejaVuSans-76"/>
      <path d="M 39.40625 66.21875 
Q 28.65625 66.21875 22.328125 58.203125 
Q 16.015625 50.203125 16.015625 36.375 
Q 16.015625 22.609375 22.328125 14.59375 
Q 28.65625 6.59375 39.40625 6.59375 
Q 50.140625 6.59375 56.421875 14.59375 
Q 62.703125 22.609375 62.703125 36.375 
Q 62.703125 50.203125 56.421875 58.203125 
Q 50.140625 66.21875 39.40625 66.21875 
z
M 39.40625 74.21875 
Q 54.734375 74.21875 63.90625 63.9375 
Q 73.09375 53.65625 73.09375 36.375 
Q 73.09375 19.140625 63.90625 8.859375 
Q 54.734375 -1.421875 39.40625 -1.421875 
Q 24.03125 -1.421875 14.8125 8.828125 
Q 5.609375 19.09375 5.609375 36.375 
Q 5.609375 53.65625 14.8125 63.9375 
Q 24.03125 74.21875 39.40625 74.21875 
z
" id="DejaVuSans-79"/>
     </defs>
     <g transform="translate(14.798438 144.106094)rotate(-90)scale(0.1 -0.1)">
      <use xlink:href="#DejaVuSans-76"/>
      <use x="55.666016" xlink:href="#DejaVuSans-79"/>
      <use x="134.376953" xlink:href="#DejaVuSans-83"/>
      <use x="197.853516" xlink:href="#DejaVuSans-83"/>
     </g>
    </g>
   </g>
   <g id="line2d_16">
    <path clip-path="url(#pa546455b75)" d="M 58.999432 33.247883 
L 59.231063 33.174212 
L 59.462695 32.245964 
L 59.694326 32.201761 
L 60.157589 33.395224 
L 60.38922 32.511178 
L 60.620851 32.908998 
L 60.852483 32.864796 
L 61.084114 32.62905 
L 61.315746 33.557299 
L 61.547377 33.675172 
L 61.779008 32.540646 
L 62.01064 34.161397 
L 62.242271 33.601501 
L 62.473903 33.896183 
L 62.705534 34.750761 
L 62.937165 33.336287 
L 63.168797 34.52975 
L 63.400428 35.015975 
L 63.632059 35.133848 
L 63.863691 34.072992 
L 64.326954 35.605339 
L 64.558585 35.074911 
L 64.790216 36.150501 
L 65.021848 36.165235 
L 65.485111 34.60342 
L 65.716742 35.089646 
L 65.948373 36.607258 
L 66.180005 35.472732 
L 66.643267 37.668114 
L 66.874899 37.358697 
L 67.10653 37.785986 
L 67.338162 37.933327 
L 67.569793 38.817374 
L 67.801424 39.229929 
L 68.033056 39.12679 
L 68.264687 40.555998 
L 68.496318 40.02557 
L 68.72795 40.511796 
L 68.959581 41.837865 
L 69.191213 41.572651 
L 69.422844 42.589304 
L 69.654475 42.707177 
L 70.117738 44.445801 
L 70.34937 43.782766 
L 70.581001 46.066552 
L 70.812632 45.300379 
L 71.044264 47.834645 
L 71.275895 46.331766 
L 71.507526 49.823749 
L 71.739158 48.718691 
L 71.970789 51.503436 
L 72.202421 50.000558 
L 72.434052 52.903176 
L 72.665683 57.618089 
L 72.897315 59.931343 
L 73.592209 78.334238 
L 73.82384 81.973562 
L 74.287103 96.575058 
L 74.518734 99.109324 
L 74.750366 105.341849 
L 74.981997 106.446907 
L 75.213629 105.710202 
L 75.908523 114.683271 
L 76.371785 113.121456 
L 76.603417 116.304022 
L 76.835048 110.955542 
L 77.06668 116.08301 
L 77.529942 120.797923 
L 77.761574 119.501322 
L 77.993205 126.426351 
L 78.224837 116.952322 
L 78.688099 127.899761 
L 78.919731 124.113097 
L 79.151362 125.689646 
L 79.382993 128.798541 
L 79.614625 128.017634 
L 79.846256 126.617894 
L 80.077888 131.273871 
L 80.309519 130.94972 
L 80.54115 122.875432 
L 80.772782 140.57109 
L 81.004413 137.300119 
L 81.236045 138.081026 
L 81.467676 136.681286 
L 81.699307 137.44746 
L 81.930939 131.332807 
L 82.16257 137.69794 
L 82.625833 138.478847 
L 82.857464 139.863853 
L 83.089096 141.956095 
L 83.320727 138.758795 
L 83.552358 137.933685 
L 83.78399 142.722269 
L 84.015621 142.913812 
L 84.247252 136.87283 
L 84.710515 147.348777 
L 84.942147 148.586442 
L 85.173778 141.882425 
L 85.405409 141.705616 
L 85.637041 148.04128 
L 85.868672 150.84076 
L 86.100304 139.908055 
L 86.563566 155.717748 
L 86.795198 153.330823 
L 87.026829 153.654973 
L 87.25846 146.007974 
L 87.490092 149.809372 
L 87.721723 155.555673 
L 87.953355 149.76517 
L 88.184986 149.750436 
L 88.416617 145.81643 
L 88.648249 158.31095 
L 88.87988 149.912511 
L 89.111512 150.207193 
L 89.343143 145.300737 
L 89.574774 150.162991 
L 89.806406 150.295598 
L 90.038037 150.899696 
L 90.269668 149.941979 
L 90.5013 158.56143 
L 90.732931 160.388458 
L 90.964563 156.248175 
L 91.196194 160.830481 
L 91.427825 157.530042 
L 91.659457 160.447395 
L 91.891088 166.974602 
L 92.354351 157.382701 
L 92.585982 155.496736 
L 92.817614 163.453152 
L 93.049245 157.927863 
L 93.280876 159.430742 
L 93.512508 152.697257 
L 93.744139 158.811909 
L 94.207402 157.367967 
L 94.670665 161.243036 
L 94.902296 167.681839 
L 95.365559 162.038678 
L 95.828822 163.703632 
L 96.060453 157.647915 
L 96.292084 158.502493 
L 96.523716 156.0861 
L 96.755347 164.322464 
L 96.986979 165.177042 
L 97.21861 166.517845 
L 97.450241 159.003453 
L 97.681873 163.703632 
L 97.913504 162.554372 
L 98.145135 160.668406 
L 98.376767 165.943215 
L 98.608398 164.396134 
L 98.84003 159.357071 
L 99.071661 167.534498 
L 99.303292 162.569106 
L 99.534924 160.020106 
L 99.766555 160.314788 
L 99.998186 169.346793 
L 100.229818 165.913747 
L 100.461449 165.678001 
L 100.693081 169.759348 
L 100.924712 167.43136 
L 101.156343 167.917585 
L 101.387975 161.228302 
L 101.619606 167.033539 
L 102.082869 171.439036 
L 102.3145 165.574863 
L 102.546132 169.435198 
L 102.777763 165.766406 
L 103.009394 172.912446 
L 103.472657 160.697875 
L 103.704289 163.880441 
L 103.93592 162.539637 
L 104.167551 171.394833 
L 104.399183 166.016886 
L 104.630814 171.335897 
L 105.094077 165.589597 
L 105.325708 165.899013 
L 105.55734 164.499273 
L 105.788971 173.398671 
L 106.020602 166.444175 
L 106.252234 167.799712 
L 106.483865 171.041215 
L 106.947128 160.918886 
L 107.178759 169.125782 
L 107.410391 166.046354 
L 107.642022 169.788816 
L 108.105285 169.184718 
L 108.336916 175.756128 
L 108.568548 175.932937 
L 108.800179 170.127701 
L 109.03181 177.951509 
L 109.263442 170.967544 
L 109.495073 178.481937 
L 109.726705 171.895793 
L 109.958336 173.560747 
L 110.189967 176.065544 
L 110.421599 169.494134 
L 110.65323 168.713227 
L 110.884861 179.218642 
L 111.116493 172.617764 
L 111.348124 180.559446 
L 111.579756 171.055949 
L 111.811387 177.715764 
L 112.043018 178.997631 
L 112.27465 170.171903 
L 112.506281 171.20329 
L 112.737913 176.94959 
L 112.969544 176.404428 
L 113.201175 171.556909 
L 113.432807 180.176359 
L 113.664438 171.100151 
L 113.896069 172.440955 
L 114.127701 172.264145 
L 114.359332 176.080278 
L 114.590964 172.013666 
L 114.822595 178.511405 
L 115.054226 169.715146 
L 115.285858 181.384555 
L 115.517489 177.273741 
L 115.74912 176.448631 
L 115.980752 183.889353 
L 116.212383 180.161625 
L 116.444015 172.912446 
L 116.675646 176.640174 
L 116.907277 176.87592 
L 117.138909 173.988036 
L 117.37054 166.35577 
L 117.602172 178.231457 
L 117.833803 178.128319 
L 118.065434 178.59981 
L 118.297066 172.131539 
L 118.528697 185.49537 
L 118.99196 175.166764 
L 119.223591 181.251948 
L 119.455223 174.886816 
L 119.686854 174.97522 
L 119.918485 180.603648 
L 120.150117 174.621602 
L 120.381748 180.39737 
L 120.61338 182.636954 
L 120.845011 177.877839 
L 121.076642 177.332677 
L 121.308274 180.780457 
L 121.539905 180.294232 
L 121.771536 172.529359 
L 122.003168 180.765723 
L 122.234799 175.72666 
L 122.466431 181.045671 
L 122.698062 177.480018 
L 122.929693 177.067463 
L 123.161325 183.123179 
L 123.392956 178.688214 
L 123.624587 171.954729 
L 123.856219 179.24811 
L 124.08785 176.816983 
L 124.319482 175.932937 
L 124.551113 173.634417 
L 124.782744 180.07322 
L 125.246007 173.708088 
L 125.477639 176.551769 
L 125.70927 181.811844 
L 125.940901 172.116804 
L 126.172533 179.881677 
L 126.404164 177.671561 
L 126.635795 183.506266 
L 126.867427 184.906006 
L 127.099058 185.053347 
L 127.33069 184.139833 
L 127.562321 177.362145 
L 127.793952 176.62544 
L 128.025584 179.631197 
L 128.257215 180.64785 
L 128.488847 176.463365 
L 128.720478 188.397988 
L 128.952109 183.241052 
L 129.183741 180.780457 
L 129.415372 179.763804 
L 129.647003 181.517162 
L 129.878635 179.778538 
L 130.110266 187.425538 
L 130.341898 179.734336 
L 130.573529 184.478717 
L 130.80516 184.405046 
L 131.036792 180.3237 
L 131.268423 184.743931 
L 131.500054 176.640174 
L 131.731686 176.610706 
L 131.963317 184.817601 
L 132.194949 179.395451 
L 132.42658 189.429376 
L 132.658211 177.185336 
L 132.889843 187.455006 
L 133.121474 178.835555 
L 133.353106 175.80033 
L 133.584737 186.96878 
L 133.816368 183.963023 
L 134.048 176.139215 
L 134.279631 186.89511 
L 134.511262 185.230156 
L 134.742894 182.681156 
L 134.974525 182.312804 
L 135.206157 185.598509 
L 135.437788 179.307047 
L 135.669419 182.312804 
L 135.901051 179.321781 
L 136.132682 185.878457 
L 136.364314 182.8727 
L 136.595945 183.874619 
L 136.827576 179.439654 
L 137.290839 190.313422 
L 137.52247 193.171838 
L 137.754102 183.299989 
L 137.985733 182.165463 
L 138.217365 185.156486 
L 138.448996 178.968162 
L 138.680627 185.333295 
L 138.912259 184.640792 
L 139.14389 186.909844 
L 139.375521 181.001469 
L 139.607153 178.92396 
L 139.838784 182.578018 
L 140.070416 192.582474 
L 140.76531 185.259624 
L 140.996941 189.370439 
L 141.228573 179.144972 
L 141.691835 185.303827 
L 141.923467 186.806705 
L 142.155098 181.355087 
L 142.386729 189.488312 
L 142.618361 186.349948 
L 143.081624 193.569659 
L 143.313255 187.867561 
L 143.544886 192.553005 
L 144.008149 183.373659 
L 144.239781 190.239751 
L 144.471412 185.701648 
L 144.703043 190.254485 
L 144.934675 190.328156 
L 145.166306 190.652306 
L 145.397937 185.598509 
L 145.629569 183.462064 
L 145.8612 191.005925 
L 146.556094 187.484474 
L 146.787726 181.561365 
L 147.019357 192.494069 
L 147.250988 191.005925 
L 147.48262 182.430677 
L 147.714251 180.854128 
L 147.945883 192.331994 
L 148.177514 193.274977 
L 148.872408 180.191093 
L 149.10404 184.552387 
L 149.335671 191.094329 
L 149.567302 188.604266 
L 149.798934 191.99311 
L 150.030565 183.167382 
L 150.262196 185.259624 
L 150.493828 186.114202 
L 150.725459 194.68945 
L 150.957091 193.319179 
L 151.188722 186.187873 
L 151.420353 188.722139 
L 151.651985 193.775936 
L 151.883616 190.91752 
L 152.115248 190.622838 
L 152.346879 192.376196 
L 152.57851 187.292931 
L 152.810142 185.112283 
L 153.273404 194.438971 
L 153.505036 189.532514 
L 153.736667 180.191093 
L 153.968299 186.674098 
L 154.19993 184.891272 
L 154.663193 188.604266 
L 154.894824 200.980912 
L 155.126455 189.503046 
L 155.358087 186.791971 
L 155.589718 192.228855 
L 155.82135 185.804786 
L 156.052981 194.954664 
L 156.284612 189.326237 
L 156.516244 193.083433 
L 156.747875 186.541491 
L 156.979507 191.020659 
L 157.211138 191.315341 
L 157.442769 186.806705 
L 158.137663 192.508803 
L 158.369295 196.501745 
L 158.600926 198.56452 
L 158.832558 198.756063 
L 159.064189 186.659364 
L 159.29582 193.643329 
L 159.759083 189.591451 
L 159.990715 195.043069 
L 160.222346 195.632433 
L 160.453977 194.321098 
L 160.685609 192.140451 
L 160.91724 182.784295 
L 161.148871 197.695207 
L 161.380503 189.989272 
L 161.612134 190.725977 
L 161.843766 189.031555 
L 162.075397 184.478717 
L 162.307028 190.740711 
L 162.53866 187.572879 
L 163.001922 194.070618 
L 163.233554 187.366601 
L 163.465185 186.791971 
L 163.696817 195.617699 
L 163.928448 185.465902 
L 164.160079 184.979676 
L 164.623342 198.844467 
L 164.854974 191.713162 
L 165.086605 199.345427 
L 165.318236 193.952745 
L 165.549868 196.634352 
L 165.781499 193.319179 
L 166.01313 192.037312 
L 166.244762 186.467821 
L 166.476393 186.114202 
L 166.708025 183.152648 
L 167.402919 192.258323 
L 167.63455 191.786832 
L 167.866182 201.408201 
L 168.097813 189.856665 
L 168.329444 187.057185 
L 168.561076 193.805404 
L 168.792707 191.256404 
L 169.024338 195.396687 
L 169.25597 196.457543 
L 169.487601 194.61578 
L 169.719233 189.782994 
L 169.950864 197.371057 
L 170.182495 198.225635 
L 170.414127 201.51134 
L 170.645758 189.090491 
L 170.877389 195.352485 
L 171.109021 191.624757 
L 171.340652 191.99311 
L 171.572284 196.973236 
L 171.803915 193.333913 
L 172.035546 187.808624 
L 172.267178 195.971317 
L 172.498809 194.880994 
L 172.730441 195.278815 
L 172.962072 192.214121 
L 173.193703 193.952745 
L 173.425335 194.556843 
L 173.656966 198.078294 
L 173.888597 195.485092 
L 174.120229 194.453705 
L 174.35186 191.389011 
L 174.583492 186.128937 
L 174.815123 196.9143 
L 175.046754 196.766959 
L 175.278386 195.750306 
L 175.510017 201.142988 
L 175.741649 194.807323 
L 175.97328 198.549785 
L 176.204911 191.050127 
L 176.436543 190.770179 
L 176.668174 197.371057 
L 176.899805 196.103924 
L 177.131437 201.570277 
L 177.363068 195.499826 
L 177.5947 193.849607 
L 177.826331 195.470358 
L 178.057962 196.265999 
L 178.289594 198.402444 
L 178.521225 196.398606 
L 178.752856 197.135312 
L 178.984488 202.041768 
L 179.216119 195.927115 
L 179.447751 195.76504 
L 179.679382 195.26408 
L 179.911013 194.217959 
L 180.374276 200.229473 
L 180.605908 190.431295 
L 180.837539 191.035393 
L 181.06917 198.181433 
L 181.300802 200.642028 
L 181.532433 195.013601 
L 181.764064 204.163479 
L 181.995696 196.133393 
L 182.227327 194.29163 
L 182.458959 204.531831 
L 182.69059 192.331994 
L 182.922221 191.580555 
L 183.385484 197.032173 
L 183.617116 200.597826 
L 183.848747 206.653542 
L 184.080378 193.348647 
L 184.31201 193.024497 
L 184.543641 196.987971 
L 184.775272 195.971317 
L 185.006904 189.753526 
L 185.238535 199.507502 
L 185.470167 196.737491 
L 185.701798 197.046907 
L 185.933429 200.524155 
L 186.165061 194.68945 
L 186.628323 199.522236 
L 186.859955 195.102005 
L 187.323218 197.798346 
L 187.554849 189.252566 
L 187.78648 202.970016 
L 188.018112 201.585011 
L 188.249743 194.984132 
L 188.481375 201.570277 
L 188.713006 195.323017 
L 189.176269 205.46008 
L 189.639531 195.028335 
L 189.871163 187.012983 
L 190.102794 194.880994 
L 190.334426 196.059722 
L 190.566057 199.772716 
L 191.02932 191.477416 
L 191.260951 197.415259 
L 191.492583 197.48893 
L 191.724214 192.774017 
L 191.955845 201.864959 
L 192.187477 197.886751 
L 192.419108 196.369138 
L 192.650739 201.997566 
L 193.114002 196.383872 
L 193.345634 194.733653 
L 193.577265 195.013601 
L 193.808896 196.428075 
L 194.040528 191.182734 
L 194.272159 205.253802 
L 194.50379 197.002705 
L 194.735422 196.531213 
L 194.967053 200.273675 
L 195.661947 193.201306 
L 195.893579 200.332612 
L 196.12521 199.71378 
L 196.356842 201.025115 
L 196.588473 200.745167 
L 196.820104 206.550403 
L 197.051736 189.827196 
L 197.283367 206.417796 
L 197.514998 204.870716 
L 197.74663 195.853445 
L 197.978261 201.894427 
L 198.209893 200.200005 
L 198.441524 191.845769 
L 198.673155 196.059722 
L 198.904787 207.979611 
L 199.136418 195.735572 
L 199.36805 197.208982 
L 199.599681 202.262779 
L 199.831312 197.061641 
L 200.062944 204.929652 
L 200.294575 197.783612 
L 200.526206 200.745167 
L 200.757838 202.071236 
L 200.989469 199.492768 
L 201.221101 204.988588 
L 201.452732 206.28519 
L 201.684363 198.697126 
L 201.915995 197.945687 
L 202.379257 195.013601 
L 202.84252 197.798346 
L 203.074152 201.717618 
L 203.305783 203.470976 
L 203.537414 202.719537 
L 203.769046 195.249346 
L 204.000677 204.517097 
L 204.232309 199.522236 
L 204.46394 200.966178 
L 204.695571 192.553005 
L 205.158834 199.13915 
L 205.622097 204.045606 
L 205.853728 199.522236 
L 206.08536 204.016138 
L 206.316991 197.356323 
L 206.548622 200.465219 
L 206.780254 207.036629 
L 207.011885 197.267918 
L 207.243517 207.095565 
L 207.475148 192.523537 
L 207.938411 200.966178 
L 208.170042 200.096866 
L 208.401673 195.882913 
L 208.633305 201.732352 
L 208.864936 197.091109 
L 209.096568 202.439589 
L 209.328199 193.201306 
L 209.791462 209.394085 
L 210.023093 198.991809 
L 210.254724 200.126334 
L 210.486356 203.48571 
L 210.717987 202.218577 
L 210.949619 206.049444 
L 211.18125 202.189109 
L 211.644513 210.484409 
L 211.876144 212.60612 
L 212.107776 204.63497 
L 212.339407 208.937328 
L 212.80267 200.023196 
L 213.034301 203.441508 
L 213.265932 204.723375 
L 213.497564 198.903404 
L 213.960827 206.270455 
L 214.424089 198.328774 
L 214.655721 204.752843 
L 214.887352 201.142988 
L 215.118983 205.548484 
L 215.350615 201.378733 
L 215.582246 204.811779 
L 215.813878 198.490849 
L 216.045509 203.750924 
L 216.27714 204.88545 
L 216.740403 208.495305 
L 216.972035 204.782311 
L 217.203666 211.515796 
L 217.435297 199.21282 
L 217.666929 207.331311 
L 217.89856 203.279433 
L 218.361823 207.331311 
L 218.593454 202.292248 
L 219.056717 199.4633 
L 219.288348 202.896346 
L 219.51998 198.63819 
L 219.751611 201.997566 
L 219.983243 210.602282 
L 220.214874 199.419098 
L 220.446505 202.027034 
L 220.909768 201.26086 
L 221.141399 204.693906 
L 221.373031 199.374895 
L 221.604662 204.281352 
L 221.836294 198.269837 
L 222.067925 198.579254 
L 222.299556 210.911698 
L 222.531188 205.46008 
L 222.762819 197.046907 
L 222.99445 202.690068 
L 223.226082 200.524155 
L 223.457713 201.982831 
L 223.920976 210.027652 
L 224.152607 205.180132 
L 224.384239 204.38449 
L 224.61587 207.066097 
L 224.847502 202.749005 
L 225.079133 208.863658 
L 225.310764 207.50812 
L 225.774027 200.465219 
L 226.005658 203.854063 
L 226.23729 200.450485 
L 226.468921 203.500444 
L 226.700553 203.456242 
L 226.932184 205.592687 
L 227.163815 204.944386 
L 227.395447 195.735572 
L 227.627078 211.132709 
L 227.85871 200.155803 
L 228.090341 208.215357 
L 228.321972 201.305063 
L 228.553604 205.194866 
L 228.785235 204.296086 
L 229.016866 209.025733 
L 229.480129 201.776554 
L 229.943392 207.25764 
L 230.175023 207.139768 
L 230.406655 213.711178 
L 230.638286 204.767577 
L 230.869917 202.33645 
L 231.101549 209.895045 
L 231.33318 203.927733 
L 231.564812 208.392166 
L 231.796443 207.552322 
L 232.028074 201.098785 
L 232.259706 208.922594 
L 232.491337 207.43445 
L 232.722969 214.772033 
L 232.9546 197.636271 
L 233.186231 202.100704 
L 233.417863 208.716317 
L 233.649494 210.499143 
L 233.881125 206.668276 
L 234.112757 200.524155 
L 234.344388 203.323635 
L 234.57602 204.561299 
L 234.807651 212.561917 
L 235.039282 202.719537 
L 235.270914 208.141687 
L 235.502545 203.839328 
L 235.734177 206.049444 
L 235.965808 209.511958 
L 236.197439 207.699663 
L 236.429071 208.922594 
L 236.660702 205.828432 
L 236.892333 209.128871 
L 237.123965 210.572814 
L 237.355596 205.769496 
L 237.587228 213.033409 
L 238.05049 206.049444 
L 238.282122 206.550403 
L 238.513753 212.738727 
L 239.208647 202.527993 
L 239.440279 206.196785 
L 239.67191 205.931571 
L 239.903541 208.185889 
L 240.135173 205.047525 
L 240.366804 210.720155 
L 240.830067 201.570277 
L 241.061698 210.852762 
L 241.29333 211.338987 
L 241.524961 208.672114 
L 241.756592 208.893126 
L 241.988224 202.631132 
L 242.219855 205.681091 
L 242.451487 213.372293 
L 242.683118 200.86304 
L 242.914749 208.966796 
L 243.146381 207.463918 
L 243.378012 210.042386 
L 243.609644 208.539507 
L 243.841275 203.662519 
L 244.072906 201.968097 
L 244.304538 202.58693 
L 244.536169 209.453022 
L 244.7678 203.087889 
L 244.999432 215.700281 
L 245.231063 207.596525 
L 245.462695 208.789987 
L 245.694326 201.688149 
L 245.925957 199.036011 
L 246.157589 200.1116 
L 246.38922 211.663137 
L 246.620851 211.869415 
L 246.852483 209.939247 
L 247.084114 209.497224 
L 247.315746 208.33323 
L 247.547377 210.734889 
L 247.779008 210.101322 
L 248.01064 203.205762 
L 248.242271 211.147444 
L 248.473903 214.33001 
L 248.705534 211.294785 
L 248.937165 201.717618 
L 249.168797 206.10838 
L 249.400428 206.624074 
L 249.632059 210.3076 
L 249.863691 207.861739 
L 250.326954 214.58049 
L 250.558585 203.132091 
L 250.790216 214.506819 
L 251.253479 202.58693 
L 251.485111 212.10516 
L 251.716742 203.912999 
L 251.948373 210.027652 
L 252.180005 210.617016 
L 252.411636 208.745785 
L 252.643267 212.561917 
L 252.874899 211.250582 
L 253.10653 202.439589 
L 253.338162 205.356941 
L 253.569793 205.474814 
L 253.801424 215.464536 
L 254.033056 207.522854 
L 254.264687 205.946305 
L 254.496318 206.123114 
L 254.72795 206.741947 
L 254.959581 209.821374 
L 255.191213 208.686848 
L 255.422844 205.548484 
L 255.886107 215.862357 
L 256.117738 211.059039 
L 256.34937 215.980229 
L 256.581001 204.767577 
L 256.812632 216.731669 
L 257.044264 211.412657 
L 257.275895 208.672114 
L 257.507526 217.217894 
L 257.739158 211.147444 
L 257.970789 210.838027 
L 258.434052 217.615715 
L 258.665683 216.024432 
L 258.897315 208.171155 
L 259.128946 213.82905 
L 259.360578 216.333848 
L 259.592209 209.143606 
L 259.82384 209.290947 
L 260.055472 213.25442 
L 260.750366 210.337068 
L 260.981997 213.195484 
L 261.213629 210.233929 
L 261.44526 204.973854 
L 261.676891 204.752843 
L 261.908523 213.681709 
L 262.140154 213.5049 
L 262.371785 211.618935 
L 262.603417 216.62853 
L 262.835048 215.921293 
L 263.298311 212.370374 
L 263.529942 209.069935 
L 263.761574 218.485027 
L 263.993205 199.050745 
L 264.224837 212.561917 
L 264.456468 201.923895 
L 264.688099 209.983449 
L 264.919731 204.738109 
L 265.382993 214.595224 
L 265.846256 206.093646 
L 266.077888 213.445964 
L 266.309519 212.134628 
L 266.54115 202.616398 
L 266.772782 208.819455 
L 267.004413 210.012918 
L 267.236045 218.116674 
L 267.467676 207.729132 
L 267.699307 212.134628 
L 267.930939 206.270455 
L 268.16257 216.982148 
L 268.394201 206.388328 
L 268.625833 211.515796 
L 268.857464 211.648403 
L 269.089096 217.306299 
L 269.320727 214.97831 
L 269.552358 218.278749 
L 269.78399 207.670195 
L 270.015621 211.839946 
L 270.247252 210.793825 
L 270.478884 214.300542 
L 271.173778 206.093646 
L 271.405409 215.346663 
L 271.637041 217.600981 
L 271.868672 206.992427 
L 272.100304 219.457478 
L 272.331935 213.932189 
L 272.563566 220.783547 
L 272.795198 212.340906 
L 273.026829 209.364617 
L 273.25846 213.82905 
L 273.490092 214.447883 
L 273.721723 211.957819 
L 273.953355 217.365235 
L 274.184986 211.000103 
L 274.416617 211.073773 
L 274.87988 215.169854 
L 275.343143 204.413958 
L 275.574774 212.915536 
L 275.806406 213.991125 
L 276.038037 211.029571 
L 276.269668 215.376131 
L 276.5013 203.382571 
L 277.196194 211.869415 
L 277.427825 213.151282 
L 277.659457 213.445964 
L 277.891088 212.03149 
L 278.122719 208.952062 
L 278.354351 214.374212 
L 278.585982 213.681709 
L 278.817614 214.477351 
L 279.049245 213.239686 
L 279.280876 208.834189 
L 279.744139 220.267853 
L 279.975771 215.656079 
L 280.207402 225.085905 
L 280.439033 216.672732 
L 280.670665 215.494004 
L 280.902296 213.092345 
L 281.133927 222.463235 
L 281.365559 217.232628 
L 281.59719 214.948842 
L 281.828822 217.880929 
L 282.060453 216.790605 
L 282.292084 209.453022 
L 282.523716 212.591386 
L 282.755347 220.253119 
L 283.21861 216.716935 
L 283.450241 215.818154 
L 283.681873 217.718854 
L 283.913504 224.909096 
L 284.145135 216.937946 
L 284.376767 220.857218 
L 284.608398 218.278749 
L 284.84003 214.388946 
L 285.071661 215.346663 
L 285.303292 223.465154 
L 285.534924 218.706038 
L 285.766555 224.393402 
L 286.229818 214.182669 
L 286.461449 209.173074 
L 286.693081 221.431848 
L 286.924712 217.954599 
L 287.156343 219.737426 
L 287.387975 214.757299 
L 287.619606 216.672732 
L 287.851238 224.67335 
L 288.082869 212.473513 
L 288.546132 223.111535 
L 288.777763 225.012235 
L 289.009394 214.108998 
L 289.241026 215.788686 
L 289.472657 220.724611 
L 289.704289 217.556778 
L 289.93592 221.446582 
L 290.167551 216.731669 
L 290.630814 219.722692 
L 291.094077 215.331929 
L 291.325708 219.560616 
L 291.55734 216.12757 
L 291.788971 222.271691 
L 292.020602 216.893744 
L 292.252234 214.212137 
L 292.483865 218.440825 
L 292.715497 214.919374 
L 292.947128 213.283889 
L 293.178759 219.663755 
L 293.410391 210.278132 
L 293.642022 224.42287 
L 293.873653 222.934726 
L 294.105285 213.873253 
L 294.336916 218.529229 
L 294.568548 214.285808 
L 294.800179 217.512576 
L 295.03181 218.322952 
L 295.263442 218.411356 
L 295.495073 214.462617 
L 295.726705 217.011617 
L 295.958336 220.827749 
L 296.421599 210.086588 
L 296.65323 215.700281 
L 296.884861 214.462617 
L 297.116493 214.65416 
L 297.348124 216.967414 
L 297.579756 220.827749 
L 298.27465 212.267235 
L 298.506281 220.444663 
L 298.737913 222.463235 
L 299.201175 211.78101 
L 299.432807 215.818154 
L 299.664438 217.114755 
L 299.896069 226.603518 
L 300.127701 221.652859 
L 300.359332 221.372911 
L 300.590964 219.943703 
L 300.822595 220.07631 
L 301.054226 214.786767 
L 301.285858 223.023131 
L 301.74912 224.511275 
L 301.980752 215.670813 
L 302.675646 217.880929 
L 302.907277 224.128188 
L 303.138909 217.497842 
L 303.37054 217.217894 
L 303.602172 216.62853 
L 303.833803 217.512576 
L 304.297066 227.502298 
L 304.528697 213.077611 
L 304.760328 220.017374 
L 304.99196 214.020594 
L 305.223591 224.187125 
L 305.455223 214.919374 
L 305.686854 215.523472 
L 305.918485 223.155738 
L 306.150117 215.55294 
L 306.381748 216.540125 
L 306.61338 216.392784 
L 306.845011 215.715016 
L 307.076642 212.753461 
L 307.539905 220.223651 
L 307.771536 222.595842 
L 308.003168 221.682327 
L 308.234799 215.72975 
L 308.698062 218.35242 
L 308.929693 213.652241 
L 309.161325 221.210836 
L 309.392956 216.230709 
L 309.624587 217.129489 
L 309.856219 214.07953 
L 310.08785 220.989824 
L 310.319482 215.258258 
L 310.551113 216.820073 
L 310.782744 224.3492 
L 311.014376 214.742565 
L 311.246007 221.579189 
L 311.477639 216.937946 
L 311.70927 218.499761 
L 311.940901 217.129489 
L 312.172533 218.647102 
L 312.404164 221.520252 
L 312.635795 218.92705 
L 312.867427 218.823911 
L 313.099058 219.310137 
L 313.33069 213.519634 
L 313.562321 223.19994 
L 313.793952 225.189044 
L 314.025584 216.87901 
L 314.257215 219.516414 
L 314.488847 220.518333 
L 314.720478 220.282588 
L 314.952109 222.62531 
L 315.183741 218.67657 
L 315.415372 223.037865 
L 315.647003 224.850159 
L 315.878635 219.796362 
L 316.110266 223.789304 
L 316.341898 213.062877 
L 316.80516 226.426709 
L 317.268423 214.374212 
L 317.731686 221.063495 
L 317.963317 213.563836 
L 318.42658 221.078229 
L 318.658211 211.618935 
L 318.889843 220.179449 
L 319.121474 217.880929 
L 319.353106 217.807258 
L 319.584737 221.107697 
L 319.816368 222.640044 
L 320.048 215.051981 
L 320.279631 215.494004 
L 320.511262 224.437605 
L 320.742894 219.678489 
L 320.974525 217.45364 
L 321.206157 211.353721 
L 321.437788 222.713715 
L 321.669419 226.868732 
L 321.901051 212.28197 
L 322.132682 220.709877 
L 322.364314 223.214674 
L 322.595945 212.93027 
L 322.827576 221.137165 
L 323.059208 220.680408 
L 323.290839 223.818772 
L 323.52247 221.873871 
L 323.754102 215.214056 
L 323.985733 221.991743 
L 324.217365 216.171773 
L 324.448996 218.470293 
L 324.680627 218.735507 
L 324.912259 223.494622 
L 325.14389 218.087206 
L 325.375521 220.312056 
L 325.607153 215.773952 
L 325.838784 214.374212 
L 326.070416 221.785466 
L 326.302047 218.308218 
L 326.533678 217.674651 
L 326.76531 220.857218 
L 326.996941 221.741264 
L 327.228573 218.308218 
L 327.460204 221.593923 
L 327.691835 212.016756 
L 327.923467 217.247362 
L 328.155098 213.166016 
L 328.386729 222.360096 
L 328.618361 216.805339 
L 328.849992 221.387645 
L 329.081624 216.731669 
L 329.313255 214.948842 
L 329.544886 224.069252 
L 329.776518 225.100639 
L 330.239781 210.3076 
L 330.703043 222.168553 
L 330.934675 211.471594 
L 331.166306 216.643264 
L 331.397937 210.661218 
L 331.629569 220.842483 
L 331.8612 224.496541 
L 332.092832 221.608657 
L 332.324463 211.103241 
L 332.787726 229.240922 
L 333.019357 214.742565 
L 333.48262 218.661836 
L 333.714251 222.492703 
L 333.945883 215.007779 
L 334.177514 218.941784 
L 334.409145 214.506819 
L 334.640777 220.429929 
L 334.872408 223.052599 
L 335.10404 220.488865 
L 335.335671 228.533685 
L 335.567302 214.919374 
L 336.262196 227.738044 
L 336.493828 218.35242 
L 336.725459 218.573432 
L 336.957091 220.00264 
L 337.188722 213.814316 
L 337.651985 220.194183 
L 337.883616 215.847622 
L 338.115248 215.302461 
L 338.57851 225.74894 
L 338.810142 215.582409 
L 339.041773 214.683628 
L 339.273404 215.891825 
L 339.505036 223.730368 
L 339.736667 220.267853 
L 339.968299 219.943703 
L 340.19993 224.467073 
L 340.431561 215.788686 
L 340.894824 224.688084 
L 341.589718 214.58049 
L 341.82135 221.608657 
L 342.052981 220.032108 
L 342.284612 222.610576 
L 342.516244 221.372911 
L 342.747875 219.486946 
L 342.979507 220.503599 
L 343.211138 217.247362 
L 343.442769 218.219813 
L 343.674401 222.713715 
L 344.137663 220.65094 
L 344.369295 221.608657 
L 344.600926 214.374212 
L 344.832558 211.736808 
L 345.064189 213.858519 
L 345.29582 207.714398 
L 345.527452 219.221732 
L 345.759083 224.835425 
L 345.990715 216.274911 
L 346.685609 220.00264 
L 346.91724 213.490166 
L 347.148871 212.164097 
L 347.380503 218.617634 
L 347.612134 213.637507 
L 347.843766 221.343443 
L 348.075397 219.884767 
L 348.307028 212.149363 
L 348.770291 222.37483 
L 349.001922 219.339605 
L 349.233554 219.50168 
L 349.465185 222.080148 
L 349.696817 221.034027 
L 349.928448 215.420333 
L 350.160079 222.212755 
L 350.623342 209.585629 
L 350.854974 218.470293 
L 351.086605 222.846321 
L 351.318236 220.945622 
L 351.549868 215.47927 
L 351.781499 215.214056 
L 352.01313 228.327408 
L 352.244762 221.048761 
L 352.476393 222.934726 
L 352.708025 223.877709 
L 352.939656 222.433767 
L 353.171287 225.586865 
L 353.402919 216.908478 
L 353.63455 216.157039 
L 353.866182 218.67657 
L 354.097813 216.392784 
L 354.329444 225.82261 
L 354.561076 218.02827 
L 354.792707 218.322952 
L 355.024338 217.866195 
L 355.25597 218.794443 
L 355.487601 216.716935 
L 355.719233 220.341524 
L 356.182495 216.039166 
L 356.414127 219.059657 
L 356.645758 225.292183 
L 356.877389 223.892443 
L 357.340652 215.007779 
L 357.572284 214.226871 
L 357.803915 216.657998 
L 358.267178 225.690003 
L 358.498809 225.631067 
L 358.730441 211.412657 
L 358.962072 217.866195 
L 359.193703 219.206998 
L 359.425335 226.441443 
L 359.656966 219.339605 
L 359.888597 226.176229 
L 360.120229 220.223651 
L 360.35186 221.697061 
L 360.583492 220.97509 
L 360.815123 218.160877 
L 361.046754 218.868114 
L 361.278386 216.098102 
L 361.741649 222.360096 
L 361.97328 219.870033 
L 362.204911 212.134628 
L 362.436543 228.386344 
L 362.668174 216.466455 
L 363.131437 229.874489 
L 363.363068 212.591386 
L 363.363068 212.591386 
" style="fill:none;stroke:#1f77b4;stroke-linecap:square;stroke-width:1.5;"/>
   </g>
   <g id="patch_3">
    <path d="M 43.78125 239.758125 
L 43.78125 22.318125 
" style="fill:none;stroke:#000000;stroke-linecap:square;stroke-linejoin:miter;stroke-width:0.8;"/>
   </g>
   <g id="patch_4">
    <path d="M 378.58125 239.758125 
L 378.58125 22.318125 
" style="fill:none;stroke:#000000;stroke-linecap:square;stroke-linejoin:miter;stroke-width:0.8;"/>
   </g>
   <g id="patch_5">
    <path d="M 43.78125 239.758125 
L 378.58125 239.758125 
" style="fill:none;stroke:#000000;stroke-linecap:square;stroke-linejoin:miter;stroke-width:0.8;"/>
   </g>
   <g id="patch_6">
    <path d="M 43.78125 22.318125 
L 378.58125 22.318125 
" style="fill:none;stroke:#000000;stroke-linecap:square;stroke-linejoin:miter;stroke-width:0.8;"/>
   </g>
   <g id="text_18">
    <!-- RETINA NET -->
    <defs>
     <path d="M 44.390625 34.1875 
Q 47.5625 33.109375 50.5625 29.59375 
Q 53.5625 26.078125 56.59375 19.921875 
L 66.609375 0 
L 56 0 
L 46.6875 18.703125 
Q 43.0625 26.03125 39.671875 28.421875 
Q 36.28125 30.8125 30.421875 30.8125 
L 19.671875 30.8125 
L 19.671875 0 
L 9.8125 0 
L 9.8125 72.90625 
L 32.078125 72.90625 
Q 44.578125 72.90625 50.734375 67.671875 
Q 56.890625 62.453125 56.890625 51.90625 
Q 56.890625 45.015625 53.6875 40.46875 
Q 50.484375 35.9375 44.390625 34.1875 
z
M 19.671875 64.796875 
L 19.671875 38.921875 
L 32.078125 38.921875 
Q 39.203125 38.921875 42.84375 42.21875 
Q 46.484375 45.515625 46.484375 51.90625 
Q 46.484375 58.296875 42.84375 61.546875 
Q 39.203125 64.796875 32.078125 64.796875 
z
" id="DejaVuSans-82"/>
     <path d="M 9.8125 72.90625 
L 19.671875 72.90625 
L 19.671875 0 
L 9.8125 0 
z
" id="DejaVuSans-73"/>
     <path d="M 9.8125 72.90625 
L 23.09375 72.90625 
L 55.421875 11.921875 
L 55.421875 72.90625 
L 64.984375 72.90625 
L 64.984375 0 
L 51.703125 0 
L 19.390625 60.984375 
L 19.390625 0 
L 9.8125 0 
z
" id="DejaVuSans-78"/>
    </defs>
    <g transform="translate(175.341563 16.318125)scale(0.12 -0.12)">
     <use xlink:href="#DejaVuSans-82"/>
     <use x="69.482422" xlink:href="#DejaVuSans-69"/>
     <use x="132.666016" xlink:href="#DejaVuSans-84"/>
     <use x="193.75" xlink:href="#DejaVuSans-73"/>
     <use x="223.242188" xlink:href="#DejaVuSans-78"/>
     <use x="298.046875" xlink:href="#DejaVuSans-65"/>
     <use x="366.455078" xlink:href="#DejaVuSans-32"/>
     <use x="398.242188" xlink:href="#DejaVuSans-78"/>
     <use x="473.046875" xlink:href="#DejaVuSans-69"/>
     <use x="536.230469" xlink:href="#DejaVuSans-84"/>
    </g>
   </g>
  </g>
 </g>
 <defs>
  <clipPath id="pa546455b75">
   <rect height="217.44" width="334.8" x="43.78125" y="22.318125"/>
  </clipPath>
 </defs>
</svg>
